<?xml version="1.0" standalone="no"?>
<!DOCTYPE svg PUBLIC "-//W3C//DTD SVG 1.1//EN" "http://www.w3.org/Graphics/SVG/1.1/DTD/svg11.dtd" >
<svg xmlns="http://www.w3.org/2000/svg" xmlns:xlink="http://www.w3.org/1999/xlink" version="1.1">
<metadata>
Created by FontForge 20170731 at Tue Sep  8 15:19:22 2015
 By Aleksey,,,
Copyright (c) 2013, 2014 Monotype Imaging Inc. All rights reserved.
</metadata>
<defs>
<font id="HelveticaNeueLTW06-93BlkExtObl" horiz-adv-x="870" >
  <font-face 
    font-family="HelveticaNeueLTW06-93BlkExtObl"
    font-weight="900"
    font-style="italic"
    font-stretch="expanded"
    units-per-em="1000"
    panose-1="2 11 10 5 4 5 2 9 2 4"
    ascent="800"
    descent="-200"
    x-height="547"
    cap-height="714"
    bbox="-298 -235 1614 1011"
    underline-thickness="50"
    underline-position="-175"
    slope="-12"
    unicode-range="U+000D-FB04"
  />
<missing-glyph horiz-adv-x="512" 
d="M0 0v718h512v-718h-512zM462 667h-412v-617h412v617zM225 234q0 5 -1 13l-1 12q0 50 14 75.5t52 63.5q26 26 34.5 41.5t8.5 34.5q0 35 -22.5 60t-53.5 25t-53.5 -22t-28.5 -73l-50 8q6 70 43 103.5t92 33.5t89.5 -37.5t34.5 -93.5q0 -35 -13.5 -61.5t-50.5 -59.5
q-26 -24 -34.5 -35.5t-11 -33t-2.5 -54.5h-46zM222 117v67h56v-67h-56z" />
    <glyph glyph-name="IJ" unicode="IJ" horiz-adv-x="1249" 
d="M72 0l148 714h282l-148 -714h-282zM1061 714h282l-90 -433q-27 -126 -75 -186.5t-130.5 -90t-210.5 -29.5q-127 0 -194 19.5t-101.5 63.5t-34.5 122q0 48 15 119h282q-6 -28 -10 -51.5t-4 -37.5q0 -29 14.5 -45t52.5 -16q47 0 73 27.5t37 81.5z" />
    <glyph glyph-name="ij" unicode="ij" horiz-adv-x="783" 
d="M184 601l29 138h250l-29 -138h-250zM60 0l113 547h250l-113 -547h-250zM597 601l29 138h250l-29 -138h-250zM366 -16h26q44 0 56 3.5t19.5 14t15.5 49.5l103 496h250l-112 -538q-17 -83 -44 -124.5t-78 -61t-135 -19.5q-121 2 -137 6z" />
    <glyph glyph-name="napostrophe" unicode="&#x22;n" horiz-adv-x="868" 
d="M370 751q-9 -39 -27 -64t-52.5 -36.5t-124.5 -13.5l10 48q29 2 45 7.5t26 21.5h-106l22 108h222zM558 0l54 262q8 36 8 54q0 65 -79 66q-55 0 -92.5 -34.5t-51.5 -100.5l-51 -247h-250l113 547h242l-14 -68h2q39 37 105.5 60t137.5 23q102 -1 153 -41.5t51 -115.5
q0 -23 -6 -56l-72 -349h-250z" />
    <glyph glyph-name="uniFB00" unicode="ff" horiz-adv-x="972" 
d="M578 0l81 391h-203l-81 -391h-250l81 391h-116l32 156h116l13 62q16 75 75 105.5t176 30.5q51 0 92 -1.5t69 -4.5l-27 -132h-73q-41 0 -53.5 -11.5t-17.5 -31.5l-4 -17h203l13 62q16 75 75 105.5t176 30.5q51 0 92 -1.5t69 -4.5l-27 -132h-73q-41 0 -53.5 -11.5
t-17.5 -31.5l-4 -17h135l-32 -156h-135l-81 -391h-250z" />
    <glyph glyph-name="uniFB01" unicode="fi" horiz-adv-x="888" 
d="M125 0l81 391h-116l32 156h116l13 62q16 75 75 105.5t176 30.5q51 0 92 -1.5t69 -4.5l-27 -132h-73q-41 0 -53.5 -11.5t-17.5 -31.5l-4 -17h135l-32 -156h-135l-81 -391h-250zM702 601l29 138h250l-29 -138h-250zM578 0l113 547h250l-113 -547h-250z" />
    <glyph glyph-name="uniFB02" unicode="fl" horiz-adv-x="888" 
d="M125 0l81 391h-116l32 156h116l13 62q16 75 75 105.5t176 30.5q51 0 92 -1.5t69 -4.5l-27 -132h-73q-41 0 -53.5 -11.5t-17.5 -31.5l-4 -17h135l-32 -156h-135l-81 -391h-250zM578 0l153 739h250l-153 -739h-250z" />
    <glyph glyph-name="uniFB03" unicode="ffi" horiz-adv-x="1341" 
d="M578 0l81 391h-203l-81 -391h-250l81 391h-116l32 156h116l13 62q16 75 75 105.5t176 30.5q51 0 92 -1.5t69 -4.5l-27 -132h-73q-41 0 -53.5 -11.5t-17.5 -31.5l-4 -17h203l13 62q16 75 75 105.5t176 30.5q51 0 92 -1.5t69 -4.5l-27 -132h-73q-41 0 -53.5 -11.5
t-17.5 -31.5l-4 -17h135l-32 -156h-135l-81 -391h-250zM1155 601l29 138h250l-29 -138h-250zM1031 0l113 547h250l-113 -547h-250z" />
    <glyph glyph-name="uniFB04" unicode="ffl" horiz-adv-x="1341" 
d="M578 0l81 391h-203l-81 -391h-250l81 391h-116l32 156h116l13 62q16 75 75 105.5t176 30.5q51 0 92 -1.5t69 -4.5l-27 -132h-73q-41 0 -53.5 -11.5t-17.5 -31.5l-4 -17h203l13 62q16 75 75 105.5t176 30.5q51 0 92 -1.5t69 -4.5l-27 -132h-73q-41 0 -53.5 -11.5
t-17.5 -31.5l-4 -17h135l-32 -156h-135l-81 -391h-250zM1031 0l153 739h250l-153 -739h-250z" />
    <glyph glyph-name=".notdef" horiz-adv-x="512" 
d="M0 0v718h512v-718h-512zM462 667h-412v-617h412v617zM225 234q0 5 -1 13l-1 12q0 50 14 75.5t52 63.5q26 26 34.5 41.5t8.5 34.5q0 35 -22.5 60t-53.5 25t-53.5 -22t-28.5 -73l-50 8q6 70 43 103.5t92 33.5t89.5 -37.5t34.5 -93.5q0 -35 -13.5 -61.5t-50.5 -59.5
q-26 -24 -34.5 -35.5t-11 -33t-2.5 -54.5h-46zM222 117v67h56v-67h-56z" />
    <glyph glyph-name="glyph1" horiz-adv-x="0" 
 />
    <glyph glyph-name="glyph1" horiz-adv-x="0" 
 />
    <glyph glyph-name="uni000D" unicode="&#xd;" horiz-adv-x="408" 
 />
    <glyph glyph-name="space" unicode=" " horiz-adv-x="408" 
 />
    <glyph glyph-name="exclam" unicode="!" horiz-adv-x="408" 
d="M154 275l63 439h270l-121 -439h-212zM73 0l46 224h262l-46 -224h-262z" />
    <glyph glyph-name="quotedbl" unicode="&#x22;" horiz-adv-x="722" 
d="M211 286l89 428h168l-89 -428h-168zM461 286l89 428h168l-89 -428h-168z" />
    <glyph glyph-name="numbersign" unicode="#" horiz-adv-x="600" 
d="M290 0l62 179h-77l-62 -179h-126l62 179h-77l25 120h94l33 96h-78l25 120h95l62 179h126l-62 -179h77l62 179h126l-62 -179h77l-25 -120h-94l-33 -96h78l-25 -120h-95l-62 -179h-126zM427 395h-77l-33 -96h77z" />
    <glyph glyph-name="dollar" unicode="$" horiz-adv-x="964" 
d="M419 -110l18 90q-175 4 -252.5 49t-77.5 137q1 32 3 44h295q0 -2 -1 -8q0 -24 16 -34.5t54 -13.5l23 112l-178 29q-76 12 -111 49t-35 97q0 63 36 128t124.5 103.5t256.5 41.5l19 90h54l-19 -90q171 -6 250 -54t79 -140q0 -21 -2 -30h-294q0 5 1 13q0 48 -66 55l-22 -103
l143 -22q115 -18 165.5 -54.5t50.5 -103.5q0 -77 -44 -149t-143 -109t-271 -37l-18 -90h-54zM558 558h-9q-50 0 -70 -14t-20 -41q0 -19 18 -25.5t61 -14.5zM549 258l-21 -104q60 0 83 14.5t23 46.5q0 29 -44 36z" />
    <glyph glyph-name="percent" unicode="%" horiz-adv-x="1093" 
d="M125 471q0 29 11.5 71t36.5 76t60 55t77 31t92 10q198 0 198 -142q0 -70 -34.5 -130t-97 -87t-145.5 -27q-198 1 -198 143zM243 -20l621 734h128l-621 -734h-128zM379 606q-44 0 -70 -34t-26 -84q0 -22 16 -37t46 -15q47 0 72 33t25 85q0 24 -15 38t-48 14zM636 123
q0 45 19.5 96t56.5 83t86.5 48t115.5 16q97 0 147 -35.5t50 -103.5q0 -49 -18 -97t-50.5 -79.5t-83.5 -51t-123 -19.5q-200 0 -200 143zM890 258q-44 0 -70 -33t-26 -82q0 -26 15.5 -40.5t47.5 -14.5q44 0 70 33t26 85q0 23 -15.5 37.5t-47.5 14.5z" />
    <glyph glyph-name="ampersand" unicode="&#x26;" horiz-adv-x="1038" 
d="M711 0l-46 53q-53 -33 -141 -55.5t-175 -22.5q-128 0 -202.5 52t-74.5 139q0 90 62.5 159t194.5 97q-46 42 -46 91q0 59 38 106t115.5 75t189.5 28q122 0 191.5 -38t69.5 -102q-1 -72 -54.5 -120t-147.5 -65l97 -111q74 51 105 77.5t67 58.5l98 -105q-41 -42 -79.5 -73.5
t-90.5 -63.5l164 -180h-335zM579 485q40 11 64.5 30t24.5 45q0 16 -15.5 26t-44.5 10q-32 0 -51.5 -15.5t-19.5 -37.5q0 -14 10 -26.5t32 -31.5zM426 322q-41 -19 -58 -44.5t-17 -56.5q0 -37 27.5 -60.5t73.5 -23.5q30 0 67 8.5t51 18.5z" />
    <glyph glyph-name="quotesingle" unicode="'" horiz-adv-x="408" 
d="M179 286l89 428h168l-89 -428h-168z" />
    <glyph glyph-name="parenleft" unicode="(" horiz-adv-x="500" 
d="M220 -190q-51 60 -79 142t-28 180q0 162 81.5 320.5t213.5 261.5h175q-100 -138 -162.5 -301t-62.5 -343q0 -73 10 -138.5t27 -121.5h-175z" />
    <glyph glyph-name="parenright" unicode=")" horiz-adv-x="500" 
d="M25 -190q91 122 158 291t67 354q0 73 -10 140t-27 119h175q52 -61 79 -143t27 -178q0 -167 -82.5 -324t-211.5 -259h-175z" />
    <glyph glyph-name="asterisk" unicode="*" horiz-adv-x="464" 
d="M366 262l-55 118l-105 -118l-94 83l112 111l-124 40l65 128l122 -55l24 145h138l-36 -145l144 55l13 -128l-142 -40l66 -111z" />
    <glyph glyph-name="plus" unicode="+" horiz-adv-x="600" 
d="M409 181l-37 -181h-144l37 181h-181l30 144h181l38 181h144l-38 -181h181l-30 -144h-181z" />
    <glyph glyph-name="comma" unicode="," horiz-adv-x="408" 
d="M49 -114q56 7 91.5 33.5t50.5 80.5h-118l46 224h262l-34 -165q-22 -112 -108.5 -183.5t-208.5 -79.5z" />
    <glyph glyph-name="hyphen" unicode="-" horiz-adv-x="481" 
d="M145 207l72 174h363l-72 -174h-363z" />
    <glyph glyph-name="period" unicode="." horiz-adv-x="408" 
d="M73 0l46 224h262l-46 -224h-262z" />
    <glyph glyph-name="slash" unicode="/" horiz-adv-x="444" 
d="M-11 -25l437 764h177l-438 -764h-176z" />
    <glyph glyph-name="zero" unicode="0" horiz-adv-x="964" 
d="M477 -18q-186 0 -282 69.5t-96 201.5q0 93 39.5 186.5t111.5 154t168 89.5t214 29q182 0 279 -67.5t97 -201.5q0 -115 -56 -226.5t-179.5 -173t-295.5 -61.5zM590 532q-61 0 -107 -29t-77 -85.5t-31 -112.5q0 -69 38 -106t104 -37q59 0 108.5 30t78.5 83.5t29 119.5
q0 63 -37.5 100t-105.5 37z" />
    <glyph glyph-name="one" unicode="1" horiz-adv-x="666" 
d="M277 0l82 395h-212l36 174h24q112 0 169 28.5t96 96.5h211l-144 -694h-262z" />
    <glyph glyph-name="two" unicode="2" horiz-adv-x="964" 
d="M30 0q35 160 136 252.5t283 131.5l208 43q34 6 53.5 22t19.5 42q0 23 -27 35t-78 12q-85 0 -124 -22t-56 -75h-300q44 142 163 206.5t322 64.5q104 0 179.5 -12t122.5 -35q95 -47 95 -141q0 -91 -70 -158t-235 -96l-226 -41q-62 -11 -87 -21.5t-46 -33.5h581l-36 -174
h-878z" />
    <glyph glyph-name="three" unicode="3" horiz-adv-x="964" 
d="M862 372q53 -13 82.5 -44t29.5 -78q0 -67 -44 -132t-154.5 -100.5t-276.5 -35.5q-152 0 -239 18t-132.5 64.5t-45.5 122.5q0 13 4 45h288v-8q0 -36 31.5 -52t111.5 -16q82 0 120.5 19.5t38.5 61.5q0 23 -22.5 33t-70.5 10h-186l33 162h197q38 0 61 13.5t23 43.5
q0 24 -28 34.5t-88 10.5q-29 0 -69.5 -2.5t-63.5 -33.5h-294q32 108 143.5 156t321.5 48q203 0 293.5 -37t90.5 -118q0 -71 -37.5 -118.5t-117.5 -64.5v-2z" />
    <glyph glyph-name="four" unicode="4" horiz-adv-x="964" 
d="M823 106l-22 -106h-250l22 106h-510l36 175l487 413h359l-88 -420h129l-34 -168h-129zM660 526l-307 -252h254z" />
    <glyph glyph-name="five" unicode="5" horiz-adv-x="964" 
d="M437 526l-29 -71q49 11 100.5 17.5t105.5 6.5q182 0 271 -49.5t89 -145.5q0 -143 -128.5 -222.5t-365.5 -79.5q-100 0 -175 11.5t-122 35.5q-97 46 -97 158q0 15 4 43h293q4 -27 17 -41t37 -20.5t75 -6.5q93 0 135 22t42 68q0 71 -155 71q-37 0 -69.5 -6.5t-52.5 -17.5
h-271l156 395h729l-35 -168h-554z" />
    <glyph glyph-name="six" unicode="6" horiz-adv-x="964" 
d="M726 488q-2 28 -30.5 42t-94.5 14q-82 0 -130 -30.5t-66 -99.5q37 20 88.5 30t126.5 10q347 0 347 -180q0 -74 -48 -144.5t-151 -109t-254 -38.5q-150 0 -233 24t-128 79.5t-45 151.5q0 115 54.5 234.5t171 180t303.5 60.5q194 0 282.5 -51.5t88.5 -163.5v-9h-282z
M388 212q0 -29 33.5 -45.5t96.5 -16.5q80 0 117.5 19.5t37.5 62.5q0 28 -32.5 44t-97.5 16q-90 0 -122.5 -24.5t-32.5 -55.5z" />
    <glyph glyph-name="seven" unicode="7" horiz-adv-x="926" 
d="M131 0q28 93 85.5 162.5t167 149t319.5 200.5v2h-568l38 180h868l-45 -216q-227 -139 -343 -250t-160 -228h-362z" />
    <glyph glyph-name="eight" unicode="8" horiz-adv-x="964" 
d="M855 372q56 -8 87 -42t31 -87q0 -66 -48.5 -130t-156.5 -97.5t-291 -33.5q-207 0 -303.5 45t-96.5 138q0 79 51.5 136.5t132.5 70.5v2q-97 18 -98 106q0 68 46 124t147.5 82t273.5 26q209 0 296 -39.5t87 -116.5q0 -69 -40.5 -118t-117.5 -64v-2zM592 544q-90 0 -117 -18
t-27 -52q0 -26 27 -35t95 -9q91 0 118.5 17t27.5 54q0 24 -27 33.5t-97 9.5zM375 204q0 -28 32 -41t106 -13q88 0 126.5 19.5t38.5 63.5q0 34 -33.5 43.5t-100.5 9.5q-82 0 -112 -10.5t-43.5 -30t-13.5 -41.5z" />
    <glyph glyph-name="nine" unicode="9" horiz-adv-x="964" 
d="M99 206h282q2 -29 32 -42.5t94 -13.5q82 0 129.5 30.5t66.5 99.5q-30 -17 -81.5 -28.5t-134.5 -11.5q-175 0 -261 45.5t-86 133.5q0 75 49 145t151.5 109t254.5 39q147 0 230 -23.5t129 -78.5t46 -150q-1 -118 -54 -235.5t-168.5 -180t-305.5 -62.5q-193 0 -283 51
t-90 165v8zM434 462q0 -28 32.5 -44t95.5 -16q84 0 120.5 21t36.5 61q0 27 -33 43.5t-97 16.5q-76 0 -115.5 -19.5t-39.5 -62.5z" />
    <glyph glyph-name="colon" unicode=":" horiz-adv-x="408" 
d="M140 323l46 224h262l-46 -224h-262zM73 0l46 224h262l-46 -224h-262z" />
    <glyph glyph-name="semicolon" unicode=";" horiz-adv-x="408" 
d="M139 323l46 224h262l-46 -224h-262zM48 -114q56 7 91.5 33.5t51.5 80.5h-118l45 224h262l-35 -170q-15 -70 -56.5 -125.5t-111.5 -92t-147 -40.5z" />
    <glyph glyph-name="less" unicode="&#x3c;" horiz-adv-x="600" 
d="M83 177l32 152l546 191l-29 -138l-372 -129l318 -129l-28 -138z" />
    <glyph glyph-name="equal" unicode="=" horiz-adv-x="600" 
d="M107 293l30 144h506l-30 -144h-506zM61 69l30 144h506l-30 -144h-506z" />
    <glyph glyph-name="greater" unicode="&#x3e;" horiz-adv-x="600" 
d="M44 -14l28 138l372 129l-318 129l29 138l466 -191l-32 -152z" />
    <glyph glyph-name="question" unicode="?" horiz-adv-x="852" 
d="M696 342q-31 -10 -58 -24.5t-34 -31.5h-256q12 54 34.5 79.5t61.5 44t103 36.5q53 15 76 34.5t23 48.5q0 26 -25.5 40t-72.5 14q-127 0 -150 -113h-282q34 103 89 160.5t144.5 83t234.5 25.5q177 0 266 -43t89 -131q0 -55 -33.5 -108t-126.5 -86q-64 -23 -83 -29zM286 0
l46 224h262l-46 -224h-262z" />
    <glyph glyph-name="at" unicode="@" horiz-adv-x="800" 
d="M759 130q-72 -76 -158 -115.5t-184 -39.5q-94 0 -172 38.5t-120 107t-42 156.5q0 117 68.5 225t182.5 172.5t236 64.5q79 0 150 -30t114 -87t43 -133q0 -94 -53 -179t-138 -129.5t-145 -45.5q-20 0 -32.5 10t-12.5 33v7h-2q-26 -23 -55 -36.5t-55 -13.5q-59 0 -99 43.5
t-40 104.5q0 54 38 122.5t99.5 108.5t125.5 40q40 0 69.5 -14.5t44.5 -48.5l22 50h98l-95 -241q-16 -37 -16 -49q0 -5 2 -8t10 -3q49 0 90 66t42 152q0 87 -61 136t-168 49q-71 0 -132.5 -25.5t-111 -75.5t-77 -118t-27.5 -139q0 -98 66.5 -156t181.5 -58q58 0 110.5 15
t98.5 44h104zM500 440q-47 0 -85.5 -42t-38.5 -88q0 -28 15.5 -44.5t43.5 -16.5q51 0 90 39.5t39 91.5q0 28 -16.5 44t-47.5 16z" />
    <glyph glyph-name="A" unicode="A" horiz-adv-x="888" 
d="M621 0l-13 82h-294l-47 -82h-300l452 714h346l156 -714h-300zM548 498h-2l-134 -242h170z" />
    <glyph glyph-name="B" unicode="B" horiz-adv-x="1000" 
d="M69 0l148 714h647q83 0 129 -31.5t46 -96.5t-32.5 -117t-87.5 -72v-2q42 -11 66.5 -46t24.5 -83q0 -50 -25.5 -108t-71.5 -93.5t-103.5 -50t-124.5 -14.5h-616zM457 540l-19 -92h214q44 0 61.5 15.5t17.5 45.5q0 17 -14.5 24t-45.5 7h-214zM404 286l-23 -112h244
q42 0 62.5 20t20.5 51q0 22 -17.5 31.5t-55.5 9.5h-231z" />
    <glyph glyph-name="C" unicode="C" horiz-adv-x="1019" 
d="M760 434v10q0 56 -33 85.5t-92 29.5q-86 0 -141 -43t-76.5 -114t-21.5 -115q0 -66 36 -99t105 -33t115 30t75 93h318q-61 -163 -183.5 -233t-348.5 -70q-134 0 -208.5 19.5t-118.5 51t-68.5 82.5t-24.5 124q0 44 13 109t41.5 123.5t65.5 100.5t81.5 70.5t99.5 47
t125.5 27.5t151.5 9q140 0 226 -26.5t134 -86t48 -160.5q0 -6 -1 -32h-318z" />
    <glyph glyph-name="D" unicode="D" horiz-adv-x="1019" 
d="M69 0l148 714h555q77 0 133.5 -14t93.5 -42q76 -57 76 -180q0 -58 -12 -117.5t-36 -119.5q-98 -241 -397 -241h-561zM554 180q112 0 165.5 68t54.5 165q0 121 -146 121h-166l-74 -354h166z" />
    <glyph glyph-name="E" unicode="E" horiz-adv-x="852" 
d="M69 0l148 714h759l-36 -174h-477l-20 -96h443l-36 -174h-443l-20 -96h477l-36 -174h-759z" />
    <glyph glyph-name="F" unicode="F" horiz-adv-x="796" 
d="M404 257l-53 -257h-282l148 714h723l-36 -174h-441l-23 -109h406l-36 -174h-406z" />
    <glyph glyph-name="G" unicode="G" horiz-adv-x="1038" 
d="M857 0l-19 65q-75 -55 -155 -72.5t-190 -17.5q-203 0 -301.5 70.5t-98.5 208.5q0 90 36.5 187t108.5 163.5t178.5 100.5t234.5 34q218 0 323.5 -57.5t105.5 -183.5q0 -21 -1 -29h-318q0 45 -31 67.5t-101 22.5q-80 0 -133.5 -37.5t-78.5 -103.5t-25 -123q0 -140 175 -140
q63 0 106.5 21.5t69.5 68.5h-116l34 162h401l-84 -407h-121z" />
    <glyph glyph-name="H" unicode="H" horiz-adv-x="1019" 
d="M668 0l59 285h-317l-59 -285h-282l148 714h282l-52 -249h317l52 249h282l-148 -714h-282z" />
    <glyph glyph-name="I" unicode="I" horiz-adv-x="426" 
d="M72 0l148 714h282l-148 -714h-282z" />
    <glyph glyph-name="J" unicode="J" horiz-adv-x="796" 
d="M607 714h282l-90 -433q-27 -126 -75 -186.5t-130.5 -90t-210.5 -29.5q-127 0 -194 19.5t-101.5 63.5t-34.5 122q0 48 15 119h282q-6 -28 -10 -51.5t-4 -37.5q0 -29 14.5 -45t52.5 -16q47 0 73 27.5t37 81.5z" />
    <glyph glyph-name="K" unicode="K" horiz-adv-x="981" 
d="M639 0l-139 274l-110 -82l-39 -192h-282l148 714h282l-52 -252l314 252h374l-376 -276l255 -438h-375z" />
    <glyph glyph-name="L" unicode="L" horiz-adv-x="796" 
d="M69 0l148 714h282l-109 -522h437l-39 -192h-719z" />
    <glyph glyph-name="M" unicode="M" horiz-adv-x="1168" 
d="M843 0l106 510h-2l-256 -510h-214l-44 510h-2l-106 -510h-256l148 714h397l31 -415h2l203 415h397l-148 -714h-256z" />
    <glyph glyph-name="N" unicode="N" horiz-adv-x="1019" 
d="M641 0l-217 400h-2l-83 -400h-270l148 714h322l204 -396h3l82 396h270l-148 -714h-309z" />
    <glyph glyph-name="O" unicode="O" horiz-adv-x="1038" 
d="M93 252q0 105 42.5 207t111 161t166.5 89t271 30q220 0 314.5 -71t94.5 -207q-1 -106 -43 -207.5t-111.5 -160t-168 -88.5t-257.5 -30q-233 0 -326.5 70t-93.5 207zM634 559q-57 0 -98.5 -18t-64.5 -44t-38.5 -58.5t-25.5 -70t-11 -80.5q0 -133 155 -133
q127 0 182.5 86.5t55.5 182.5q0 135 -155 135z" />
    <glyph glyph-name="P" unicode="P" horiz-adv-x="944" 
d="M397 222l-46 -222h-282l148 714h587q108 0 167 -41.5t59 -128.5q0 -146 -87.5 -234t-237.5 -88h-308zM464 546l-31 -150h186q66 0 89 29.5t23 71.5q0 26 -20.5 37.5t-60.5 11.5h-186z" />
    <glyph glyph-name="Q" unicode="Q" horiz-adv-x="1038" 
d="M858 -147l-128 142q-42 -10 -97.5 -15t-119.5 -5q-144 0 -232 25.5t-138 86.5t-50 165q0 64 19 137t52.5 129.5t76.5 96t99.5 66.5t137.5 42.5t194 15.5q143 0 233.5 -26.5t139 -87.5t48.5 -164q0 -119 -52.5 -228.5t-122.5 -154.5l85 -94zM549 199l142 125l56 -61
q17 26 29 73.5t12 87.5q0 135 -154 135q-89 0 -144.5 -45.5t-79.5 -132.5q-7 -26 -10.5 -50t-3.5 -43q0 -133 155 -133q23 0 34 2z" />
    <glyph glyph-name="R" unicode="R" horiz-adv-x="962" 
d="M639 0q-3 7 -3 19t3 33l12 82q3 19 3 27q0 31 -15 45t-41 14h-202l-45 -220h-282l148 714h611q127 0 169.5 -43.5t42.5 -113.5q-1 -72 -43 -131.5t-105 -73.5l-1 -2q59 -19 59 -88q0 -10 -3 -35l-15 -119q-3 -35 -3 -53q0 -16 6.5 -32.5t11.5 -22.5h-308zM462 534
l-28 -134h205q46 0 67.5 24t21.5 63q0 26 -18 36.5t-48 10.5h-200z" />
    <glyph glyph-name="S" unicode="S" horiz-adv-x="962" 
d="M682 505q2 4 2 15q0 26 -32 41.5t-87 15.5q-65 0 -94 -16t-29 -44q0 -14 8 -20t22 -8l327 -50q94 -15 142.5 -56.5t48.5 -108.5q0 -81 -51.5 -152.5t-165.5 -109t-300 -37.5q-111 0 -190 12t-126 36q-95 50 -95 143q0 22 6 49h340v-16q0 -27 26 -38.5t86 -11.5
q64 0 95 16.5t31 49.5t-45 40l-302 47q-86 13 -126 52t-40 103q0 69 41.5 135.5t141 106t284.5 40.5q103 0 180.5 -12t126.5 -35q105 -48 105 -154q0 -11 -2 -33h-328z" />
    <glyph glyph-name="T" unicode="T" horiz-adv-x="796" 
d="M257 0l111 534h-261l37 180h804l-37 -180h-261l-111 -534h-282z" />
    <glyph glyph-name="U" unicode="U" horiz-adv-x="962" 
d="M774 714h282l-92 -443q-23 -112 -82 -176.5t-154 -92t-253 -27.5q-135 0 -212 19t-120 65.5t-43 125.5q0 40 9 82l93 447h282l-87 -418q-7 -34 -7 -51q0 -42 28.5 -63t95.5 -21q78 0 118 29.5t52 91.5z" />
    <glyph glyph-name="V" unicode="V" horiz-adv-x="852" 
d="M278 0l-172 714h310l62 -458h2l252 458h310l-468 -714h-296z" />
    <glyph glyph-name="W" unicode="W" horiz-adv-x="1166" 
d="M681 0l-15 396h-2l-180 -396h-277l-60 714h274v-436h2l196 436h225l13 -436h2l183 436h273l-357 -714h-277z" />
    <glyph glyph-name="X" unicode="X" horiz-adv-x="888" 
d="M576 0l-94 184l-170 -184h-348l398 373l-208 341h331l75 -156l139 156h331l-350 -341l244 -373h-348z" />
    <glyph glyph-name="Y" unicode="Y" horiz-adv-x="832" 
d="M275 0l41 201l-210 513h322l78 -280l194 280h322l-424 -513l-41 -201h-282z" />
    <glyph glyph-name="Z" unicode="Z" horiz-adv-x="852" 
d="M22 0l31 151l508 383h-399l37 180h779l-32 -156l-497 -378h407l-37 -180h-797z" />
    <glyph glyph-name="bracketleft" unicode="[" horiz-adv-x="500" 
d="M13 -190l188 904h434l-37 -180h-184l-114 -544h184l-37 -180h-434z" />
    <glyph glyph-name="backslash" unicode="\" horiz-adv-x="444" 
d="M267 -25l-120 764h177l120 -764h-177z" />
    <glyph glyph-name="bracketright" unicode="]" horiz-adv-x="500" 
d="M-26 -190l36 180h184l114 544h-184l37 180h434l-188 -904h-433z" />
    <glyph glyph-name="asciicircum" unicode="^" horiz-adv-x="600" 
d="M478 329l-60 239l-160 -239h-147l250 365h166l98 -365h-147z" />
    <glyph glyph-name="underscore" unicode="_" horiz-adv-x="500" 
d="M-25 -125l10 50h499l-10 -50h-499z" />
    <glyph glyph-name="grave" unicode="`" horiz-adv-x="278" 
d="M174 608l-123 144h303l61 -144h-241z" />
    <glyph glyph-name="a" unicode="a" 
d="M579 0l-2 20q0 14 4 34q-51 -39 -120.5 -57.5t-168.5 -18.5q-124 0 -183 33.5t-59 105.5q0 53 27.5 103t93 79.5t180.5 35.5l217 11q36 2 53 15.5t17 36.5q0 22 -27 33.5t-79 11.5q-63 0 -95.5 -16.5t-43.5 -45.5h-250q34 81 82 117t125 53.5t223 17.5q170 0 244 -37
t74 -122q0 -31 -7 -61l-51 -244q-8 -40 -8 -59q0 -25 10 -46h-256zM390 224q-33 -5 -48.5 -24t-15.5 -42t19.5 -35.5t62.5 -12.5q57 0 99.5 13t69.5 40.5t36 85.5q-21 -6 -165 -19z" />
    <glyph glyph-name="b" unicode="b" 
d="M60 0l153 739h250l-53 -254h2q80 77 233 77q121 0 189.5 -58.5t68.5 -160.5q0 -104 -48.5 -187t-136.5 -130.5t-195 -47.5q-81 0 -131.5 20t-75.5 60h-2l-12 -58h-242zM527 394q-39 0 -70 -11t-52.5 -33.5t-32 -57.5t-10.5 -61q0 -41 27.5 -63t87.5 -22q83 0 124.5 46.5
t41.5 108.5q0 45 -29.5 69t-86.5 24z" />
    <glyph glyph-name="c" unicode="c" 
d="M647 327q0 5 1 14q0 34 -29 53t-91 19q-90 0 -136.5 -52t-46.5 -120q0 -50 32.5 -75.5t92.5 -25.5q63 0 101 22.5t57 68.5h262q-44 -133 -152.5 -193t-300.5 -60q-92 0 -158 14t-111 42q-89 56 -89 168q0 87 44.5 174.5t150 139t285.5 53.5q121 0 197.5 -22.5t115 -70
t38.5 -124.5q0 -18 -1 -25h-262z" />
    <glyph glyph-name="d" unicode="d" 
d="M568 0l12 58h-2q-45 -42 -103 -61t-139 -19q-118 0 -188 58.5t-70 158.5q0 93 45 179t134.5 137t199.5 51q152 0 201 -77h2l53 254h250l-153 -739h-242zM502 394q-73 0 -118.5 -45.5t-45.5 -112.5q0 -90 115 -90q46 0 78 13t51.5 36t28.5 55t9 55q0 89 -118 89z" />
    <glyph glyph-name="e" unicode="e" 
d="M330 215l-1 -12q0 -40 35.5 -63.5t96.5 -23.5q55 0 86.5 12.5t53.5 35.5h266q-50 -91 -158.5 -138.5t-270.5 -47.5q-91 0 -157 14.5t-112 43.5q-90 58 -90 169q0 92 48.5 176.5t155 136t256.5 51.5q180 0 266.5 -62t86.5 -187q0 -45 -12 -105h-550zM654 341l1 12
q0 39 -34 61.5t-97 22.5t-105.5 -22.5t-62.5 -73.5h298z" />
    <glyph glyph-name="f" unicode="f" horiz-adv-x="519" 
d="M125 0l81 391h-116l32 156h116l13 62q16 75 75 105.5t176 30.5q51 0 92 -1.5t69 -4.5l-27 -132h-73q-41 0 -53.5 -11.5t-17.5 -31.5l-4 -17h135l-32 -156h-135l-81 -391h-250z" />
    <glyph glyph-name="g" unicode="g" horiz-adv-x="888" 
d="M597 93q-45 -34 -103 -46.5t-125 -12.5q-141 0 -213 50.5t-72 146.5t50 171.5t141 117.5t203 42q76 0 128 -21t80 -56l13 62h242l-104 -505q-26 -128 -129.5 -187t-303.5 -59q-144 0 -213 17.5t-106 56.5t-37 105v13h276q0 -30 26.5 -42t77.5 -12q74 0 109.5 25t47.5 78z
M350 270q1 -86 123 -86q80 0 124 37t44 97q0 39 -32 60.5t-92 21.5t-98 -21.5t-53.5 -50.5t-15.5 -58z" />
    <glyph glyph-name="h" unicode="h" horiz-adv-x="832" 
d="M522 0l54 262q8 34 8 54q0 65 -79 66q-53 0 -91 -33.5t-53 -102.5l-51 -246h-250l153 739h250l-54 -260h2q34 36 98.5 59.5t136.5 23.5q102 -1 153 -42t51 -115q0 -21 -6 -57l-72 -348h-250z" />
    <glyph glyph-name="i" unicode="i" horiz-adv-x="370" 
d="M184 601l29 138h250l-29 -138h-250zM60 0l113 547h250l-113 -547h-250z" />
    <glyph glyph-name="j" unicode="j" horiz-adv-x="389" 
d="M203 601l29 138h250l-29 -138h-250zM-28 -16h26q44 0 56 3.5t19.5 14t15.5 49.5l103 496h250l-112 -538q-17 -83 -44 -124.5t-78 -61t-135 -19.5q-121 2 -137 6z" />
    <glyph glyph-name="k" unicode="k" horiz-adv-x="832" 
d="M518 0l-92 184l-92 -64l-24 -120h-250l153 739h250l-77 -369l226 177h332l-291 -204l203 -343h-338z" />
    <glyph glyph-name="l" unicode="l" horiz-adv-x="370" 
d="M60 0l153 739h250l-153 -739h-250z" />
    <glyph glyph-name="m" unicode="m" horiz-adv-x="1166" 
d="M856 0l60 288q7 41 7 50q0 22 -12 33t-43 11q-44 0 -69.5 -23.5t-36.5 -77.5l-58 -281h-242l64 310q3 16 3 26q0 23 -12.5 34.5t-42.5 11.5q-41 0 -68 -22t-38 -79l-58 -281h-250l113 547h242l-15 -75h2q45 46 100 68t122 22q69 0 108.5 -21t53.5 -70q40 45 97 68t123 23
q90 0 136.5 -36t46.5 -101q0 -11 -1 -23.5t-3 -21.5l-79 -380h-250z" />
    <glyph glyph-name="n" unicode="n" horiz-adv-x="832" 
d="M522 0l54 262q8 36 8 57q0 29 -20.5 46t-58.5 17q-113 0 -144 -137l-51 -245h-250l113 547h242l-14 -68h2q39 37 105 60t138 23q99 0 151.5 -41t52.5 -116q0 -27 -5 -52l-73 -353h-250z" />
    <glyph glyph-name="o" unicode="o" 
d="M77 195q0 74 33.5 156.5t97 129.5t150.5 67.5t195 20.5q181 0 266.5 -52.5t85.5 -162.5q0 -94 -45.5 -187.5t-151 -141t-278.5 -47.5q-183 0 -268 52.5t-85 164.5zM518 407q-58 0 -96 -21.5t-58 -64.5t-20 -86q0 -49 28.5 -72t91.5 -23q95 0 135 53t40 124q0 45 -29 67.5
t-92 22.5z" />
    <glyph glyph-name="p" unicode="p" 
d="M19 -196l154 743h242l-13 -65h2q44 41 102 60.5t139 19.5q121 0 189.5 -58.5t68.5 -160.5q0 -95 -43.5 -178t-132.5 -135t-204 -52q-151 0 -200 77h-2l-52 -251h-250zM527 394q-48 0 -86.5 -18.5t-58.5 -57t-20 -84.5q0 -88 116 -88q54 0 93 24t56 60t17 72
q0 45 -29.5 68.5t-87.5 23.5z" />
    <glyph glyph-name="q" unicode="q" 
d="M519 -196l52 251h-2q-80 -77 -233 -77q-118 0 -188 58.5t-70 158.5q0 93 45 179t135 137t199 51q77 0 129 -19t80 -61h2l13 65h242l-154 -743h-250zM503 394q-81 0 -123 -47.5t-42 -107.5q0 -45 30 -69t84 -24q89 0 128.5 48t39.5 112q0 46 -30 67t-87 21z" />
    <glyph glyph-name="r" unicode="r" horiz-adv-x="630" 
d="M60 0l113 547h242l-22 -105h2q64 64 128 92t130 28q40 0 81 -6l-46 -224l-42 10q-39 10 -79 10q-87 0 -143.5 -37t-71.5 -111l-42 -204h-250z" />
    <glyph glyph-name="s" unicode="s" horiz-adv-x="815" 
d="M561 383q1 3 1 9q0 21 -23 30t-61 9q-53 0 -75.5 -11.5t-22.5 -30.5q0 -14 16 -20.5t49 -9.5l228 -20q73 -6 115.5 -36t42.5 -87q0 -69 -41 -125.5t-135.5 -84.5t-254.5 -28q-183 0 -263.5 36.5t-80.5 122.5q0 9 3 33h294v-6q0 -30 24 -39t67 -9q47 0 69.5 12.5
t22.5 38.5q0 11 -6.5 17t-23.5 8l-232 24q-86 9 -124 38t-38 78q0 122 100.5 179.5t307.5 57.5q167 0 246.5 -39.5t79.5 -115.5q0 -11 -3 -31h-282z" />
    <glyph glyph-name="t" unicode="t" horiz-adv-x="537" 
d="M517 0q-33 -5 -79 -8.5t-105 -3.5q-78 0 -110.5 9.5t-52.5 32t-20 63.5q0 35 9 72l47 226h-116l32 156h116l37 176h250l-37 -176h135l-32 -156h-135l-38 -185q-5 -27 -5 -31q0 -17 12 -24t42 -7q50 0 80 2z" />
    <glyph glyph-name="u" unicode="u" horiz-adv-x="832" 
d="M530 0l12 61h-2q-40 -38 -106.5 -60.5t-136.5 -22.5q-102 0 -153 42t-51 117q0 26 7 60l73 350h250l-60 -290q-4 -15 -4 -32q0 -67 79 -67q61 0 96 33t48 98l53 258h250l-113 -547h-242z" />
    <glyph glyph-name="v" unicode="v" horiz-adv-x="760" 
d="M237 0l-140 547h282l45 -327h2l181 327h282l-366 -547h-286z" />
    <glyph glyph-name="w" unicode="w" horiz-adv-x="1166" 
d="M689 0l-47 286l-165 -286h-291l-73 547h267l22 -323h2l186 323h212l42 -323h2l166 323h267l-299 -547h-291z" />
    <glyph glyph-name="x" unicode="x" horiz-adv-x="832" 
d="M524 0l-76 155l-140 -155h-318l311 286l-177 261h306l69 -147l129 147h306l-289 -261l197 -286h-318z" />
    <glyph glyph-name="y" unicode="y" horiz-adv-x="722" 
d="M420 -86q-44 -64 -87 -87t-136 -23q-44 0 -101 3.5t-72 5.5l33 162q46 -3 66 -3q33 0 46.5 2.5t26.5 13t28 32.5l17 24l-150 503h262l63 -281l179 281h262z" />
    <glyph glyph-name="z" unicode="z" horiz-adv-x="704" 
d="M25 0l28 138l359 239v2h-291l35 168h627l-30 -144l-340 -227v-2h302l-36 -174h-654z" />
    <glyph glyph-name="braceleft" unicode="{" horiz-adv-x="500" 
d="M192 -190q-51 0 -82.5 26.5t-31.5 77.5q0 20 4 37l25 117q6 23 6 46q0 31 -17.5 47.5t-65.5 16.5l34 168q53 0 81.5 22.5t39.5 75.5l26 124q15 69 61 107.5t110 38.5h222l-35 -168h-45q-27 0 -42.5 -6t-25 -21.5t-15.5 -43.5l-19 -91q-14 -66 -46.5 -91.5t-86.5 -29.5v-2
q47 -5 67.5 -23t20.5 -54q0 -21 -5 -44l-18 -85q-6 -26 -6 -37q0 -19 11.5 -29.5t44.5 -10.5h47l-35 -168h-224z" />
    <glyph glyph-name="bar" unicode="|" horiz-adv-x="278" 
d="M49 -25l159 764h168l-159 -764h-168z" />
    <glyph glyph-name="braceright" unicode="}" horiz-adv-x="500" 
d="M4 -190l35 168h55q32 0 48.5 16t22.5 45l20 97q13 63 43.5 91t89.5 34v2q-45 5 -66 22.5t-21 55.5q0 20 10 65l17 80q2 12 2 19q0 25 -13.5 33t-36.5 8h-53l35 168h224q51 0 82.5 -27t31.5 -77q0 -17 -6 -44l-25 -122q-4 -16 -4 -34q0 -31 18.5 -47.5t64.5 -16.5
l-34 -168q-53 0 -81 -22t-39 -72l-27 -129q-17 -76 -63 -110.5t-114 -34.5h-216z" />
    <glyph glyph-name="asciitilde" unicode="~" horiz-adv-x="600" 
d="M579 233q-40 -46 -73.5 -66t-69.5 -20q-39 0 -70 18.5t-60.5 34t-71.5 15.5q-26 0 -49.5 -16.5t-49.5 -53.5l-10 126q29 42 66 65t77 23q32 0 65.5 -14.5t70.5 -34t63 -19.5q23 0 46 15.5t57 54.5z" />
    <glyph glyph-name="uni00A0" unicode="&#xa0;" horiz-adv-x="408" 
 />
    <glyph glyph-name="exclamdown" unicode="&#xa1;" horiz-adv-x="408" 
d="M140 323l46 224h262l-46 -224h-262zM34 -167l121 439h212l-63 -439h-270z" />
    <glyph glyph-name="cent" unicode="&#xa2;" horiz-adv-x="964" 
d="M673 327q0 2 1 5.5t1 13.5q0 27 -20.5 43t-68.5 24l-56 -271q46 3 77.5 23t51.5 65h262q-38 -125 -140.5 -186.5t-284.5 -63.5l-22 -109h-60l22 109q-327 9 -327 222q0 101 52 187.5t149 130.5t249 49l20 95h60l-20 -95q161 -4 239 -55t78 -163l-1 -24h-262zM526 413
q-56 -7 -88 -31t-48 -69t-16 -82q0 -43 23 -64.5t73 -24.5z" />
    <glyph glyph-name="sterling" unicode="&#xa3;" horiz-adv-x="964" 
d="M917 58q-72 -42 -130 -60t-121 -18q-78 0 -193.5 22t-137.5 22q-38 0 -83.5 -10t-88.5 -34l-66 169q65 40 89 71t30 77h-77l25 120h61q-13 28 -13 62q0 63 43.5 118.5t138 86t240.5 30.5q178 0 263 -44t85 -135q0 -38 -12 -91h-294q4 24 4 36q0 32 -18 43t-58 11
q-52 0 -75 -20.5t-23 -68.5q0 -23 1 -28h140l-25 -120h-139q-12 -31 -39.5 -58.5t-72.5 -56.5l2 -2q26 15 56 22.5t59 7.5q24 0 102.5 -10t111.5 -10q45 0 91.5 15t87.5 43z" />
    <glyph glyph-name="currency" unicode="&#xa4;" horiz-adv-x="600" 
d="M521 60l-49 61q-74 -44 -156 -44q-83 0 -138 44l-75 -61l-62 88l72 59q-8 22 -12.5 42.5t-4.5 42.5q0 50 20.5 102t58.5 97l-50 61l103 82l48 -59q73 42 153 42q77 0 133 -42l72 59l69 -82l-73 -61q18 -42 18 -88q0 -51 -18.5 -100.5t-56.5 -95.5l46 -59zM399 479
q-66 0 -111.5 -50.5t-45.5 -115.5q0 -43 28 -70.5t75 -27.5q33 0 68.5 17t61.5 58.5t26 87.5q0 48 -29 74.5t-73 26.5z" />
    <glyph glyph-name="yen" unicode="&#xa5;" horiz-adv-x="964" 
d="M640 84l-17 -84h-282l17 84h-181l25 120h181l13 63h-181l25 120h100l-152 307h312l63 -300l189 300h312l-280 -307h100l-25 -120h-181l-13 -63h181l-25 -120h-181z" />
    <glyph glyph-name="brokenbar" unicode="&#xa6;" horiz-adv-x="278" 
d="M146 440l62 299h168l-62 -299h-168zM49 -25l62 299h168l-62 -299h-168z" />
    <glyph glyph-name="section" unicode="&#xa7;" horiz-adv-x="964" 
d="M278 87q-98 21 -146 64.5t-48 105.5q0 53 35.5 116.5t106.5 84.5q-15 27 -15 56q0 52 41.5 108t132.5 86.5t226 30.5q181 0 268.5 -50t87.5 -149q0 -6 -1 -21h-270q2 10 2 15q0 26 -29 37.5t-90 11.5q-58 0 -83.5 -10.5t-25.5 -32.5q0 -18 19 -21l266 -51
q85 -15 131.5 -32t77 -48t31.5 -84q0 -53 -28 -110t-103 -91q28 -29 28 -71q0 -43 -25.5 -90t-78 -79.5t-137 -49.5t-200.5 -17q-187 0 -279 53t-92 156v16h270v-7q0 -39 28.5 -53.5t109.5 -14.5q66 0 94.5 11.5t28.5 38.5q0 11 -10.5 19t-70.5 19zM354 359q-14 -13 -22 -28
t-8 -29q0 -15 9 -22.5t28 -11.5l373 -82q10 12 17.5 25t7.5 27q0 16 -13.5 25.5t-34.5 14.5z" />
    <glyph glyph-name="dieresis" unicode="&#xa8;" horiz-adv-x="278" 
d="M-15 614l26 132h242l-27 -132h-241zM304 614l27 132h242l-27 -132h-242z" />
    <glyph glyph-name="copyright" unicode="&#xa9;" horiz-adv-x="800" 
d="M84 279q0 115 66 222t176.5 172.5t226.5 65.5q93 0 164 -40.5t109 -111t38 -152.5q-1 -116 -66.5 -222.5t-175 -171.5t-228.5 -66q-84 0 -155 37t-112.5 105t-42.5 162zM528 625q-88 0 -161.5 -48.5t-114.5 -126t-41 -159.5q1 -92 56.5 -146.5t150.5 -55.5q93 1 166 49.5
t113 126t40 158.5q0 92 -56.5 146.5t-152.5 55.5zM567 413q0 59 -68 59q-56 0 -87 -50t-31 -104q0 -38 18.5 -60.5t52.5 -22.5q32 0 57 14t34 48h110q-25 -75 -81.5 -116.5t-134.5 -41.5q-81 0 -126.5 44t-45.5 116q0 60 31.5 126.5t92.5 104.5t136 38q71 0 110 -35.5
t39 -100.5l-1 -19h-106z" />
    <glyph glyph-name="ordfeminine" unicode="&#xaa;" horiz-adv-x="566" 
d="M450 364l1 27q-28 -19 -72 -29t-110 -10q-86 0 -131 19.5t-45 64.5q0 57 37 92t138 42l41 3l127 7q24 1 36 4.5t12 14.5q0 24 -64 25q-33 0 -54.5 -8t-29.5 -22h-186q19 50 49 74.5t83 35t170 10.5q115 0 169 -23t54 -76q0 -8 -3 -25l-35 -167q-2 -6 -3 -23
q0 -8 2.5 -17.5t5.5 -18.5h-192zM346 500q-24 -3 -36 -12t-12 -22q0 -10 12.5 -17t36.5 -7q41 0 69 10t39 23t15 39q-34 -6 -71 -9z" />
    <glyph glyph-name="guillemotleft" unicode="&#xab;" horiz-adv-x="685" 
d="M128 195l41 198l250 161l-35 -168l-144 -92l105 -92l-34 -168zM405 195l41 198l250 161l-35 -168l-144 -92l105 -92l-34 -168z" />
    <glyph glyph-name="logicalnot" unicode="&#xac;" horiz-adv-x="600" 
d="M431 108l38 185h-362l30 144h506l-68 -329h-144z" />
    <glyph glyph-name="uni00AD" unicode="&#xad;" horiz-adv-x="481" 
d="M145 207l72 174h363l-72 -174h-363z" />
    <glyph glyph-name="registered" unicode="&#xae;" horiz-adv-x="800" 
d="M84 279q0 114 66 221.5t177 173t226 65.5q93 0 164 -40.5t109 -110.5t38 -153q0 -115 -66 -222t-175.5 -172t-228.5 -66q-84 0 -155 36.5t-113 106.5t-42 161zM528 625q-88 0 -161.5 -48.5t-114.5 -125.5t-41 -160q0 -91 56.5 -146.5t150.5 -55.5q92 0 166 49.5t113 126
t40 159.5q0 90 -56.5 145t-152.5 56zM488 154l-62 162h-21l-33 -162h-96l84 408h160q79 0 114.5 -22.5t35.5 -68.5q0 -35 -14 -70t-45 -56t-82 -23l65 -168h-106zM506 394q20 0 34.5 8.5t20.5 25t6 25.5q0 31 -62 31h-65l-19 -90h85z" />
    <glyph glyph-name="macron" unicode="&#xaf;" horiz-adv-x="278" 
d="M118 614l32 132h570l-33 -132h-569z" />
    <glyph glyph-name="degree" unicode="&#xb0;" horiz-adv-x="400" 
d="M153 522q1 77 60.5 134t134.5 58q56 0 93 -36.5t37 -88.5q0 -42 -24 -87t-72 -75.5t-100 -30.5q-56 0 -92.5 35t-36.5 91zM245 541q0 -25 15 -40t40 -15q35 0 60 25.5t25 58.5q0 24 -15.5 39t-40.5 15q-33 0 -58.5 -25.5t-25.5 -57.5z" />
    <glyph glyph-name="plusminus" unicode="&#xb1;" horiz-adv-x="600" 
d="M428 271l-19 -91h-144l19 91h-181l30 144h181l19 91h144l-19 -91h181l-30 -144h-181zM47 0l29 144h506l-29 -144h-506z" />
    <glyph glyph-name="uni00B2" unicode="&#xb2;" horiz-adv-x="627" 
d="M117 477q17 72 54.5 118.5t88 72t105.5 37.5t95 19.5t72.5 14.5t32.5 35q0 12 -15.5 18.5t-52.5 6.5q-36 0 -58.5 -6t-35.5 -18t-24 -41h-210q29 95 108 136t221 41t207.5 -28t65.5 -86q0 -57 -48 -99t-133 -56l-171 -28q-78 -16 -85 -21v-2h377l-24 -114h-570z" />
    <glyph glyph-name="uni00B3" unicode="&#xb3;" horiz-adv-x="627" 
d="M657 705q85 -14 85 -76q0 -42 -29 -79t-99.5 -58t-189.5 -21q-133 0 -183.5 14t-76 41t-25.5 68q0 9 2 26h202q0 -22 25 -31.5t70 -9.5q50 0 76.5 11t26.5 32q0 15 -18 20.5t-44 5.5h-122l21 102h129q23 0 38 6t15 23q0 24 -78 24q-41 0 -58.5 -4.5t-26.5 -19.5h-206
q20 72 97 102t217 30q139 0 201 -22.5t62 -72.5q0 -48 -28.5 -73.5t-81.5 -35.5z" />
    <glyph glyph-name="acute" unicode="&#xb4;" horiz-adv-x="278" 
d="M352 608h-241l121 144h303z" />
    <glyph glyph-name="uni00B5" unicode="&#xb5;" horiz-adv-x="889" 
d="M858 0q-36 -6 -67 -9t-74 -3q-73 0 -111.5 17t-47.5 64h-2q-31 -39 -78 -65t-104 -26q-34 0 -65 12h-2l-38 -186h-250l154 743h250l-62 -299q-3 -14 -3 -25q0 -64 80 -65q59 0 94.5 34.5t47.5 93.5l55 261h250l-73 -350q-3 -14 -3 -23q0 -15 9 -22.5t33 -7.5q15 0 37 2z
" />
    <glyph glyph-name="paragraph" unicode="&#xb6;" horiz-adv-x="666" 
d="M444 -179l162 779h-95l-162 -779h-156l100 481q-195 1 -196 148q0 73 33 136.5t97 95.5t169 32h390l-186 -893h-156z" />
    <glyph glyph-name="periodcentered" unicode="&#xb7;" horiz-adv-x="408" 
d="M121 218q1 62 49.5 109t111.5 48q48 -1 77.5 -30.5t29.5 -74.5q0 -61 -49 -109t-112 -48q-47 0 -77 30t-30 75z" />
    <glyph glyph-name="cedilla" unicode="&#xb8;" horiz-adv-x="278" 
d="M130 -47q15 4 49 4q38 0 62.5 -18t24.5 -49q0 -49 -41.5 -79.5t-121.5 -30.5q-37 0 -79.5 3.5t-77.5 16.5l26 54q20 -5 36.5 -8t38.5 -3q31 0 43 10t12 24q0 9 -8.5 13.5t-21.5 4.5q-15 0 -37 -8l-22 21l79 92h76z" />
    <glyph glyph-name="uni00B9" unicode="&#xb9;" horiz-adv-x="434" 
d="M279 477l50 239h-138l23 114h9q69 0 109 13.5t69 61.5h153l-89 -428h-186z" />
    <glyph glyph-name="ordmasculine" unicode="&#xba;" horiz-adv-x="566" 
d="M113 488q0 50 26 107t94 88t198 31q127 0 185 -32.5t58 -99.5q0 -51 -26.5 -108.5t-94 -89.5t-198.5 -32q-126 0 -184 32.5t-58 103.5zM309 519q0 -25 18 -39t53 -14q47 0 73 25.5t26 59.5q0 23 -19 36t-54 13q-43 0 -70 -22.5t-27 -58.5z" />
    <glyph glyph-name="guillemotright" unicode="&#xbb;" horiz-adv-x="685" 
d="M111 34l34 168l145 92l-106 92l35 168l182 -161l-41 -198zM388 34l34 168l145 92l-106 92l35 168l182 -161l-41 -198z" />
    <glyph glyph-name="onequarter" unicode="&#xbc;" horiz-adv-x="1444" 
d="M289 -20l620 734h128l-620 -734h-128zM237 268l50 239h-138l23 114h9q69 0 109 13.5t69 61.5h153l-89 -428h-186zM1265 72l-14 -70h-180l14 70h-332l23 111l311 247h252l-51 -248h82l-23 -110h-82zM1134 310l-166 -128h140z" />
    <glyph glyph-name="onehalf" unicode="&#xbd;" horiz-adv-x="1444" 
d="M309 -20l620 734h128l-620 -734h-128zM257 268l50 239h-138l23 114h9q69 0 109 13.5t69 61.5h153l-89 -428h-186zM776 2q17 72 54.5 118.5t88 72t105.5 37.5t95 19.5t72.5 14.5t32.5 35q0 12 -15.5 18.5t-52.5 6.5q-36 0 -58.5 -6t-35.5 -18t-24 -41h-210q29 95 108 136
t221 41t207.5 -28t65.5 -86q0 -57 -48 -99t-133 -56l-171 -28q-78 -16 -85 -21v-2h377l-24 -114h-570z" />
    <glyph glyph-name="threequarters" unicode="&#xbe;" horiz-adv-x="1444" 
d="M634 496q85 -14 85 -76q0 -42 -29 -79t-99.5 -58t-189.5 -21q-133 0 -183.5 14t-76 41t-25.5 68q0 9 2 26h202q0 -22 25 -31.5t70 -9.5q50 0 76.5 11t26.5 32q0 15 -18 20.5t-44 5.5h-122l21 102h129q23 0 38 6t15 23q0 24 -78 24q-41 0 -58.5 -4.5t-26.5 -19.5h-206
q20 72 97 102t217 30q139 0 201 -22.5t62 -72.5q0 -48 -28.5 -73.5t-81.5 -35.5zM439 -20l620 734h128l-620 -734h-128zM1344 72l-14 -70h-180l14 70h-332l23 111l311 247h252l-51 -248h82l-23 -110h-82zM1213 310l-166 -128h140z" />
    <glyph glyph-name="questiondown" unicode="&#xbf;" horiz-adv-x="852" 
d="M371 323l46 224h262l-46 -224h-262zM849 77q-35 -104 -91.5 -162.5t-144.5 -82.5t-233 -24q-174 0 -264.5 42.5t-90.5 126.5q0 61 35.5 116.5t152.5 92.5q19 5 87 31q27 11 42 22t18 22h257q-13 -54 -31.5 -77.5t-57 -43t-103.5 -37.5q-62 -17 -84 -38t-22 -48
q1 -52 98 -53q126 0 150 113h282z" />
    <glyph glyph-name="Agrave" unicode="&#xc0;" horiz-adv-x="888" 
d="M621 0l-13 82h-294l-47 -82h-300l452 714h346l156 -714h-300zM548 498h-2l-134 -242h170zM507 778l-123 144h303l61 -144h-241z" />
    <glyph glyph-name="Aacute" unicode="&#xc1;" horiz-adv-x="888" 
d="M621 0l-13 82h-294l-47 -82h-300l452 714h346l156 -714h-300zM548 498h-2l-134 -242h170zM678 778h-241l121 144h303z" />
    <glyph glyph-name="Acircumflex" unicode="&#xc2;" horiz-adv-x="888" 
d="M621 0l-13 82h-294l-47 -82h-300l452 714h346l156 -714h-300zM548 498h-2l-134 -242h170zM668 778l-52 76l-84 -76h-252l184 144h358l125 -144h-279z" />
    <glyph glyph-name="Atilde" unicode="&#xc3;" horiz-adv-x="888" 
d="M621 0l-13 82h-294l-47 -82h-300l452 714h346l156 -714h-300zM548 498h-2l-134 -242h170zM918 919q-32 -75 -79 -115.5t-104 -40.5q-30 0 -141.5 24t-134.5 24q-16 0 -26.5 -8t-19.5 -21h-106q35 73 83.5 114t109.5 41q28 0 138 -24q111 -24 126 -24q14 0 26 6.5t22 23.5
h106z" />
    <glyph glyph-name="Adieresis" unicode="&#xc4;" horiz-adv-x="888" 
d="M621 0l-13 82h-294l-47 -82h-300l452 714h346l156 -714h-300zM548 498h-2l-134 -242h170zM326 784l26 132h242l-27 -132h-241zM645 784l27 132h242l-27 -132h-242z" />
    <glyph glyph-name="Aring" unicode="&#xc5;" horiz-adv-x="888" 
d="M621 0l-13 82h-294l-47 -82h-300l452 714h346l156 -714h-300zM548 498h-2l-134 -242h170zM473 850q0 65 51 113t121 48q48 0 79 -27t31 -78q0 -58 -46.5 -107.5t-118.5 -49.5q-53 0 -85 28t-32 73zM553 866q0 -19 13 -32.5t36 -13.5q27 0 50.5 21.5t23.5 50.5
q0 20 -13.5 34t-35.5 14q-28 0 -51 -22.5t-23 -51.5z" />
    <glyph glyph-name="AE" unicode="&#xc6;" horiz-adv-x="1166" 
d="M529 0l24 120h-204l-70 -120h-295l475 714h816l-36 -174h-348l-20 -96h334l-36 -174h-334l-20 -96h353l-36 -174h-603zM642 546h-45l-154 -264h144z" />
    <glyph glyph-name="Ccedilla" unicode="&#xc7;" horiz-adv-x="1019" 
d="M760 434v10q0 55 -32.5 85t-92.5 30q-84 0 -138 -40.5t-77.5 -108t-23.5 -123.5q0 -66 36 -99t105 -33t115 30t75 93h318q-60 -162 -184 -232.5t-345 -70.5l-18 -22q12 4 49 4q42 0 64.5 -19t22.5 -46q0 -47 -38.5 -79.5t-136.5 -32.5q-35 0 -73 4.5t-72 15.5l26 54
q38 -11 75 -11q32 0 44 10.5t12 22.5q0 18 -31 19q-15 0 -37 -8l-22 21l58 69q-113 5 -187 33t-116.5 87t-42.5 155q0 50 15.5 121t53.5 138.5t89.5 111.5t115 69.5t141 36t163.5 10.5q134 0 223 -26t137 -86.5t48 -160.5q0 -7 -1 -32h-318z" />
    <glyph glyph-name="Egrave" unicode="&#xc8;" horiz-adv-x="852" 
d="M69 0l148 714h759l-36 -174h-477l-20 -96h443l-36 -174h-443l-20 -96h477l-36 -174h-759zM538 778l-123 144h303l61 -144h-241z" />
    <glyph glyph-name="Eacute" unicode="&#xc9;" horiz-adv-x="852" 
d="M69 0l148 714h759l-36 -174h-477l-20 -96h443l-36 -174h-443l-20 -96h477l-36 -174h-759zM719 778h-241l121 144h303z" />
    <glyph glyph-name="Ecircumflex" unicode="&#xca;" horiz-adv-x="852" 
d="M69 0l148 714h759l-36 -174h-477l-20 -96h443l-36 -174h-443l-20 -96h477l-36 -174h-759zM661 778l-52 76l-84 -76h-252l184 144h358l125 -144h-279z" />
    <glyph glyph-name="Edieresis" unicode="&#xcb;" horiz-adv-x="852" 
d="M69 0l148 714h759l-36 -174h-477l-20 -96h443l-36 -174h-443l-20 -96h477l-36 -174h-759zM316 784l26 132h242l-27 -132h-241zM635 784l27 132h242l-27 -132h-242z" />
    <glyph glyph-name="Igrave" unicode="&#xcc;" horiz-adv-x="426" 
d="M72 0l148 714h282l-148 -714h-282zM262 778l-123 144h303l61 -144h-241z" />
    <glyph glyph-name="Iacute" unicode="&#xcd;" horiz-adv-x="426" 
d="M72 0l148 714h282l-148 -714h-282zM468 778h-241l121 144h303z" />
    <glyph glyph-name="Icircumflex" unicode="&#xce;" horiz-adv-x="426" 
d="M72 0l148 714h282l-148 -714h-282zM431 778l-52 76l-84 -76h-252l184 144h358l125 -144h-279z" />
    <glyph glyph-name="Idieresis" unicode="&#xcf;" horiz-adv-x="426" 
d="M72 0l148 714h282l-148 -714h-282zM86 784l26 132h242l-27 -132h-241zM405 784l27 132h242l-27 -132h-242z" />
    <glyph glyph-name="Eth" unicode="&#xd0;" horiz-adv-x="1019" 
d="M69 0l63 304h-69l26 126h69l59 284h561q147 0 222 -60t75 -183q0 -112 -49 -231t-148 -179.5t-248 -60.5h-561zM414 304l-26 -124h166q68 0 116.5 26.5t76 84t27.5 122.5q0 62 -36.5 91.5t-109.5 29.5h-166l-22 -104h181l-26 -126h-181z" />
    <glyph glyph-name="Ntilde" unicode="&#xd1;" horiz-adv-x="1019" 
d="M641 0l-217 400h-2l-83 -400h-270l148 714h322l204 -396h3l82 396h270l-148 -714h-309zM989 919q-32 -75 -79 -115.5t-104 -40.5q-30 0 -141.5 24t-134.5 24q-16 0 -26.5 -8t-19.5 -21h-106q35 73 83.5 114t109.5 41q28 0 138 -24q111 -24 126 -24q14 0 26 6.5t22 23.5
h106z" />
    <glyph glyph-name="Ograve" unicode="&#xd2;" horiz-adv-x="1038" 
d="M93 252q0 105 42.5 207t111 161t166.5 89t271 30q220 0 314.5 -71t94.5 -207q-1 -106 -43 -207.5t-111.5 -160t-168 -88.5t-257.5 -30q-233 0 -326.5 70t-93.5 207zM634 559q-57 0 -98.5 -18t-64.5 -44t-38.5 -58.5t-25.5 -70t-11 -80.5q0 -133 155 -133
q127 0 182.5 86.5t55.5 182.5q0 135 -155 135zM567 778l-123 144h303l61 -144h-241z" />
    <glyph glyph-name="Oacute" unicode="&#xd3;" horiz-adv-x="1038" 
d="M93 252q0 105 42.5 207t111 161t166.5 89t271 30q220 0 314.5 -71t94.5 -207q-1 -106 -43 -207.5t-111.5 -160t-168 -88.5t-257.5 -30q-233 0 -326.5 70t-93.5 207zM634 559q-57 0 -98.5 -18t-64.5 -44t-38.5 -58.5t-25.5 -70t-11 -80.5q0 -133 155 -133
q127 0 182.5 86.5t55.5 182.5q0 135 -155 135zM832 778h-241l121 144h303z" />
    <glyph glyph-name="Ocircumflex" unicode="&#xd4;" horiz-adv-x="1038" 
d="M93 252q0 105 42.5 207t111 161t166.5 89t271 30q220 0 314.5 -71t94.5 -207q-1 -106 -43 -207.5t-111.5 -160t-168 -88.5t-257.5 -30q-233 0 -326.5 70t-93.5 207zM634 559q-57 0 -98.5 -18t-64.5 -44t-38.5 -58.5t-25.5 -70t-11 -80.5q0 -133 155 -133
q127 0 182.5 86.5t55.5 182.5q0 135 -155 135zM750 778l-52 76l-84 -76h-252l184 144h358l125 -144h-279z" />
    <glyph glyph-name="Otilde" unicode="&#xd5;" horiz-adv-x="1038" 
d="M93 252q0 105 42.5 207t111 161t166.5 89t271 30q220 0 314.5 -71t94.5 -207q-1 -106 -43 -207.5t-111.5 -160t-168 -88.5t-257.5 -30q-233 0 -326.5 70t-93.5 207zM634 559q-57 0 -98.5 -18t-64.5 -44t-38.5 -58.5t-25.5 -70t-11 -80.5q0 -133 155 -133
q127 0 182.5 86.5t55.5 182.5q0 135 -155 135zM994 919q-32 -75 -79 -115.5t-104 -40.5q-30 0 -141.5 24t-134.5 24q-16 0 -26.5 -8t-19.5 -21h-106q35 73 83.5 114t109.5 41q28 0 138 -24q111 -24 126 -24q14 0 26 6.5t22 23.5h106z" />
    <glyph glyph-name="Odieresis" unicode="&#xd6;" horiz-adv-x="1038" 
d="M93 252q0 105 42.5 207t111 161t166.5 89t271 30q220 0 314.5 -71t94.5 -207q-1 -106 -43 -207.5t-111.5 -160t-168 -88.5t-257.5 -30q-233 0 -326.5 70t-93.5 207zM634 559q-57 0 -98.5 -18t-64.5 -44t-38.5 -58.5t-25.5 -70t-11 -80.5q0 -133 155 -133
q127 0 182.5 86.5t55.5 182.5q0 135 -155 135zM401 784l26 132h242l-27 -132h-241zM720 784l27 132h242l-27 -132h-242z" />
    <glyph glyph-name="multiply" unicode="&#xd7;" horiz-adv-x="600" 
d="M447 5l-116 145l-177 -145l-80 102l177 146l-117 146l123 102l117 -145l176 145l80 -102l-176 -146l116 -146z" />
    <glyph glyph-name="Oslash" unicode="&#xd8;" horiz-adv-x="1038" 
d="M1051 614q22 -32 31.5 -68.5t9.5 -82.5q0 -92 -31.5 -182.5t-93.5 -159.5t-169 -107.5t-275 -38.5q-117 0 -165 7.5t-88.5 21t-77.5 38.5l-122 -81l-38 70l103 69q-42 61 -42 151q1 97 38.5 197t109.5 166t175.5 95.5t255.5 29.5q115 0 193.5 -15.5t127.5 -51.5l121 81
l39 -71zM759 516q-19 23 -50 33t-75 10q-64 0 -115 -26t-83 -86.5t-39 -153.5q0 -9 2 -17zM427 198q19 -23 50.5 -33t73.5 -10q81 0 134.5 37t78 106.5t24.5 115.5v16q0 3 -1 8z" />
    <glyph glyph-name="Ugrave" unicode="&#xd9;" horiz-adv-x="962" 
d="M774 714h282l-92 -443q-23 -112 -82 -176.5t-154 -92t-253 -27.5q-135 0 -212 19t-120 65.5t-43 125.5q0 40 9 82l93 447h282l-87 -418q-7 -34 -7 -51q0 -42 28.5 -63t95.5 -21q78 0 118 29.5t52 91.5zM524 778l-123 144h303l61 -144h-241z" />
    <glyph glyph-name="Uacute" unicode="&#xda;" horiz-adv-x="962" 
d="M774 714h282l-92 -443q-23 -112 -82 -176.5t-154 -92t-253 -27.5q-135 0 -212 19t-120 65.5t-43 125.5q0 40 9 82l93 447h282l-87 -418q-7 -34 -7 -51q0 -42 28.5 -63t95.5 -21q78 0 118 29.5t52 91.5zM763 778h-241l121 144h303z" />
    <glyph glyph-name="Ucircumflex" unicode="&#xdb;" horiz-adv-x="962" 
d="M774 714h282l-92 -443q-23 -112 -82 -176.5t-154 -92t-253 -27.5q-135 0 -212 19t-120 65.5t-43 125.5q0 40 9 82l93 447h282l-87 -418q-7 -34 -7 -51q0 -42 28.5 -63t95.5 -21q78 0 118 29.5t52 91.5zM703 778l-52 76l-84 -76h-252l184 144h358l125 -144h-279z" />
    <glyph glyph-name="Udieresis" unicode="&#xdc;" horiz-adv-x="962" 
d="M774 714h282l-92 -443q-23 -112 -82 -176.5t-154 -92t-253 -27.5q-135 0 -212 19t-120 65.5t-43 125.5q0 40 9 82l93 447h282l-87 -418q-7 -34 -7 -51q0 -42 28.5 -63t95.5 -21q78 0 118 29.5t52 91.5zM361 784l26 132h242l-27 -132h-241zM680 784l27 132h242l-27 -132
h-242z" />
    <glyph glyph-name="Yacute" unicode="&#xdd;" horiz-adv-x="832" 
d="M275 0l41 201l-210 513h322l78 -280l194 280h322l-424 -513l-41 -201h-282zM698 778h-241l121 144h303z" />
    <glyph glyph-name="Thorn" unicode="&#xde;" horiz-adv-x="944" 
d="M377 128l-26 -128h-282l148 714h282l-20 -94h306q111 0 168 -41.5t57 -130.5q0 -88 -38.5 -164.5t-112 -116t-174.5 -39.5h-308zM444 452l-31 -150h186q56 0 84.5 24.5t28.5 72.5q0 29 -21 41t-61 12h-186z" />
    <glyph glyph-name="germandbls" unicode="&#xdf;" horiz-adv-x="888" 
d="M799 416q113 -21 113 -125q0 -93 -50 -167t-133.5 -105t-187.5 -31q-54 0 -106.5 7.5t-74.5 16.5l35 168q40 -7 74.5 -9.5t56.5 -2.5q64 0 93.5 30t29.5 71q0 32 -31 46t-86 14h-82l27 132h73q49 0 74.5 19.5t25.5 51.5q0 21 -19.5 33t-65.5 12q-78 0 -113 -29.5
t-48 -93.5l-94 -454h-250l98 476q20 99 76 156.5t148 82t237 24.5q158 0 234 -39.5t76 -115.5q0 -57 -31 -106t-99 -60v-2z" />
    <glyph glyph-name="agrave" unicode="&#xe0;" 
d="M579 0l-2 20q0 14 4 34q-51 -39 -120.5 -57.5t-168.5 -18.5q-124 0 -183 33.5t-59 105.5q0 53 27.5 103t93 79.5t180.5 35.5l217 11q36 2 53 15.5t17 36.5q0 22 -27 33.5t-79 11.5q-63 0 -95.5 -16.5t-43.5 -45.5h-250q34 81 82 117t125 53.5t223 17.5q170 0 244 -37
t74 -122q0 -31 -7 -61l-51 -244q-8 -40 -8 -59q0 -25 10 -46h-256zM390 224q-33 -5 -48.5 -24t-15.5 -42t19.5 -35.5t62.5 -12.5q57 0 99.5 13t69.5 40.5t36 85.5q-21 -6 -165 -19zM514 608l-123 144h303l61 -144h-241z" />
    <glyph glyph-name="aacute" unicode="&#xe1;" 
d="M579 0l-2 20q0 14 4 34q-51 -39 -120.5 -57.5t-168.5 -18.5q-124 0 -183 33.5t-59 105.5q0 53 27.5 103t93 79.5t180.5 35.5l217 11q36 2 53 15.5t17 36.5q0 22 -27 33.5t-79 11.5q-63 0 -95.5 -16.5t-43.5 -45.5h-250q34 81 82 117t125 53.5t223 17.5q170 0 244 -37
t74 -122q0 -31 -7 -61l-51 -244q-8 -40 -8 -59q0 -25 10 -46h-256zM390 224q-33 -5 -48.5 -24t-15.5 -42t19.5 -35.5t62.5 -12.5q57 0 99.5 13t69.5 40.5t36 85.5q-21 -6 -165 -19zM672 608h-241l121 144h303z" />
    <glyph glyph-name="acircumflex" unicode="&#xe2;" 
d="M579 0l-2 20q0 14 4 34q-51 -39 -120.5 -57.5t-168.5 -18.5q-124 0 -183 33.5t-59 105.5q0 53 27.5 103t93 79.5t180.5 35.5l217 11q36 2 53 15.5t17 36.5q0 22 -27 33.5t-79 11.5q-63 0 -95.5 -16.5t-43.5 -45.5h-250q34 81 82 117t125 53.5t223 17.5q170 0 244 -37
t74 -122q0 -31 -7 -61l-51 -244q-8 -40 -8 -59q0 -25 10 -46h-256zM390 224q-33 -5 -48.5 -24t-15.5 -42t19.5 -35.5t62.5 -12.5q57 0 99.5 13t69.5 40.5t36 85.5q-21 -6 -165 -19zM633 608l-52 76l-84 -76h-252l184 144h358l125 -144h-279z" />
    <glyph glyph-name="atilde" unicode="&#xe3;" 
d="M579 0l-2 20q0 14 4 34q-51 -39 -120.5 -57.5t-168.5 -18.5q-124 0 -183 33.5t-59 105.5q0 53 27.5 103t93 79.5t180.5 35.5l217 11q36 2 53 15.5t17 36.5q0 22 -27 33.5t-79 11.5q-63 0 -95.5 -16.5t-43.5 -45.5h-250q34 81 82 117t125 53.5t223 17.5q170 0 244 -37
t74 -122q0 -31 -7 -61l-51 -244q-8 -40 -8 -59q0 -25 10 -46h-256zM390 224q-33 -5 -48.5 -24t-15.5 -42t19.5 -35.5t62.5 -12.5q57 0 99.5 13t69.5 40.5t36 85.5q-21 -6 -165 -19zM883 749q-32 -75 -79 -115.5t-104 -40.5q-30 0 -141.5 24t-134.5 24q-16 0 -26.5 -8
t-19.5 -21h-106q35 73 83.5 114t109.5 41q25 0 138 -24q108 -24 126 -24q14 0 26 6.5t22 23.5h106z" />
    <glyph glyph-name="adieresis" unicode="&#xe4;" 
d="M579 0l-2 20q0 14 4 34q-51 -39 -120.5 -57.5t-168.5 -18.5q-124 0 -183 33.5t-59 105.5q0 53 27.5 103t93 79.5t180.5 35.5l217 11q36 2 53 15.5t17 36.5q0 22 -27 33.5t-79 11.5q-63 0 -95.5 -16.5t-43.5 -45.5h-250q34 81 82 117t125 53.5t223 17.5q170 0 244 -37
t74 -122q0 -31 -7 -61l-51 -244q-8 -40 -8 -59q0 -25 10 -46h-256zM390 224q-33 -5 -48.5 -24t-15.5 -42t19.5 -35.5t62.5 -12.5q57 0 99.5 13t69.5 40.5t36 85.5q-21 -6 -165 -19zM282 614l26 132h242l-27 -132h-241zM601 614l27 132h242l-27 -132h-242z" />
    <glyph glyph-name="aring" unicode="&#xe5;" 
d="M579 0l-2 20q0 14 4 34q-51 -39 -120.5 -57.5t-168.5 -18.5q-124 0 -183 33.5t-59 105.5q0 53 27.5 103t93 79.5t180.5 35.5l217 11q36 2 53 15.5t17 36.5q0 22 -27 33.5t-79 11.5q-63 0 -95.5 -16.5t-43.5 -45.5h-250q34 81 82 117t125 53.5t223 17.5q170 0 244 -37
t74 -122q0 -31 -7 -61l-51 -244q-8 -40 -8 -59q0 -25 10 -46h-256zM390 224q-33 -5 -48.5 -24t-15.5 -42t19.5 -35.5t62.5 -12.5q57 0 99.5 13t69.5 40.5t36 85.5q-21 -6 -165 -19zM447 704q0 66 50.5 113.5t121.5 48.5q48 0 79 -27t31 -78q0 -58 -46.5 -107.5t-118.5 -49.5
q-56 0 -86.5 29t-30.5 71zM527 721q0 -19 13 -32.5t36 -13.5q28 0 51 21.5t23 50.5q0 20 -13.5 34t-35.5 14q-28 0 -51 -22.5t-23 -51.5z" />
    <glyph glyph-name="ae" unicode="&#xe6;" horiz-adv-x="1166" 
d="M729 217l-1 -20q0 -42 26.5 -61.5t71.5 -19.5q42 0 63 11t42 37h237q-53 -96 -142 -141t-218 -45q-78 0 -128 17.5t-80 56.5q-36 -31 -116.5 -52.5t-168.5 -21.5q-140 0 -202 33t-62 105q0 88 58 143t180 65l205 14q35 2 54 15t19 40q0 21 -20.5 29.5t-70.5 8.5
q-92 0 -105 -55h-236q29 95 120 144t253 49q80 0 129 -13t75 -39q42 25 91 38.5t114 13.5q140 -1 210.5 -59.5t70.5 -168.5q0 -33 -5.5 -64.5t-11.5 -59.5h-452zM979 331l1 14q0 35 -24.5 60.5t-69.5 25.5q-43 0 -81 -27t-53 -73h227zM363 220q-29 -2 -47 -17.5t-18 -42.5
q0 -26 23.5 -36.5t61.5 -10.5q43 0 76.5 15.5t54.5 42t28 74.5q-23 -12 -54 -15z" />
    <glyph glyph-name="ccedilla" unicode="&#xe7;" 
d="M647 327q1 7 1 14q0 34 -30 53t-90 19q-86 0 -134.5 -51.5t-48.5 -120.5q0 -50 32.5 -75.5t92.5 -25.5q63 0 101 22.5t57 68.5h262q-26 -82 -79.5 -136.5t-131 -84t-232.5 -32.5l-20 -25q12 4 49 4q39 0 63 -17t24 -48q0 -54 -44 -83t-124 -29q-36 0 -79 4t-73 16l26 54
q39 -11 75 -11q32 0 43.5 10t11.5 23q0 19 -30 19q-16 0 -37 -9l-22 22l62 72q-151 11 -222 66t-71 156q0 69 31.5 146.5t97.5 127.5t157.5 71.5t193.5 21.5q121 0 197.5 -22.5t115 -69.5t38.5 -126q0 -17 -1 -24h-262z" />
    <glyph glyph-name="egrave" unicode="&#xe8;" 
d="M330 215l-1 -12q0 -40 35.5 -63.5t96.5 -23.5q55 0 86.5 12.5t53.5 35.5h266q-50 -91 -158.5 -138.5t-270.5 -47.5q-91 0 -157 14.5t-112 43.5q-90 58 -90 169q0 92 48.5 176.5t155 136t256.5 51.5q180 0 266.5 -62t86.5 -187q0 -45 -12 -105h-550zM654 341l1 12
q0 39 -34 61.5t-97 22.5t-105.5 -22.5t-62.5 -73.5h298zM443 608l-123 144h303l61 -144h-241z" />
    <glyph glyph-name="eacute" unicode="&#xe9;" 
d="M330 215l-1 -12q0 -40 35.5 -63.5t96.5 -23.5q55 0 86.5 12.5t53.5 35.5h266q-50 -91 -158.5 -138.5t-270.5 -47.5q-91 0 -157 14.5t-112 43.5q-90 58 -90 169q0 92 48.5 176.5t155 136t256.5 51.5q180 0 266.5 -62t86.5 -187q0 -45 -12 -105h-550zM654 341l1 12
q0 39 -34 61.5t-97 22.5t-105.5 -22.5t-62.5 -73.5h298zM662 608h-241l121 144h303z" />
    <glyph glyph-name="ecircumflex" unicode="&#xea;" 
d="M330 215l-1 -12q0 -40 35.5 -63.5t96.5 -23.5q55 0 86.5 12.5t53.5 35.5h266q-50 -91 -158.5 -138.5t-270.5 -47.5q-91 0 -157 14.5t-112 43.5q-90 58 -90 169q0 92 48.5 176.5t155 136t256.5 51.5q180 0 266.5 -62t86.5 -187q0 -45 -12 -105h-550zM654 341l1 12
q0 39 -34 61.5t-97 22.5t-105.5 -22.5t-62.5 -73.5h298zM619 608l-52 76l-84 -76h-252l184 144h358l125 -144h-279z" />
    <glyph glyph-name="edieresis" unicode="&#xeb;" 
d="M330 215l-1 -12q0 -40 35.5 -63.5t96.5 -23.5q55 0 86.5 12.5t53.5 35.5h266q-50 -91 -158.5 -138.5t-270.5 -47.5q-91 0 -157 14.5t-112 43.5q-90 58 -90 169q0 92 48.5 176.5t155 136t256.5 51.5q180 0 266.5 -62t86.5 -187q0 -45 -12 -105h-550zM654 341l1 12
q0 39 -34 61.5t-97 22.5t-105.5 -22.5t-62.5 -73.5h298zM281 614l26 132h242l-27 -132h-241zM600 614l27 132h242l-27 -132h-242z" />
    <glyph glyph-name="igrave" unicode="&#xec;" horiz-adv-x="370" 
d="M60 0l113 547h250l-113 -547h-250zM183 608l-123 144h303l61 -144h-241z" />
    <glyph glyph-name="iacute" unicode="&#xed;" horiz-adv-x="370" 
d="M60 0l113 547h250l-113 -547h-250zM422 608h-241l121 144h303z" />
    <glyph glyph-name="icircumflex" unicode="&#xee;" horiz-adv-x="370" 
d="M60 0l113 547h250l-113 -547h-250zM372 608l-52 76l-84 -76h-252l184 144h358l125 -144h-279z" />
    <glyph glyph-name="idieresis" unicode="&#xef;" horiz-adv-x="370" 
d="M60 0l113 547h250l-113 -547h-250zM24 614l26 132h242l-27 -132h-241zM343 614l27 132h242l-27 -132h-242z" />
    <glyph glyph-name="eth" unicode="&#xf0;" 
d="M645 448q-22 45 -59 77.5t-88 57.5l-162 -67l-54 62l112 47q-26 8 -52 15t-54 13l152 129q108 -17 199 -56l142 58l77 -52l-128 -53q91 -62 134.5 -139t43.5 -168q0 -78 -31 -162.5t-91 -135t-146.5 -73.5t-209.5 -23q-183 0 -270.5 49.5t-87.5 149.5q0 28 9.5 70
t28.5 78t47.5 65t66.5 50q94 55 246 55q61 0 103 -12t69 -37zM503 333q-69 0 -116.5 -32.5t-47.5 -80.5q0 -36 33 -58t92 -22q75 0 119.5 33.5t44.5 76.5q0 38 -32 60.5t-93 22.5z" />
    <glyph glyph-name="ntilde" unicode="&#xf1;" horiz-adv-x="832" 
d="M522 0l54 262q8 36 8 57q0 29 -20.5 46t-58.5 17q-113 0 -144 -137l-51 -245h-250l113 547h242l-14 -68h2q39 37 105 60t138 23q99 0 151.5 -41t52.5 -116q0 -27 -5 -52l-73 -353h-250zM862 749q-32 -75 -79 -115.5t-104 -40.5q-30 0 -141.5 24t-134.5 24q-16 0 -26.5 -8
t-19.5 -21h-106q35 73 83.5 114t109.5 41q25 0 138 -24q108 -24 126 -24q14 0 26 6.5t22 23.5h106z" />
    <glyph glyph-name="ograve" unicode="&#xf2;" 
d="M77 195q0 74 33.5 156.5t97 129.5t150.5 67.5t195 20.5q181 0 266.5 -52.5t85.5 -162.5q0 -94 -45.5 -187.5t-151 -141t-278.5 -47.5q-183 0 -268 52.5t-85 164.5zM518 407q-58 0 -96 -21.5t-58 -64.5t-20 -86q0 -49 28.5 -72t91.5 -23q95 0 135 53t40 124q0 45 -29 67.5
t-92 22.5zM450 608l-123 144h303l61 -144h-241z" />
    <glyph glyph-name="oacute" unicode="&#xf3;" 
d="M77 195q0 74 33.5 156.5t97 129.5t150.5 67.5t195 20.5q181 0 266.5 -52.5t85.5 -162.5q0 -94 -45.5 -187.5t-151 -141t-278.5 -47.5q-183 0 -268 52.5t-85 164.5zM518 407q-58 0 -96 -21.5t-58 -64.5t-20 -86q0 -49 28.5 -72t91.5 -23q95 0 135 53t40 124q0 45 -29 67.5
t-92 22.5zM676 608h-241l121 144h303z" />
    <glyph glyph-name="ocircumflex" unicode="&#xf4;" 
d="M77 195q0 74 33.5 156.5t97 129.5t150.5 67.5t195 20.5q181 0 266.5 -52.5t85.5 -162.5q0 -94 -45.5 -187.5t-151 -141t-278.5 -47.5q-183 0 -268 52.5t-85 164.5zM518 407q-58 0 -96 -21.5t-58 -64.5t-20 -86q0 -49 28.5 -72t91.5 -23q95 0 135 53t40 124q0 45 -29 67.5
t-92 22.5zM630 608l-52 76l-84 -76h-252l184 144h358l125 -144h-279z" />
    <glyph glyph-name="otilde" unicode="&#xf5;" 
d="M77 195q0 74 33.5 156.5t97 129.5t150.5 67.5t195 20.5q181 0 266.5 -52.5t85.5 -162.5q0 -94 -45.5 -187.5t-151 -141t-278.5 -47.5q-183 0 -268 52.5t-85 164.5zM518 407q-58 0 -96 -21.5t-58 -64.5t-20 -86q0 -49 28.5 -72t91.5 -23q95 0 135 53t40 124q0 45 -29 67.5
t-92 22.5zM881 749q-32 -75 -79 -115.5t-104 -40.5q-30 0 -141.5 24t-134.5 24q-16 0 -26.5 -8t-19.5 -21h-106q35 73 83.5 114t109.5 41q25 0 138 -24q108 -24 126 -24q14 0 26 6.5t22 23.5h106z" />
    <glyph glyph-name="odieresis" unicode="&#xf6;" 
d="M77 195q0 74 33.5 156.5t97 129.5t150.5 67.5t195 20.5q181 0 266.5 -52.5t85.5 -162.5q0 -94 -45.5 -187.5t-151 -141t-278.5 -47.5q-183 0 -268 52.5t-85 164.5zM518 407q-58 0 -96 -21.5t-58 -64.5t-20 -86q0 -49 28.5 -72t91.5 -23q95 0 135 53t40 124q0 45 -29 67.5
t-92 22.5zM282 614l26 132h242l-27 -132h-241zM601 614l27 132h242l-27 -132h-242z" />
    <glyph glyph-name="divide" unicode="&#xf7;" horiz-adv-x="600" 
d="M289 447q1 48 41 87.5t88 39.5q37 0 61.5 -23.5t24.5 -59.5q0 -49 -39.5 -87.5t-89.5 -39.5q-38 0 -62 24t-24 59zM84 181l30 144h506l-30 -144h-506zM200 16q1 49 40 87.5t89 38.5q37 0 61 -23.5t24 -58.5q0 -50 -39 -88.5t-90 -39.5q-38 0 -61.5 23.5t-23.5 60.5z" />
    <glyph glyph-name="oslash" unicode="&#xf8;" 
d="M869 472q36 -47 36 -119q0 -56 -18.5 -122t-62 -118t-104.5 -81.5t-133 -41.5t-157 -12q-178 0 -263 52l-115 -73l-30 59l92 59q-36 48 -36 122q0 95 45.5 184.5t149 138.5t280.5 49q176 0 262 -51l113 72l33 -60zM607 386q-15 10 -36.5 15.5t-52.5 5.5
q-87 0 -129.5 -48.5t-44.5 -125.5q0 -9 1 -12zM376 162q14 -11 35.5 -16.5t52.5 -5.5q56 0 95 19.5t59 63.5t21 90q0 10 -1 14z" />
    <glyph glyph-name="ugrave" unicode="&#xf9;" horiz-adv-x="832" 
d="M530 0l12 61h-2q-40 -38 -106.5 -60.5t-136.5 -22.5q-102 0 -153 42t-51 117q0 26 7 60l73 350h250l-60 -290q-4 -15 -4 -32q0 -67 79 -67q61 0 96 33t48 98l53 258h250l-113 -547h-242zM424 608l-123 144h303l61 -144h-241z" />
    <glyph glyph-name="uacute" unicode="&#xfa;" horiz-adv-x="832" 
d="M530 0l12 61h-2q-40 -38 -106.5 -60.5t-136.5 -22.5q-102 0 -153 42t-51 117q0 26 7 60l73 350h250l-60 -290q-4 -15 -4 -32q0 -67 79 -67q61 0 96 33t48 98l53 258h250l-113 -547h-242zM653 608h-241l121 144h303z" />
    <glyph glyph-name="ucircumflex" unicode="&#xfb;" horiz-adv-x="832" 
d="M530 0l12 61h-2q-40 -38 -106.5 -60.5t-136.5 -22.5q-102 0 -153 42t-51 117q0 26 7 60l73 350h250l-60 -290q-4 -15 -4 -32q0 -67 79 -67q61 0 96 33t48 98l53 258h250l-113 -547h-242zM610 608l-52 76l-84 -76h-252l184 144h358l125 -144h-279z" />
    <glyph glyph-name="udieresis" unicode="&#xfc;" horiz-adv-x="832" 
d="M530 0l12 61h-2q-40 -38 -106.5 -60.5t-136.5 -22.5q-102 0 -153 42t-51 117q0 26 7 60l73 350h250l-60 -290q-4 -15 -4 -32q0 -67 79 -67q61 0 96 33t48 98l53 258h250l-113 -547h-242zM261 614l26 132h242l-27 -132h-241zM580 614l27 132h242l-27 -132h-242z" />
    <glyph glyph-name="yacute" unicode="&#xfd;" horiz-adv-x="722" 
d="M420 -86q-44 -64 -87 -87t-136 -23q-44 0 -101 3.5t-72 5.5l33 162q46 -3 66 -3q33 0 46.5 2.5t26.5 13t28 32.5l17 24l-150 503h262l63 -281l179 281h262zM593 608h-241l121 144h303z" />
    <glyph glyph-name="thorn" unicode="&#xfe;" 
d="M19 -196l194 935h250l-53 -254h2q80 77 233 77q119 0 188.5 -57.5t69.5 -160.5q0 -105 -49 -188.5t-136.5 -130.5t-194.5 -47q-151 0 -200 77h-2l-52 -251h-250zM527 394q-45 0 -84.5 -17.5t-60 -57.5t-20.5 -85q0 -88 119 -88q50 0 89.5 24t56.5 61.5t17 70.5
q0 46 -30 69t-87 23z" />
    <glyph glyph-name="ydieresis" unicode="&#xff;" horiz-adv-x="722" 
d="M420 -86q-44 -64 -87 -87t-136 -23q-44 0 -101 3.5t-72 5.5l33 162q46 -3 66 -3q33 0 46.5 2.5t26.5 13t28 32.5l17 24l-150 503h262l63 -281l179 281h262zM201 614l26 132h242l-27 -132h-241zM520 614l27 132h242l-27 -132h-242z" />
    <glyph glyph-name="Amacron" unicode="&#x100;" horiz-adv-x="888" 
d="M621 0l-13 82h-294l-47 -82h-300l452 714h346l156 -714h-300zM548 498h-2l-134 -242h170zM307 784l32 132h570l-33 -132h-569z" />
    <glyph glyph-name="amacron" unicode="&#x101;" 
d="M579 0l-2 20q0 14 4 34q-51 -39 -120.5 -57.5t-168.5 -18.5q-124 0 -183 33.5t-59 105.5q0 53 27.5 103t93 79.5t180.5 35.5l217 11q36 2 53 15.5t17 36.5q0 22 -27 33.5t-79 11.5q-63 0 -95.5 -16.5t-43.5 -45.5h-250q34 81 82 117t125 53.5t223 17.5q170 0 244 -37
t74 -122q0 -31 -7 -61l-51 -244q-8 -40 -8 -59q0 -25 10 -46h-256zM390 224q-33 -5 -48.5 -24t-15.5 -42t19.5 -35.5t62.5 -12.5q57 0 99.5 13t69.5 40.5t36 85.5q-21 -6 -165 -19zM276 614l32 132h570l-33 -132h-569z" />
    <glyph glyph-name="Abreve" unicode="&#x102;" horiz-adv-x="888" 
d="M621 0l-13 82h-294l-47 -82h-300l452 714h346l156 -714h-300zM548 498h-2l-134 -242h170zM860 929q-35 -89 -97.5 -123t-174.5 -34q-118 0 -164 37.5t-46 114.5v5h132q2 -25 21.5 -34t78.5 -9q49 0 75.5 9t42.5 34h132z" />
    <glyph glyph-name="abreve" unicode="&#x103;" 
d="M579 0l-2 20q0 14 4 34q-51 -39 -120.5 -57.5t-168.5 -18.5q-124 0 -183 33.5t-59 105.5q0 53 27.5 103t93 79.5t180.5 35.5l217 11q36 2 53 15.5t17 36.5q0 22 -27 33.5t-79 11.5q-63 0 -95.5 -16.5t-43.5 -45.5h-250q34 81 82 117t125 53.5t223 17.5q170 0 244 -37
t74 -122q0 -31 -7 -61l-51 -244q-8 -40 -8 -59q0 -25 10 -46h-256zM390 224q-33 -5 -48.5 -24t-15.5 -42t19.5 -35.5t62.5 -12.5q57 0 99.5 13t69.5 40.5t36 85.5q-21 -6 -165 -19zM818 759q-36 -89 -97.5 -123t-174.5 -34q-118 0 -164 37.5t-46 114.5v5h132q2 -25 22.5 -34
t77.5 -9q51 0 76.5 9t41.5 34h132z" />
    <glyph glyph-name="Aogonek" unicode="&#x104;" horiz-adv-x="888" 
d="M749 0q-58 -43 -78.5 -71t-20.5 -48q0 -14 9.5 -22t26.5 -8q30 0 74 12l-6 -60q-77 -23 -157 -23q-56 0 -84.5 18.5t-28.5 52.5q0 37 31 72.5t106 76.5l-13 82h-294l-47 -82h-300l452 714h346l156 -714h-172zM548 498h-2l-134 -242h170z" />
    <glyph glyph-name="aogonek" unicode="&#x105;" 
d="M712 -197q-77 -23 -157 -23q-56 0 -84.5 18.5t-28.5 52.5q0 37 31 72.5t106 76.5q-1 5 -2 22q1 14 4 32q-51 -39 -120.5 -57.5t-168.5 -18.5q-124 0 -183 33.5t-59 105.5q0 45 17 83t50 67q68 60 234 68l211 10q38 2 57 14t19 39q0 22 -27.5 33.5t-78.5 11.5
q-61 0 -94 -16t-45 -46h-250q39 103 127.5 145.5t302.5 42.5q168 0 243 -36.5t75 -122.5q0 -13 -1.5 -28t-5.5 -32l-51 -248q-8 -42 -8 -56q0 -15 2.5 -25t7.5 -21h-128q-46 -31 -72.5 -63t-26.5 -55q0 -14 9.5 -22.5t26.5 -8.5q30 0 74 12zM390 224q-33 -5 -49 -24t-16 -42
t20 -35.5t63 -12.5q57 0 99.5 13t69.5 40.5t36 85.5q-26 -5 -53.5 -8.5t-108.5 -10.5q-32 -2 -61 -6z" />
    <glyph glyph-name="Cacute" unicode="&#x106;" horiz-adv-x="1019" 
d="M760 434v10q0 56 -33 85.5t-92 29.5q-86 0 -141 -43t-76.5 -114t-21.5 -115q0 -66 36 -99t105 -33t115 30t75 93h318q-61 -163 -183.5 -233t-348.5 -70q-134 0 -208.5 19.5t-118.5 51t-68.5 82.5t-24.5 124q0 44 13 109t41.5 123.5t65.5 100.5t81.5 70.5t99.5 47
t125.5 27.5t151.5 9q140 0 226 -26.5t134 -86t48 -160.5q0 -6 -1 -32h-318zM802 778h-241l121 144h303z" />
    <glyph glyph-name="cacute" unicode="&#x107;" 
d="M647 327q0 5 1 14q0 34 -29 53t-91 19q-90 0 -136.5 -52t-46.5 -120q0 -50 32.5 -75.5t92.5 -25.5q63 0 101 22.5t57 68.5h262q-44 -133 -152.5 -193t-300.5 -60q-92 0 -158 14t-111 42q-89 56 -89 168q0 87 44.5 174.5t150 139t285.5 53.5q121 0 197.5 -22.5t115 -70
t38.5 -124.5q0 -18 -1 -25h-262zM692 608h-241l121 144h303z" />
    <glyph glyph-name="Ccircumflex" unicode="&#x108;" horiz-adv-x="1019" 
d="M760 434v10q0 56 -33 85.5t-92 29.5q-86 0 -141 -43t-76.5 -114t-21.5 -115q0 -66 36 -99t105 -33t115 30t75 93h318q-61 -163 -183.5 -233t-348.5 -70q-134 0 -208.5 19.5t-118.5 51t-68.5 82.5t-24.5 124q0 44 13 109t41.5 123.5t65.5 100.5t81.5 70.5t99.5 47
t125.5 27.5t151.5 9q140 0 226 -26.5t134 -86t48 -160.5q0 -6 -1 -32h-318zM737 778l-52 76l-84 -76h-252l184 144h358l125 -144h-279z" />
    <glyph glyph-name="ccircumflex" unicode="&#x109;" 
d="M647 327q0 5 1 14q0 34 -29 53t-91 19q-90 0 -136.5 -52t-46.5 -120q0 -50 32.5 -75.5t92.5 -25.5q63 0 101 22.5t57 68.5h262q-44 -133 -152.5 -193t-300.5 -60q-92 0 -158 14t-111 42q-89 56 -89 168q0 87 44.5 174.5t150 139t285.5 53.5q121 0 197.5 -22.5t115 -70
t38.5 -124.5q0 -18 -1 -25h-262zM635 608l-52 76l-84 -76h-252l184 144h358l125 -144h-279z" />
    <glyph glyph-name="Cdotaccent" unicode="&#x10a;" horiz-adv-x="1019" 
d="M760 434v10q0 56 -33 85.5t-92 29.5q-86 0 -141 -43t-76.5 -114t-21.5 -115q0 -66 36 -99t105 -33t115 30t75 93h318q-61 -163 -183.5 -233t-348.5 -70q-134 0 -208.5 19.5t-118.5 51t-68.5 82.5t-24.5 124q0 44 13 109t41.5 123.5t65.5 100.5t81.5 70.5t99.5 47
t125.5 27.5t151.5 9q140 0 226 -26.5t134 -86t48 -160.5q0 -6 -1 -32h-318zM550 784l27 132h242l-27 -132h-242z" />
    <glyph glyph-name="cdotaccent" unicode="&#x10b;" 
d="M647 327q0 5 1 14q0 34 -29 53t-91 19q-90 0 -136.5 -52t-46.5 -120q0 -50 32.5 -75.5t92.5 -25.5q63 0 101 22.5t57 68.5h262q-44 -133 -152.5 -193t-300.5 -60q-92 0 -158 14t-111 42q-89 56 -89 168q0 87 44.5 174.5t150 139t285.5 53.5q121 0 197.5 -22.5t115 -70
t38.5 -124.5q0 -18 -1 -25h-262zM443 614l27 132h242l-27 -132h-242z" />
    <glyph glyph-name="Ccaron" unicode="&#x10c;" horiz-adv-x="1019" 
d="M760 434v10q0 56 -33 85.5t-92 29.5q-86 0 -141 -43t-76.5 -114t-21.5 -115q0 -66 36 -99t105 -33t115 30t75 93h318q-61 -163 -183.5 -233t-348.5 -70q-134 0 -208.5 19.5t-118.5 51t-68.5 82.5t-24.5 124q0 44 13 109t41.5 123.5t65.5 100.5t81.5 70.5t99.5 47
t125.5 27.5t151.5 9q140 0 226 -26.5t134 -86t48 -160.5q0 -6 -1 -32h-318zM843 778h-358l-124 144h278l53 -76l83 76h253z" />
    <glyph glyph-name="ccaron" unicode="&#x10d;" 
d="M647 327q0 5 1 14q0 34 -29 53t-91 19q-90 0 -136.5 -52t-46.5 -120q0 -50 32.5 -75.5t92.5 -25.5q63 0 101 22.5t57 68.5h262q-44 -133 -152.5 -193t-300.5 -60q-92 0 -158 14t-111 42q-89 56 -89 168q0 87 44.5 174.5t150 139t285.5 53.5q121 0 197.5 -22.5t115 -70
t38.5 -124.5q0 -18 -1 -25h-262zM734 608h-358l-124 144h278l53 -76l83 76h253z" />
    <glyph glyph-name="Dcaron" unicode="&#x10e;" horiz-adv-x="1019" 
d="M69 0l148 714h555q77 0 133.5 -14t93.5 -42q76 -57 76 -180q0 -58 -12 -117.5t-36 -119.5q-98 -241 -397 -241h-561zM554 180q112 0 165.5 68t54.5 165q0 121 -146 121h-166l-74 -354h166zM794 778h-358l-124 144h278l53 -76l83 76h253z" />
    <glyph glyph-name="dcaron" unicode="&#x10f;" horiz-adv-x="1086" 
d="M568 0l12 58h-2q-45 -42 -103 -61t-139 -19q-118 0 -188 58.5t-70 158.5q0 93 45 179t134.5 137t199.5 51q152 0 201 -77h2l53 254h250l-153 -739h-242zM502 394q-73 0 -118.5 -45.5t-45.5 -112.5q0 -90 115 -90q46 0 78 13t51.5 36t28.5 55t9 55q0 89 -118 89zM978 577
l63 162h237l-118 -162h-182z" />
    <glyph glyph-name="Dcroat" unicode="&#x110;" horiz-adv-x="1019" 
d="M69 0l63 304h-69l26 126h69l59 284h561q147 0 222 -60t75 -183q0 -112 -49 -231t-148 -179.5t-248 -60.5h-561zM414 304l-26 -124h166q68 0 116.5 26.5t76 84t27.5 122.5q0 62 -36.5 91.5t-109.5 29.5h-166l-22 -104h181l-26 -126h-181z" />
    <glyph glyph-name="dcroat" unicode="&#x111;" horiz-adv-x="938" 
d="M568 0l12 58h-2q-45 -42 -103 -61t-139 -19q-120 0 -189 58.5t-69 157.5q0 95 45 181t134.5 136.5t199.5 50.5q151 0 201 -77h2l18 89h-138l26 102h134l13 63h250l-13 -63h121l-22 -102h-120l-119 -574h-242zM502 394q-77 0 -120.5 -48t-43.5 -110q0 -43 29 -66.5
t86 -23.5q86 0 126.5 46.5t40.5 112.5q0 47 -30.5 68t-87.5 21z" />
    <glyph glyph-name="Emacron" unicode="&#x112;" horiz-adv-x="852" 
d="M69 0l148 714h759l-36 -174h-477l-20 -96h443l-36 -174h-443l-20 -96h477l-36 -174h-759zM315 784l32 132h570l-33 -132h-569z" />
    <glyph glyph-name="emacron" unicode="&#x113;" 
d="M330 215l-1 -12q0 -40 35.5 -63.5t96.5 -23.5q55 0 86.5 12.5t53.5 35.5h266q-50 -91 -158.5 -138.5t-270.5 -47.5q-91 0 -157 14.5t-112 43.5q-90 58 -90 169q0 92 48.5 176.5t155 136t256.5 51.5q180 0 266.5 -62t86.5 -187q0 -45 -12 -105h-550zM654 341l1 12
q0 39 -34 61.5t-97 22.5t-105.5 -22.5t-62.5 -73.5h298zM270 614l32 132h570l-33 -132h-569z" />
    <glyph glyph-name="Ebreve" unicode="&#x114;" horiz-adv-x="852" 
d="M69 0l148 714h759l-36 -174h-477l-20 -96h443l-36 -174h-443l-20 -96h477l-36 -174h-759zM854 929q-35 -89 -97.5 -123t-174.5 -34q-118 0 -164 37.5t-46 114.5v5h132q2 -25 21.5 -34t78.5 -9q49 0 75.5 9t42.5 34h132z" />
    <glyph glyph-name="ebreve" unicode="&#x115;" 
d="M330 215l-1 -12q0 -40 35.5 -63.5t96.5 -23.5q55 0 86.5 12.5t53.5 35.5h266q-50 -91 -158.5 -138.5t-270.5 -47.5q-91 0 -157 14.5t-112 43.5q-90 58 -90 169q0 92 48.5 176.5t155 136t256.5 51.5q180 0 266.5 -62t86.5 -187q0 -45 -12 -105h-550zM654 341l1 12
q0 39 -34 61.5t-97 22.5t-105.5 -22.5t-62.5 -73.5h298zM810 759q-36 -89 -97.5 -123t-174.5 -34q-118 0 -164 37.5t-46 114.5v5h132q2 -25 22.5 -34t77.5 -9q51 0 76.5 9t41.5 34h132z" />
    <glyph glyph-name="Edotaccent" unicode="&#x116;" horiz-adv-x="852" 
d="M69 0l148 714h759l-36 -174h-477l-20 -96h443l-36 -174h-443l-20 -96h477l-36 -174h-759zM477 784l27 132h242l-27 -132h-242z" />
    <glyph glyph-name="edotaccent" unicode="&#x117;" 
d="M330 215l-1 -12q0 -40 35.5 -63.5t96.5 -23.5q55 0 86.5 12.5t53.5 35.5h266q-50 -91 -158.5 -138.5t-270.5 -47.5q-91 0 -157 14.5t-112 43.5q-90 58 -90 169q0 92 48.5 176.5t155 136t256.5 51.5q180 0 266.5 -62t86.5 -187q0 -45 -12 -105h-550zM654 341l1 12
q0 39 -34 61.5t-97 22.5t-105.5 -22.5t-62.5 -73.5h298zM426 614l27 132h242l-27 -132h-242z" />
    <glyph glyph-name="Eogonek" unicode="&#x118;" horiz-adv-x="852" 
d="M789 -197q-78 -23 -158 -23q-55 0 -83.5 18.5t-28.5 52.5q0 42 40 77.5t128 71.5h-618l148 714h759l-36 -174h-477l-20 -96h443l-36 -174h-443l-20 -96h477l-36 -174h-29q-71 -50 -92.5 -73t-21.5 -46q0 -14 9.5 -22t26.5 -8q30 0 74 12z" />
    <glyph glyph-name="eogonek" unicode="&#x119;" 
d="M535 -197q-78 -23 -158 -23q-55 0 -83.5 18.5t-28.5 52.5q0 30 21 58.5t99 70.5q-148 7 -227.5 63.5t-79.5 160.5q0 93 51 179.5t156.5 136t253.5 49.5q180 0 266.5 -61.5t86.5 -186.5q0 -46 -12 -106h-550l-1 -12q0 -40 35.5 -63.5t96.5 -23.5q55 0 86.5 12.5t53.5 35.5
h266q-42 -78 -128.5 -124t-219.5 -59l-26 -20q-27 -20 -44.5 -40.5t-17.5 -39.5q0 -14 9 -22t26 -8q31 0 75 12zM654 341l1 12q0 39 -34 61.5t-97 22.5q-64 0 -105 -22t-63 -74h298z" />
    <glyph glyph-name="Ecaron" unicode="&#x11a;" horiz-adv-x="852" 
d="M69 0l148 714h759l-36 -174h-477l-20 -96h443l-36 -174h-443l-20 -96h477l-36 -174h-759zM763 778h-358l-124 144h278l53 -76l83 76h253z" />
    <glyph glyph-name="ecaron" unicode="&#x11b;" 
d="M330 215l-1 -12q0 -40 35.5 -63.5t96.5 -23.5q55 0 86.5 12.5t53.5 35.5h266q-50 -91 -158.5 -138.5t-270.5 -47.5q-91 0 -157 14.5t-112 43.5q-90 58 -90 169q0 92 48.5 176.5t155 136t256.5 51.5q180 0 266.5 -62t86.5 -187q0 -45 -12 -105h-550zM654 341l1 12
q0 39 -34 61.5t-97 22.5t-105.5 -22.5t-62.5 -73.5h298zM714 608h-358l-124 144h278l53 -76l83 76h253z" />
    <glyph glyph-name="Gcircumflex" unicode="&#x11c;" horiz-adv-x="1038" 
d="M857 0l-19 65q-75 -55 -155 -72.5t-190 -17.5q-203 0 -301.5 70.5t-98.5 208.5q0 90 36.5 187t108.5 163.5t178.5 100.5t234.5 34q218 0 323.5 -57.5t105.5 -183.5q0 -21 -1 -29h-318q0 45 -31 67.5t-101 22.5q-80 0 -133.5 -37.5t-78.5 -103.5t-25 -123q0 -140 175 -140
q63 0 106.5 21.5t69.5 68.5h-116l34 162h401l-84 -407h-121zM732 778l-52 76l-84 -76h-252l184 144h358l125 -144h-279z" />
    <glyph glyph-name="gcircumflex" unicode="&#x11d;" horiz-adv-x="888" 
d="M597 93q-45 -34 -103 -46.5t-125 -12.5q-141 0 -213 50.5t-72 146.5t50 171.5t141 117.5t203 42q76 0 128 -21t80 -56l13 62h242l-104 -505q-26 -128 -129.5 -187t-303.5 -59q-144 0 -213 17.5t-106 56.5t-37 105v13h276q0 -30 26.5 -42t77.5 -12q74 0 109.5 25t47.5 78z
M350 270q1 -86 123 -86q80 0 124 37t44 97q0 39 -32 60.5t-92 21.5t-98 -21.5t-53.5 -50.5t-15.5 -58zM640 608l-52 76l-84 -76h-252l184 144h358l125 -144h-279z" />
    <glyph glyph-name="Gbreve" unicode="&#x11e;" horiz-adv-x="1038" 
d="M857 0l-19 65q-75 -55 -155 -72.5t-190 -17.5q-203 0 -301.5 70.5t-98.5 208.5q0 90 36.5 187t108.5 163.5t178.5 100.5t234.5 34q218 0 323.5 -57.5t105.5 -183.5q0 -21 -1 -29h-318q0 45 -31 67.5t-101 22.5q-80 0 -133.5 -37.5t-78.5 -103.5t-25 -123q0 -140 175 -140
q63 0 106.5 21.5t69.5 68.5h-116l34 162h401l-84 -407h-121zM930 929q-35 -89 -97.5 -123t-174.5 -34q-118 0 -164 37.5t-46 114.5v5h132q2 -25 21.5 -34t78.5 -9q49 0 75.5 9t42.5 34h132z" />
    <glyph glyph-name="gbreve" unicode="&#x11f;" horiz-adv-x="888" 
d="M597 93q-45 -34 -103 -46.5t-125 -12.5q-141 0 -213 50.5t-72 146.5t50 171.5t141 117.5t203 42q76 0 128 -21t80 -56l13 62h242l-104 -505q-26 -128 -129.5 -187t-303.5 -59q-144 0 -213 17.5t-106 56.5t-37 105v13h276q0 -30 26.5 -42t77.5 -12q74 0 109.5 25t47.5 78z
M350 270q1 -86 123 -86q80 0 124 37t44 97q0 39 -32 60.5t-92 21.5t-98 -21.5t-53.5 -50.5t-15.5 -58zM818 759q-36 -89 -97.5 -123t-174.5 -34q-118 0 -164 37.5t-46 114.5v5h132q2 -25 22.5 -34t77.5 -9q51 0 76.5 9t41.5 34h132z" />
    <glyph glyph-name="Gdotaccent" unicode="&#x120;" horiz-adv-x="1038" 
d="M857 0l-19 65q-75 -55 -155 -72.5t-190 -17.5q-203 0 -301.5 70.5t-98.5 208.5q0 90 36.5 187t108.5 163.5t178.5 100.5t234.5 34q218 0 323.5 -57.5t105.5 -183.5q0 -21 -1 -29h-318q0 45 -31 67.5t-101 22.5q-80 0 -133.5 -37.5t-78.5 -103.5t-25 -123q0 -140 175 -140
q63 0 106.5 21.5t69.5 68.5h-116l34 162h401l-84 -407h-121zM544 784l27 132h242l-27 -132h-242z" />
    <glyph glyph-name="gdotaccent" unicode="&#x121;" horiz-adv-x="888" 
d="M597 93q-45 -34 -103 -46.5t-125 -12.5q-141 0 -213 50.5t-72 146.5t50 171.5t141 117.5t203 42q76 0 128 -21t80 -56l13 62h242l-104 -505q-26 -128 -129.5 -187t-303.5 -59q-144 0 -213 17.5t-106 56.5t-37 105v13h276q0 -30 26.5 -42t77.5 -12q74 0 109.5 25t47.5 78z
M350 270q1 -86 123 -86q80 0 124 37t44 97q0 39 -32 60.5t-92 21.5t-98 -21.5t-53.5 -50.5t-15.5 -58zM425 614l27 132h242l-27 -132h-242z" />
    <glyph glyph-name="Gcommaaccent" unicode="&#x122;" horiz-adv-x="1038" 
d="M857 0l-19 65q-75 -55 -155 -72.5t-190 -17.5q-203 0 -301.5 70.5t-98.5 208.5q0 90 36.5 187t108.5 163.5t178.5 100.5t234.5 34q218 0 323.5 -57.5t105.5 -183.5q0 -21 -1 -29h-318q0 45 -31 67.5t-101 22.5q-80 0 -133.5 -37.5t-78.5 -103.5t-25 -123q0 -140 175 -140
q63 0 106.5 21.5t69.5 68.5h-116l34 162h401l-84 -407h-121zM594 -121q-13 -64 -53.5 -89t-150.5 -25l10 48q29 2 45 8t26 21h-106l22 108h222z" />
    <glyph glyph-name="gcommaaccent" unicode="&#x123;" horiz-adv-x="888" 
d="M597 93q-45 -34 -103 -46.5t-125 -12.5q-141 0 -213 50.5t-72 146.5t50 171.5t141 117.5t203 42q76 0 128 -21t80 -56l13 62h242l-104 -505q-26 -128 -129.5 -187t-303.5 -59q-144 0 -213 17.5t-106 56.5t-37 105v13h276q0 -30 26.5 -42t77.5 -12q74 0 109.5 25t47.5 78z
M350 270q1 -86 123 -86q80 0 124 37t44 97q0 39 -32 60.5t-92 21.5t-98 -21.5t-53.5 -50.5t-15.5 -58zM460 631l15 71q10 42 28 66t54.5 35t121.5 13l-10 -48q-26 -2 -43 -7.5t-27 -21.5h105l-22 -108h-222z" />
    <glyph glyph-name="Hcircumflex" unicode="&#x124;" horiz-adv-x="1019" 
d="M668 0l59 285h-317l-59 -285h-282l148 714h282l-52 -249h317l52 249h282l-148 -714h-282zM731 778l-52 76l-84 -76h-252l184 144h358l125 -144h-279z" />
    <glyph glyph-name="hcircumflex" unicode="&#x125;" horiz-adv-x="832" 
d="M522 0l54 262q8 34 8 54q0 65 -79 66q-53 0 -91 -33.5t-53 -102.5l-51 -246h-250l153 739h250l-54 -260h2q34 36 98.5 59.5t136.5 23.5q102 -1 153 -42t51 -115q0 -21 -6 -57l-72 -348h-250zM612 778l-52 76l-84 -76h-252l184 144h358l125 -144h-279z" />
    <glyph glyph-name="Hbar" unicode="&#x126;" horiz-adv-x="1019" 
d="M668 0l56 270h-317l-56 -270h-282l148 714h282l-23 -114h317l23 114h282l-148 -714h-282zM772 498h-317l-14 -68h317z" />
    <glyph glyph-name="hbar" unicode="&#x127;" horiz-adv-x="900" 
d="M590 0l54 261q8 34 8 57q0 32 -21 48t-58 16q-54 0 -91.5 -34t-51.5 -99l-52 -249h-250l119 574h-122l26 102h117l13 63h250l-13 -63h138l-22 -102h-138l-19 -95h2q37 39 101.5 61t133.5 22q99 0 151.5 -40.5t52.5 -116.5q0 -13 -1.5 -28t-3.5 -26l-73 -351h-250z" />
    <glyph glyph-name="Itilde" unicode="&#x128;" horiz-adv-x="426" 
d="M72 0l148 714h282l-148 -714h-282zM692 919q-32 -75 -79 -115.5t-104 -40.5q-30 0 -141.5 24t-134.5 24q-16 0 -26.5 -8t-19.5 -21h-106q35 73 83.5 114t109.5 41q28 0 138 -24q111 -24 126 -24q14 0 26 6.5t22 23.5h106z" />
    <glyph glyph-name="itilde" unicode="&#x129;" horiz-adv-x="370" 
d="M60 0l113 547h250l-113 -547h-250zM620 749q-32 -75 -79 -115.5t-104 -40.5q-30 0 -141.5 24t-134.5 24q-16 0 -26.5 -8t-19.5 -21h-106q35 73 83.5 114t109.5 41q25 0 138 -24q108 -24 126 -24q14 0 26 6.5t22 23.5h106z" />
    <glyph glyph-name="Imacron" unicode="&#x12a;" horiz-adv-x="426" 
d="M72 0l148 714h282l-148 -714h-282zM74 784l32 132h570l-33 -132h-569z" />
    <glyph glyph-name="imacron" unicode="&#x12b;" horiz-adv-x="370" 
d="M60 0l113 547h250l-113 -547h-250zM8 614l32 132h570l-33 -132h-569z" />
    <glyph glyph-name="Ibreve" unicode="&#x12c;" horiz-adv-x="426" 
d="M72 0l148 714h282l-148 -714h-282zM647 929q-35 -89 -97.5 -123t-174.5 -34q-118 0 -164 37.5t-46 114.5v5h132q2 -25 21.5 -34t78.5 -9q49 0 75.5 9t42.5 34h132z" />
    <glyph glyph-name="ibreve" unicode="&#x12d;" horiz-adv-x="370" 
d="M60 0l113 547h250l-113 -547h-250zM583 759q-36 -89 -97.5 -123t-174.5 -34q-118 0 -164 37.5t-46 114.5v5h132q2 -25 22.5 -34t77.5 -9q51 0 76.5 9t41.5 34h132z" />
    <glyph glyph-name="Iogonek" unicode="&#x12e;" horiz-adv-x="426" 
d="M312 -197q-77 -23 -158 -23q-54 0 -83 18.5t-29 52.5q0 42 40 77.5t128 71.5h-138l148 714h282l-148 -714h-32q-70 -49 -92 -73.5t-22 -44.5q0 -15 9.5 -23t26.5 -8q30 0 74 12z" />
    <glyph glyph-name="iogonek" unicode="&#x12f;" horiz-adv-x="370" 
d="M184 601l29 138h250l-29 -138h-250zM272 -197q-74 -23 -153 -23q-53 0 -81 18.5t-28 51.5q0 45 40.5 80.5t122.5 69.5h-113l113 547h250l-113 -547h-29q-66 -49 -88 -72.5t-22 -46.5q0 -13 9 -21.5t26 -8.5q14 0 32.5 3t38.5 9z" />
    <glyph glyph-name="Idotaccent" unicode="&#x130;" horiz-adv-x="426" 
d="M72 0l148 714h282l-148 -714h-282zM248 784l27 132h242l-27 -132h-242z" />
    <glyph glyph-name="dotlessi" unicode="&#x131;" horiz-adv-x="370" 
d="M60 0l113 547h250l-113 -547h-250z" />
    <glyph glyph-name="Jcircumflex" unicode="&#x134;" horiz-adv-x="796" 
d="M607 714h282l-90 -433q-27 -126 -75 -186.5t-130.5 -90t-210.5 -29.5q-127 0 -194 19.5t-101.5 63.5t-34.5 122q0 48 15 119h282q-6 -28 -10 -51.5t-4 -37.5q0 -29 14.5 -45t52.5 -16q47 0 73 27.5t37 81.5zM820 778l-52 76l-84 -76h-252l184 144h358l125 -144h-279z" />
    <glyph glyph-name="jcircumflex" unicode="&#x135;" horiz-adv-x="389" 
d="M-28 -16h24q29 0 49 2t29 17t14 43l104 501h250l-112 -540q-17 -80 -46 -122.5t-75 -61.5t-141 -19q-87 0 -132 6zM388 608l-52 76l-84 -76h-252l184 144h358l125 -144h-279z" />
    <glyph glyph-name="Kcommaaccent" unicode="&#x136;" horiz-adv-x="981" 
d="M639 0l-139 274l-110 -82l-39 -192h-282l148 714h282l-52 -252l314 252h374l-376 -276l255 -438h-375zM587 -121q-13 -64 -53.5 -89t-150.5 -25l10 48q29 2 45 8t26 21h-106l22 108h222z" />
    <glyph glyph-name="kcommaaccent" unicode="&#x137;" horiz-adv-x="832" 
d="M518 0l-92 184l-92 -64l-24 -120h-250l153 739h250l-77 -369l226 177h332l-291 -204l203 -343h-338zM513 -121q-13 -64 -53.5 -89t-150.5 -25l10 48q29 2 45 8t26 21h-106l22 108h222z" />
    <glyph glyph-name="kgreenlandic" unicode="&#x138;" horiz-adv-x="832" 
d="M518 0l-92 184l-92 -64l-24 -120h-250l113 547h250l-37 -177l226 177h332l-291 -204l203 -343h-338z" />
    <glyph glyph-name="Lacute" unicode="&#x139;" horiz-adv-x="796" 
d="M69 0l148 714h282l-109 -522h437l-39 -192h-719zM485 778h-241l121 144h303z" />
    <glyph glyph-name="lacute" unicode="&#x13a;" horiz-adv-x="370" 
d="M60 0l153 739h250l-153 -739h-250zM459 778h-241l121 144h303z" />
    <glyph glyph-name="Lcommaaccent" unicode="&#x13b;" horiz-adv-x="796" 
d="M69 0l148 714h282l-109 -522h437l-39 -192h-719zM529 -121q-13 -64 -53.5 -89t-150.5 -25l10 48q29 2 45 8t26 21h-106l22 108h222z" />
    <glyph glyph-name="lcommaaccent" unicode="&#x13c;" horiz-adv-x="370" 
d="M60 0l153 739h250l-153 -739h-250zM277 -121q-13 -64 -53.5 -89t-150.5 -25l10 48q29 2 45 8t26 21h-106l22 108h222z" />
    <glyph glyph-name="Lcaron" unicode="&#x13d;" horiz-adv-x="796" 
d="M69 0l148 714h282l-109 -522h437l-39 -192h-719zM564 577l63 162h237l-118 -162h-182z" />
    <glyph glyph-name="lcaron" unicode="&#x13e;" horiz-adv-x="586" 
d="M60 0l153 739h250l-153 -739h-250zM478 577l63 162h237l-118 -162h-182z" />
    <glyph glyph-name="Ldot" unicode="&#x13f;" horiz-adv-x="796" 
d="M69 0l148 714h282l-109 -522h437l-39 -192h-719zM531 357l39 190h161l-39 -190h-161z" />
    <glyph glyph-name="ldot" unicode="&#x140;" horiz-adv-x="581" 
d="M60 0l153 739h250l-153 -739h-250zM475 354l40 193h154l-40 -193h-154z" />
    <glyph glyph-name="Lslash" unicode="&#x141;" horiz-adv-x="796" 
d="M69 0l39 191l-76 -41l33 162l77 41l75 361h282l-43 -205l188 99l-34 -162l-187 -99l-33 -155h437l-39 -192h-719z" />
    <glyph glyph-name="lslash" unicode="&#x142;" horiz-adv-x="370" 
d="M60 0l47 229l-68 -37l32 150l67 37l75 360h250l-44 -213l68 37l-32 -150l-67 -37l-78 -376h-250z" />
    <glyph glyph-name="Nacute" unicode="&#x143;" horiz-adv-x="1019" 
d="M641 0l-217 400h-2l-83 -400h-270l148 714h322l204 -396h3l82 396h270l-148 -714h-309zM783 778h-241l121 144h303z" />
    <glyph glyph-name="nacute" unicode="&#x144;" horiz-adv-x="832" 
d="M522 0l54 262q8 36 8 57q0 29 -20.5 46t-58.5 17q-113 0 -144 -137l-51 -245h-250l113 547h242l-14 -68h2q39 37 105 60t138 23q99 0 151.5 -41t52.5 -116q0 -27 -5 -52l-73 -353h-250zM645 608h-241l121 144h303z" />
    <glyph glyph-name="Ncommaaccent" unicode="&#x145;" horiz-adv-x="1019" 
d="M641 0l-217 400h-2l-83 -400h-270l148 714h322l204 -396h3l82 396h270l-148 -714h-309zM605 -121q-13 -64 -53.5 -89t-150.5 -25l10 48q29 2 45 8t26 21h-106l22 108h222z" />
    <glyph glyph-name="ncommaaccent" unicode="&#x146;" horiz-adv-x="832" 
d="M522 0l54 262q8 36 8 57q0 29 -20.5 46t-58.5 17q-113 0 -144 -137l-51 -245h-250l113 547h242l-14 -68h2q39 37 105 60t138 23q99 0 151.5 -41t52.5 -116q0 -27 -5 -52l-73 -353h-250zM506 -121q-13 -64 -53.5 -89t-150.5 -25l10 48q29 2 45 8t26 21h-106l22 108h222z
" />
    <glyph glyph-name="Ncaron" unicode="&#x147;" horiz-adv-x="1019" 
d="M641 0l-217 400h-2l-83 -400h-270l148 714h322l204 -396h3l82 396h270l-148 -714h-309zM835 778h-358l-124 144h278l53 -76l83 76h253z" />
    <glyph glyph-name="ncaron" unicode="&#x148;" horiz-adv-x="832" 
d="M522 0l54 262q8 36 8 57q0 29 -20.5 46t-58.5 17q-113 0 -144 -137l-51 -245h-250l113 547h242l-14 -68h2q39 37 105 60t138 23q99 0 151.5 -41t52.5 -116q0 -27 -5 -52l-73 -353h-250zM704 608h-358l-124 144h278l53 -76l83 76h253z" />
    <glyph glyph-name="Eng" unicode="&#x14a;" horiz-adv-x="1019" 
d="M557 -33q48 0 72.5 8.5t35.5 24.5h-24l-217 400h-2l-83 -400h-270l148 714h322l204 -396h3l82 396h270l-135 -649q-28 -136 -124 -203t-276 -67q-27 0 -41 1z" />
    <glyph glyph-name="eng" unicode="&#x14b;" horiz-adv-x="832" 
d="M392 -205l35 167q48 0 71.5 20.5t33.5 66.5l47 227q5 29 5 43q0 31 -21.5 47t-57.5 16q-55 0 -93 -35.5t-49 -89.5l-53 -257h-250l113 547h242l-14 -68h2q41 39 108 61t135 22q100 0 152 -42t52 -115q0 -27 -5 -52l-64 -309q-26 -128 -114.5 -188.5t-244.5 -60.5h-30z
" />
    <glyph glyph-name="Omacron" unicode="&#x14c;" horiz-adv-x="1038" 
d="M93 252q0 105 42.5 207t111 161t166.5 89t271 30q220 0 314.5 -71t94.5 -207q-1 -106 -43 -207.5t-111.5 -160t-168 -88.5t-257.5 -30q-233 0 -326.5 70t-93.5 207zM634 559q-57 0 -98.5 -18t-64.5 -44t-38.5 -58.5t-25.5 -70t-11 -80.5q0 -133 155 -133
q127 0 182.5 86.5t55.5 182.5q0 135 -155 135zM392 784l32 132h570l-33 -132h-569z" />
    <glyph glyph-name="omacron" unicode="&#x14d;" 
d="M77 195q0 74 33.5 156.5t97 129.5t150.5 67.5t195 20.5q181 0 266.5 -52.5t85.5 -162.5q0 -94 -45.5 -187.5t-151 -141t-278.5 -47.5q-183 0 -268 52.5t-85 164.5zM518 407q-58 0 -96 -21.5t-58 -64.5t-20 -86q0 -49 28.5 -72t91.5 -23q95 0 135 53t40 124q0 45 -29 67.5
t-92 22.5zM274 614l32 132h570l-33 -132h-569z" />
    <glyph glyph-name="Obreve" unicode="&#x14e;" horiz-adv-x="1038" 
d="M93 252q0 105 42.5 207t111 161t166.5 89t271 30q220 0 314.5 -71t94.5 -207q-1 -106 -43 -207.5t-111.5 -160t-168 -88.5t-257.5 -30q-233 0 -326.5 70t-93.5 207zM634 559q-57 0 -98.5 -18t-64.5 -44t-38.5 -58.5t-25.5 -70t-11 -80.5q0 -133 155 -133
q127 0 182.5 86.5t55.5 182.5q0 135 -155 135zM933 929q-35 -89 -97.5 -123t-174.5 -34q-118 0 -164 37.5t-46 114.5v5h132q2 -25 21.5 -34t78.5 -9q49 0 75.5 9t42.5 34h132z" />
    <glyph glyph-name="obreve" unicode="&#x14f;" 
d="M77 195q0 74 33.5 156.5t97 129.5t150.5 67.5t195 20.5q181 0 266.5 -52.5t85.5 -162.5q0 -94 -45.5 -187.5t-151 -141t-278.5 -47.5q-183 0 -268 52.5t-85 164.5zM518 407q-58 0 -96 -21.5t-58 -64.5t-20 -86q0 -49 28.5 -72t91.5 -23q95 0 135 53t40 124q0 45 -29 67.5
t-92 22.5zM813 759q-36 -89 -97.5 -123t-174.5 -34q-118 0 -164 37.5t-46 114.5v5h132q2 -25 22.5 -34t77.5 -9q51 0 76.5 9t41.5 34h132z" />
    <glyph glyph-name="Ohungarumlaut" unicode="&#x150;" horiz-adv-x="1038" 
d="M93 252q0 105 42.5 207t111 161t166.5 89t271 30q220 0 314.5 -71t94.5 -207q-1 -106 -43 -207.5t-111.5 -160t-168 -88.5t-257.5 -30q-233 0 -326.5 70t-93.5 207zM634 559q-57 0 -98.5 -18t-64.5 -44t-38.5 -58.5t-25.5 -70t-11 -80.5q0 -133 155 -133
q127 0 182.5 86.5t55.5 182.5q0 135 -155 135zM618 778h-240l120 144h303zM978 778h-241l121 144h303z" />
    <glyph glyph-name="ohungarumlaut" unicode="&#x151;" 
d="M77 195q0 74 33.5 156.5t97 129.5t150.5 67.5t195 20.5q181 0 266.5 -52.5t85.5 -162.5q0 -94 -45.5 -187.5t-151 -141t-278.5 -47.5q-183 0 -268 52.5t-85 164.5zM518 407q-58 0 -96 -21.5t-58 -64.5t-20 -86q0 -49 28.5 -72t91.5 -23q95 0 135 53t40 124q0 45 -29 67.5
t-92 22.5zM499 608h-240l120 144h303zM859 608h-241l121 144h303z" />
    <glyph glyph-name="OE" unicode="&#x152;" horiz-adv-x="1166" 
d="M566 0l8 41q-38 -30 -90.5 -48t-118.5 -18q-129 0 -201.5 66.5t-72.5 192.5q0 113 49 238.5t149 196t234 70.5q65 0 111.5 -18.5t69.5 -49.5l9 43h572l-36 -174h-330l-20 -96h317l-36 -174h-317l-20 -96h335l-36 -174h-576zM650 409q4 20 6.5 35t2.5 23q0 42 -26.5 67
t-69.5 25q-60 0 -101 -38t-64 -120t-23 -133q0 -55 26 -84t79 -29q52 0 92 34t54 100z" />
    <glyph glyph-name="oe" unicode="&#x153;" horiz-adv-x="1166" 
d="M729 217q0 -4 -1 -18q0 -42 25 -62.5t73 -20.5q33 0 56.5 8t48.5 40h237q-48 -90 -136.5 -138t-223.5 -48q-78 0 -128 18t-80 56q-42 -34 -102.5 -54t-137.5 -20q-138 0 -210 57t-72 161q0 91 45 183t137 141t224 49q76 0 125.5 -16t85.5 -47q49 35 104 49t118 14
q140 -1 210.5 -59.5t70.5 -168.5q0 -34 -5.5 -65t-11.5 -59h-452zM979 331l1 13q0 39 -26 63t-68 24q-43 0 -81 -27t-53 -73h227zM470 413q-44 0 -78.5 -25t-52.5 -77t-18 -91q0 -41 23.5 -63.5t68.5 -22.5q47 0 78.5 24t50 72t18.5 92t-23 67.5t-67 23.5z" />
    <glyph glyph-name="Racute" unicode="&#x154;" horiz-adv-x="962" 
d="M639 0q-3 7 -3 19t3 33l12 82q3 19 3 27q0 31 -15 45t-41 14h-202l-45 -220h-282l148 714h611q127 0 169.5 -43.5t42.5 -113.5q-1 -72 -43 -131.5t-105 -73.5l-1 -2q59 -19 59 -88q0 -10 -3 -35l-15 -119q-3 -35 -3 -53q0 -16 6.5 -32.5t11.5 -22.5h-308zM462 534
l-28 -134h205q46 0 67.5 24t21.5 63q0 26 -18 36.5t-48 10.5h-200zM724 778h-241l121 144h303z" />
    <glyph glyph-name="racute" unicode="&#x155;" horiz-adv-x="630" 
d="M60 0l113 547h242l-22 -105h2q64 64 128 92t130 28q40 0 81 -6l-46 -224l-42 10q-39 10 -79 10q-87 0 -143.5 -37t-71.5 -111l-42 -204h-250zM513 608h-241l121 144h303z" />
    <glyph glyph-name="Rcommaaccent" unicode="&#x156;" horiz-adv-x="962" 
d="M639 0q-3 7 -3 19t3 33l12 82q3 19 3 27q0 31 -15 45t-41 14h-202l-45 -220h-282l148 714h611q127 0 169.5 -43.5t42.5 -113.5q-1 -72 -43 -131.5t-105 -73.5l-1 -2q59 -19 59 -88q0 -10 -3 -35l-15 -119q-3 -35 -3 -53q0 -16 6.5 -32.5t11.5 -22.5h-308zM462 534
l-28 -134h205q46 0 67.5 24t21.5 63q0 26 -18 36.5t-48 10.5h-200zM592 -121q-13 -64 -53.5 -89t-150.5 -25l10 48q29 2 45 8t26 21h-106l22 108h222z" />
    <glyph glyph-name="rcommaaccent" unicode="&#x157;" horiz-adv-x="630" 
d="M60 0l113 547h242l-22 -105h2q64 64 128 92t130 28q40 0 81 -6l-46 -224l-42 10q-39 10 -79 10q-87 0 -143.5 -37t-71.5 -111l-42 -204h-250zM277 -121q-13 -64 -53.5 -89t-150.5 -25l10 48q29 2 45 8t26 21h-106l22 108h222z" />
    <glyph glyph-name="Rcaron" unicode="&#x158;" horiz-adv-x="962" 
d="M639 0q-3 7 -3 19t3 33l12 82q3 19 3 27q0 31 -15 45t-41 14h-202l-45 -220h-282l148 714h611q127 0 169.5 -43.5t42.5 -113.5q-1 -72 -43 -131.5t-105 -73.5l-1 -2q59 -19 59 -88q0 -10 -3 -35l-15 -119q-3 -35 -3 -53q0 -16 6.5 -32.5t11.5 -22.5h-308zM462 534
l-28 -134h205q46 0 67.5 24t21.5 63q0 26 -18 36.5t-48 10.5h-200zM780 778h-358l-124 144h278l53 -76l83 76h253z" />
    <glyph glyph-name="rcaron" unicode="&#x159;" horiz-adv-x="630" 
d="M60 0l113 547h242l-22 -105h2q64 64 128 92t130 28q40 0 81 -6l-46 -224l-42 10q-39 10 -79 10q-87 0 -143.5 -37t-71.5 -111l-42 -204h-250zM614 608h-358l-124 144h278l53 -76l83 76h253z" />
    <glyph glyph-name="Sacute" unicode="&#x15a;" horiz-adv-x="962" 
d="M682 505q2 4 2 15q0 26 -32 41.5t-87 15.5q-65 0 -94 -16t-29 -44q0 -14 8 -20t22 -8l327 -50q94 -15 142.5 -56.5t48.5 -108.5q0 -81 -51.5 -152.5t-165.5 -109t-300 -37.5q-111 0 -190 12t-126 36q-95 50 -95 143q0 22 6 49h340v-16q0 -27 26 -38.5t86 -11.5
q64 0 95 16.5t31 49.5t-45 40l-302 47q-86 13 -126 52t-40 103q0 69 41.5 135.5t141 106t284.5 40.5q103 0 180.5 -12t126.5 -35q105 -48 105 -154q0 -11 -2 -33h-328zM724 778h-241l121 144h303z" />
    <glyph glyph-name="sacute" unicode="&#x15b;" horiz-adv-x="815" 
d="M561 383q1 3 1 9q0 21 -23 30t-61 9q-53 0 -75.5 -11.5t-22.5 -30.5q0 -14 16 -20.5t49 -9.5l228 -20q73 -6 115.5 -36t42.5 -87q0 -69 -41 -125.5t-135.5 -84.5t-254.5 -28q-183 0 -263.5 36.5t-80.5 122.5q0 9 3 33h294v-6q0 -30 24 -39t67 -9q47 0 69.5 12.5
t22.5 38.5q0 11 -6.5 17t-23.5 8l-232 24q-86 9 -124 38t-38 78q0 122 100.5 179.5t307.5 57.5q167 0 246.5 -39.5t79.5 -115.5q0 -11 -3 -31h-282zM626 608h-241l121 144h303z" />
    <glyph glyph-name="Scircumflex" unicode="&#x15c;" horiz-adv-x="962" 
d="M682 505q2 4 2 15q0 26 -32 41.5t-87 15.5q-65 0 -94 -16t-29 -44q0 -14 8 -20t22 -8l327 -50q94 -15 142.5 -56.5t48.5 -108.5q0 -81 -51.5 -152.5t-165.5 -109t-300 -37.5q-111 0 -190 12t-126 36q-95 50 -95 143q0 22 6 49h340v-16q0 -27 26 -38.5t86 -11.5
q64 0 95 16.5t31 49.5t-45 40l-302 47q-86 13 -126 52t-40 103q0 69 41.5 135.5t141 106t284.5 40.5q103 0 180.5 -12t126.5 -35q105 -48 105 -154q0 -11 -2 -33h-328zM673 778l-52 76l-84 -76h-252l184 144h358l125 -144h-279z" />
    <glyph glyph-name="scircumflex" unicode="&#x15d;" horiz-adv-x="815" 
d="M561 383q1 3 1 9q0 21 -23 30t-61 9q-53 0 -75.5 -11.5t-22.5 -30.5q0 -14 16 -20.5t49 -9.5l228 -20q73 -6 115.5 -36t42.5 -87q0 -69 -41 -125.5t-135.5 -84.5t-254.5 -28q-183 0 -263.5 36.5t-80.5 122.5q0 9 3 33h294v-6q0 -30 24 -39t67 -9q47 0 69.5 12.5
t22.5 38.5q0 11 -6.5 17t-23.5 8l-232 24q-86 9 -124 38t-38 78q0 122 100.5 179.5t307.5 57.5q167 0 246.5 -39.5t79.5 -115.5q0 -11 -3 -31h-282zM588 608l-52 76l-84 -76h-252l184 144h358l125 -144h-279z" />
    <glyph glyph-name="Scedilla" unicode="&#x15e;" horiz-adv-x="962" 
d="M502 -47q15 4 48 4q40 0 64 -18t24 -48q0 -24 -13.5 -50.5t-50.5 -43.5t-106 -17q-36 0 -76.5 4.5t-73.5 15.5l26 54q38 -11 74 -11q32 0 44 9.5t12 23.5q0 19 -31 19q-16 0 -36 -8l-22 21l57 67q-202 2 -290.5 51t-88.5 140q0 23 5 49h340l-1 -13q0 -27 25 -40t88 -13
q64 0 95 16.5t31 49.5t-45 40l-302 47q-86 13 -126 52t-40 103q0 70 42 136.5t144 106t281 39.5q103 0 180.5 -12t126.5 -35q105 -48 105 -154q0 -13 -2 -33h-328q2 4 2 15q0 26 -32 41.5t-87 15.5q-64 0 -93.5 -16t-29.5 -44q0 -14 8 -20t22 -8l327 -50q94 -15 142.5 -56.5
t48.5 -108.5q0 -82 -53.5 -153.5t-155.5 -106t-261 -38.5z" />
    <glyph glyph-name="scedilla" unicode="&#x15f;" horiz-adv-x="815" 
d="M420 -47q12 2 25 3t24 1q39 0 63.5 -17.5t24.5 -48.5q0 -27 -16 -52.5t-53 -42t-94 -16.5q-44 0 -84 4.5t-74 15.5l26 54q38 -11 75 -11q32 0 43.5 10t11.5 23q0 8 -7.5 13.5t-22.5 5.5q-7 0 -16 -1.5t-21 -6.5l-22 21l60 70q-159 4 -233 39.5t-74 119.5q0 11 3 33h294
v-6q0 -29 22.5 -38.5t68.5 -9.5q51 0 71.5 14t20.5 37q0 11 -6 17t-23 8l-230 24q-86 9 -125.5 38t-39.5 77q0 124 101 181t307 57q165 0 245.5 -39.5t80.5 -115.5q0 -11 -3 -31h-282q1 4 1 9q0 21 -23 30t-61 9q-54 0 -76 -11.5t-22 -30.5q0 -14 15.5 -20.5t48.5 -9.5
l233 -21q73 -7 113.5 -36t40.5 -86q0 -68 -38.5 -123.5t-123.5 -83t-229 -30.5z" />
    <glyph glyph-name="Scaron" unicode="&#x160;" horiz-adv-x="962" 
d="M682 505q2 4 2 15q0 26 -32 41.5t-87 15.5q-65 0 -94 -16t-29 -44q0 -14 8 -20t22 -8l327 -50q94 -15 142.5 -56.5t48.5 -108.5q0 -81 -51.5 -152.5t-165.5 -109t-300 -37.5q-111 0 -190 12t-126 36q-95 50 -95 143q0 22 6 49h340v-16q0 -27 26 -38.5t86 -11.5
q64 0 95 16.5t31 49.5t-45 40l-302 47q-86 13 -126 52t-40 103q0 69 41.5 135.5t141 106t284.5 40.5q103 0 180.5 -12t126.5 -35q105 -48 105 -154q0 -11 -2 -33h-328zM771 778h-358l-124 144h278l53 -76l83 76h253z" />
    <glyph glyph-name="scaron" unicode="&#x161;" horiz-adv-x="815" 
d="M561 383q1 3 1 9q0 21 -23 30t-61 9q-53 0 -75.5 -11.5t-22.5 -30.5q0 -14 16 -20.5t49 -9.5l228 -20q73 -6 115.5 -36t42.5 -87q0 -69 -41 -125.5t-135.5 -84.5t-254.5 -28q-183 0 -263.5 36.5t-80.5 122.5q0 9 3 33h294v-6q0 -30 24 -39t67 -9q47 0 69.5 12.5
t22.5 38.5q0 11 -6.5 17t-23.5 8l-232 24q-86 9 -124 38t-38 78q0 122 100.5 179.5t307.5 57.5q167 0 246.5 -39.5t79.5 -115.5q0 -11 -3 -31h-282zM686 608h-358l-124 144h278l53 -76l83 76h253z" />
    <glyph glyph-name="Tcommaaccent" unicode="&#x162;" horiz-adv-x="796" 
d="M257 0l111 534h-261l37 180h804l-37 -180h-261l-111 -534h-282zM490 -121q-13 -64 -53.5 -89t-150.5 -25l10 48q29 2 45 8t26 21h-106l22 108h222z" />
    <glyph glyph-name="tcommaaccent" unicode="&#x163;" horiz-adv-x="537" 
d="M517 0q-33 -5 -79 -8.5t-105 -3.5q-78 0 -110.5 9.5t-52.5 32t-20 63.5q0 35 9 72l47 226h-116l32 156h116l37 176h250l-37 -176h135l-32 -156h-135l-38 -185q-5 -27 -5 -31q0 -17 12 -24t42 -7q50 0 80 2zM431 -121q-13 -64 -53.5 -89t-150.5 -25l10 48q29 2 45 8t26 21
h-106l22 108h222z" />
    <glyph glyph-name="Tcaron" unicode="&#x164;" horiz-adv-x="796" 
d="M257 0l111 534h-261l37 180h804l-37 -180h-261l-111 -534h-282zM712 778h-358l-124 144h278l53 -76l83 76h253z" />
    <glyph glyph-name="tcaron" unicode="&#x165;" horiz-adv-x="723" 
d="M517 0q-33 -5 -79 -8.5t-105 -3.5q-78 0 -110.5 9.5t-52.5 32t-20 63.5q0 35 9 72l47 226h-116l32 156h116l37 176h250l-37 -176h135l-32 -156h-135l-38 -185q-5 -27 -5 -31q0 -17 12 -24t42 -7q50 0 80 2zM617 577l63 162h237l-118 -162h-182z" />
    <glyph glyph-name="Tbar" unicode="&#x166;" horiz-adv-x="796" 
d="M257 0l67 324h-145l22 102h144l23 108h-261l37 180h804l-37 -180h-261l-23 -108h144l-23 -102h-142l-67 -324h-282z" />
    <glyph glyph-name="tbar" unicode="&#x167;" horiz-adv-x="537" 
d="M517 0q-33 -5 -79 -8.5t-105 -3.5q-76 0 -110 9.5t-53.5 32.5t-19.5 63q0 37 23 139h-128l22 102h127l14 67h-116l30 146h116l37 176h250l-37 -176h135l-30 -146h-135l-14 -67h146l-23 -102h-144q-8 -36 -10 -57q0 -19 13.5 -25t35.5 -6q49 0 85 2z" />
    <glyph glyph-name="Utilde" unicode="&#x168;" horiz-adv-x="962" 
d="M774 714h282l-92 -443q-23 -112 -82 -176.5t-154 -92t-253 -27.5q-135 0 -212 19t-120 65.5t-43 125.5q0 40 9 82l93 447h282l-87 -418q-7 -34 -7 -51q0 -42 28.5 -63t95.5 -21q78 0 118 29.5t52 91.5zM964 919q-32 -75 -79 -115.5t-104 -40.5q-30 0 -141.5 24t-134.5 24
q-16 0 -26.5 -8t-19.5 -21h-106q35 73 83.5 114t109.5 41q28 0 138 -24q111 -24 126 -24q14 0 26 6.5t22 23.5h106z" />
    <glyph glyph-name="utilde" unicode="&#x169;" horiz-adv-x="832" 
d="M530 0l12 61h-2q-40 -38 -106.5 -60.5t-136.5 -22.5q-102 0 -153 42t-51 117q0 26 7 60l73 350h250l-60 -290q-4 -15 -4 -32q0 -67 79 -67q61 0 96 33t48 98l53 258h250l-113 -547h-242zM862 749q-32 -75 -79 -115.5t-104 -40.5q-30 0 -141.5 24t-134.5 24
q-16 0 -26.5 -8t-19.5 -21h-106q35 73 83.5 114t109.5 41q25 0 138 -24q108 -24 126 -24q14 0 26 6.5t22 23.5h106z" />
    <glyph glyph-name="Umacron" unicode="&#x16a;" horiz-adv-x="962" 
d="M774 714h282l-92 -443q-23 -112 -82 -176.5t-154 -92t-253 -27.5q-135 0 -212 19t-120 65.5t-43 125.5q0 40 9 82l93 447h282l-87 -418q-7 -34 -7 -51q0 -42 28.5 -63t95.5 -21q78 0 118 29.5t52 91.5zM352 784l32 132h570l-33 -132h-569z" />
    <glyph glyph-name="umacron" unicode="&#x16b;" horiz-adv-x="832" 
d="M530 0l12 61h-2q-40 -38 -106.5 -60.5t-136.5 -22.5q-102 0 -153 42t-51 117q0 26 7 60l73 350h250l-60 -290q-4 -15 -4 -32q0 -67 79 -67q61 0 96 33t48 98l53 258h250l-113 -547h-242zM254 614l32 132h570l-33 -132h-569z" />
    <glyph glyph-name="Ubreve" unicode="&#x16c;" horiz-adv-x="962" 
d="M774 714h282l-92 -443q-23 -112 -82 -176.5t-154 -92t-253 -27.5q-135 0 -212 19t-120 65.5t-43 125.5q0 40 9 82l93 447h282l-87 -418q-7 -34 -7 -51q0 -42 28.5 -63t95.5 -21q78 0 118 29.5t52 91.5zM900 929q-35 -89 -97.5 -123t-174.5 -34q-118 0 -164 37.5
t-46 114.5v5h132q2 -25 21.5 -34t78.5 -9q49 0 75.5 9t42.5 34h132z" />
    <glyph glyph-name="ubreve" unicode="&#x16d;" horiz-adv-x="832" 
d="M530 0l12 61h-2q-40 -38 -106.5 -60.5t-136.5 -22.5q-102 0 -153 42t-51 117q0 26 7 60l73 350h250l-60 -290q-4 -15 -4 -32q0 -67 79 -67q61 0 96 33t48 98l53 258h250l-113 -547h-242zM797 759q-36 -89 -97.5 -123t-174.5 -34q-118 0 -164 37.5t-46 114.5v5h132
q2 -25 22.5 -34t77.5 -9q51 0 76.5 9t41.5 34h132z" />
    <glyph glyph-name="Uring" unicode="&#x16e;" horiz-adv-x="962" 
d="M774 714h282l-92 -443q-23 -112 -82 -176.5t-154 -92t-253 -27.5q-135 0 -212 19t-120 65.5t-43 125.5q0 40 9 82l93 447h282l-87 -418q-7 -34 -7 -51q0 -42 28.5 -63t95.5 -21q78 0 118 29.5t52 91.5zM506 850q0 65 51 113t121 48q48 0 79 -27t31 -78
q0 -58 -46.5 -107.5t-118.5 -49.5q-53 0 -85 28t-32 73zM586 866q0 -19 13 -32.5t36 -13.5q27 0 50.5 21.5t23.5 50.5q0 20 -13.5 34t-35.5 14q-28 0 -51 -22.5t-23 -51.5z" />
    <glyph glyph-name="uring" unicode="&#x16f;" horiz-adv-x="832" 
d="M530 0l12 61h-2q-40 -38 -106.5 -60.5t-136.5 -22.5q-102 0 -153 42t-51 117q0 26 7 60l73 350h250l-60 -290q-4 -15 -4 -32q0 -67 79 -67q61 0 96 33t48 98l53 258h250l-113 -547h-242zM412 679q0 66 50.5 113.5t121.5 48.5q48 0 79 -27t31 -78q0 -58 -46.5 -107.5
t-118.5 -49.5q-56 0 -86.5 29t-30.5 71zM492 696q0 -19 13 -32.5t36 -13.5q28 0 51 21.5t23 50.5q0 20 -13.5 34t-35.5 14q-28 0 -51 -22.5t-23 -51.5z" />
    <glyph glyph-name="Uhungarumlaut" unicode="&#x170;" horiz-adv-x="962" 
d="M774 714h282l-92 -443q-23 -112 -82 -176.5t-154 -92t-253 -27.5q-135 0 -212 19t-120 65.5t-43 125.5q0 40 9 82l93 447h282l-87 -418q-7 -34 -7 -51q0 -42 28.5 -63t95.5 -21q78 0 118 29.5t52 91.5zM572 778h-240l120 144h303zM932 778h-241l121 144h303z" />
    <glyph glyph-name="uhungarumlaut" unicode="&#x171;" horiz-adv-x="832" 
d="M530 0l12 61h-2q-40 -38 -106.5 -60.5t-136.5 -22.5q-102 0 -153 42t-51 117q0 26 7 60l73 350h250l-60 -290q-4 -15 -4 -32q0 -67 79 -67q61 0 96 33t48 98l53 258h250l-113 -547h-242zM476 608h-240l120 144h303zM836 608h-241l121 144h303z" />
    <glyph glyph-name="Uogonek" unicode="&#x172;" horiz-adv-x="962" 
d="M592 -197q-77 -23 -157 -23q-56 0 -84.5 18.5t-28.5 52.5q0 31 21 59t92 66q-174 4 -254.5 51t-80.5 158q0 33 11 91l91 438h282l-87 -418q-7 -32 -7 -51q0 -43 28.5 -63.5t95.5 -20.5q77 0 117 29t53 92l90 432h282l-92 -444q-19 -90 -63.5 -152t-117.5 -95t-212 -45
l-37 -29q-46 -37 -46 -68q0 -29 35 -30q31 0 75 12z" />
    <glyph glyph-name="uogonek" unicode="&#x173;" horiz-adv-x="832" 
d="M663 -197q-78 -23 -158 -23q-55 0 -83.5 18.5t-28.5 52.5q0 38 32 74t105 75l12 61h-2q-44 -40 -109.5 -61.5t-133.5 -21.5q-103 0 -153.5 42t-50.5 117q0 22 7 60l73 350h250l-60 -290q-4 -16 -4 -32q0 -67 79 -67q60 0 95.5 33.5t48.5 97.5l53 258h250l-113 -547h-114
q-52 -38 -75.5 -67.5t-23.5 -51.5q0 -14 9.5 -22t26.5 -8q14 0 33 3t41 9z" />
    <glyph glyph-name="Wcircumflex" unicode="&#x174;" horiz-adv-x="1166" 
d="M681 0l-15 396h-2l-180 -396h-277l-60 714h274v-436h2l196 436h225l13 -436h2l183 436h273l-357 -714h-277zM808 778l-52 76l-84 -76h-252l184 144h358l125 -144h-279z" />
    <glyph glyph-name="wcircumflex" unicode="&#x175;" horiz-adv-x="1166" 
d="M689 0l-47 286l-165 -286h-291l-73 547h267l22 -323h2l186 323h212l42 -323h2l166 323h267l-299 -547h-291zM773 608l-52 76l-84 -76h-252l184 144h358l125 -144h-279z" />
    <glyph glyph-name="Ycircumflex" unicode="&#x176;" horiz-adv-x="832" 
d="M275 0l41 201l-210 513h322l78 -280l194 280h322l-424 -513l-41 -201h-282zM643 778l-52 76l-84 -76h-252l184 144h358l125 -144h-279z" />
    <glyph glyph-name="ycircumflex" unicode="&#x177;" horiz-adv-x="722" 
d="M420 -86q-44 -64 -87 -87t-136 -23q-44 0 -101 3.5t-72 5.5l33 162q46 -3 66 -3q33 0 46.5 2.5t26.5 13t28 32.5l17 24l-150 503h262l63 -281l179 281h262zM557 608l-52 76l-84 -76h-252l184 144h358l125 -144h-279z" />
    <glyph glyph-name="Ydieresis" unicode="&#x178;" horiz-adv-x="832" 
d="M275 0l41 201l-210 513h322l78 -280l194 280h322l-424 -513l-41 -201h-282zM288 784l26 132h242l-27 -132h-241zM607 784l27 132h242l-27 -132h-242z" />
    <glyph glyph-name="Zacute" unicode="&#x179;" horiz-adv-x="852" 
d="M22 0l31 151l508 383h-399l37 180h779l-32 -156l-497 -378h407l-37 -180h-797zM697 778h-241l121 144h303z" />
    <glyph glyph-name="zacute" unicode="&#x17a;" horiz-adv-x="704" 
d="M25 0l28 138l359 239v2h-291l35 168h627l-30 -144l-340 -227v-2h302l-36 -174h-654zM585 608h-241l121 144h303z" />
    <glyph glyph-name="Zdotaccent" unicode="&#x17b;" horiz-adv-x="852" 
d="M22 0l31 151l508 383h-399l37 180h779l-32 -156l-497 -378h407l-37 -180h-797zM468 784l27 132h242l-27 -132h-242z" />
    <glyph glyph-name="zdotaccent" unicode="&#x17c;" horiz-adv-x="704" 
d="M25 0l28 138l359 239v2h-291l35 168h627l-30 -144l-340 -227v-2h302l-36 -174h-654zM353 614l27 132h242l-27 -132h-242z" />
    <glyph glyph-name="Zcaron" unicode="&#x17d;" horiz-adv-x="852" 
d="M22 0l31 151l508 383h-399l37 180h779l-32 -156l-497 -378h407l-37 -180h-797zM756 778h-358l-124 144h278l53 -76l83 76h253z" />
    <glyph glyph-name="zcaron" unicode="&#x17e;" horiz-adv-x="704" 
d="M25 0l28 138l359 239v2h-291l35 168h627l-30 -144l-340 -227v-2h302l-36 -174h-654zM645 608h-358l-124 144h278l53 -76l83 76h253z" />
    <glyph glyph-name="florin" unicode="&#x192;" horiz-adv-x="600" 
d="M478 291l-138 -332q-35 -83 -95 -119t-181 -36q-24 0 -64.5 1.5t-84.5 4.5l61 147q16 -3 36 -3q33 0 48.5 6t25.5 18.5t25 48.5l111 264h-108l51 126h109l69 164q31 75 97 104t182 29q46 0 130 -9l-58 -144q-35 3 -49 3q-31 0 -48 -13.5t-29 -42.5l-38 -91h103l-52 -126
h-103z" />
    <glyph glyph-name="Scommaaccent" unicode="&#x218;" horiz-adv-x="962" 
d="M682 505q2 4 2 15q0 26 -32 41.5t-87 15.5q-65 0 -94 -16t-29 -44q0 -14 8 -20t22 -8l327 -50q94 -15 142.5 -56.5t48.5 -108.5q0 -81 -51.5 -152.5t-165.5 -109t-300 -37.5q-111 0 -190 12t-126 36q-95 50 -95 143q0 22 6 49h340v-16q0 -27 26 -38.5t86 -11.5
q64 0 95 16.5t31 49.5t-45 40l-302 47q-86 13 -126 52t-40 103q0 69 41.5 135.5t141 106t284.5 40.5q103 0 180.5 -12t126.5 -35q105 -48 105 -154q0 -11 -2 -33h-328zM579 -121q-13 -64 -53.5 -89t-150.5 -25l10 48q29 2 45 8t26 21h-106l22 108h222z" />
    <glyph glyph-name="scommaaccent" unicode="&#x219;" horiz-adv-x="815" 
d="M561 383q1 3 1 9q0 21 -23 30t-61 9q-53 0 -75.5 -11.5t-22.5 -30.5q0 -14 16 -20.5t49 -9.5l228 -20q73 -6 115.5 -36t42.5 -87q0 -69 -41 -125.5t-135.5 -84.5t-254.5 -28q-183 0 -263.5 36.5t-80.5 122.5q0 9 3 33h294v-6q0 -30 24 -39t67 -9q47 0 69.5 12.5
t22.5 38.5q0 11 -6.5 17t-23.5 8l-232 24q-86 9 -124 38t-38 78q0 122 100.5 179.5t307.5 57.5q167 0 246.5 -39.5t79.5 -115.5q0 -11 -3 -31h-282zM504 -121q-13 -64 -53.5 -89t-150.5 -25l10 48q29 2 45 8t26 21h-106l22 108h222z" />
    <glyph glyph-name="uni021A" unicode="&#x21a;" horiz-adv-x="796" 
d="M257 0l111 534h-261l37 180h804l-37 -180h-261l-111 -534h-282zM490 -121q-13 -64 -53.5 -89t-150.5 -25l10 48q29 2 45 8t26 21h-106l22 108h222z" />
    <glyph glyph-name="uni021B" unicode="&#x21b;" horiz-adv-x="537" 
d="M517 0q-33 -5 -79 -8.5t-105 -3.5q-78 0 -110.5 9.5t-52.5 32t-20 63.5q0 35 9 72l47 226h-116l32 156h116l37 176h250l-37 -176h135l-32 -156h-135l-38 -185q-5 -27 -5 -31q0 -17 12 -24t42 -7q50 0 80 2zM431 -121q-13 -64 -53.5 -89t-150.5 -25l10 48q29 2 45 8t26 21
h-106l22 108h222z" />
    <glyph glyph-name="uni0237" unicode="&#x237;" horiz-adv-x="389" 
d="M-28 -16h24q29 0 49 2t29 17t14 43l104 501h250l-112 -540q-17 -80 -46 -122.5t-75 -61.5t-141 -19q-87 0 -132 6z" />
    <glyph glyph-name="circumflex" unicode="&#x2c6;" horiz-adv-x="278" 
d="M318 608l-52 76l-84 -76h-252l184 144h358l125 -144h-279z" />
    <glyph glyph-name="caron" unicode="&#x2c7;" horiz-adv-x="278" 
d="M442 608h-358l-124 144h278l53 -76l83 76h253z" />
    <glyph glyph-name="uni02C9" unicode="&#x2c9;" horiz-adv-x="278" 
d="M118 614l32 132h570l-33 -132h-569z" />
    <glyph glyph-name="breve" unicode="&#x2d8;" horiz-adv-x="278" 
d="M534 759q-36 -89 -97.5 -123t-174.5 -34q-118 0 -164 37.5t-46 114.5v5h132q2 -25 22.5 -34t77.5 -9q51 0 76.5 9t41.5 34h132z" />
    <glyph glyph-name="dotaccent" unicode="&#x2d9;" horiz-adv-x="278" 
d="M144 614l27 132h242l-27 -132h-242z" />
    <glyph glyph-name="ring" unicode="&#x2da;" horiz-adv-x="278" 
d="M150 679q0 66 50.5 113.5t121.5 48.5q48 0 79 -27t31 -78q0 -58 -46.5 -107.5t-118.5 -49.5q-56 0 -86.5 29t-30.5 71zM230 696q0 -19 13 -32.5t36 -13.5q28 0 51 21.5t23 50.5q0 20 -13.5 34t-35.5 14q-28 0 -51 -22.5t-23 -51.5z" />
    <glyph glyph-name="ogonek" unicode="&#x2db;" horiz-adv-x="278" 
d="M479 -197q-77 -23 -158 -23q-55 0 -83.5 18.5t-28.5 52.5q0 40 39 75.5t129 73.5h112q-61 -42 -87.5 -69t-26.5 -50q0 -15 9.5 -22.5t26.5 -7.5q30 0 74 12z" />
    <glyph glyph-name="tilde" unicode="&#x2dc;" horiz-adv-x="278" 
d="M585 749q-32 -75 -79 -115.5t-104 -40.5q-30 0 -141.5 24t-134.5 24q-16 0 -26.5 -8t-19.5 -21h-106q35 73 83.5 114t109.5 41q25 0 138 -24q108 -24 126 -24q14 0 26 6.5t22 23.5h106z" />
    <glyph glyph-name="hungarumlaut" unicode="&#x2dd;" horiz-adv-x="278" 
d="M127 608h-240l120 144h303zM487 608h-241l121 144h303z" />
    <glyph glyph-name="uni0374" unicode="&#x374;" horiz-adv-x="354" 
d="M138 568l69 184h283l-141 -184h-211z" />
    <glyph glyph-name="uni0375" unicode="&#x375;" horiz-adv-x="354" 
d="M-22 -204l141 184h211l-69 -184h-283z" />
    <glyph glyph-name="uni037E" unicode="&#x37e;" horiz-adv-x="408" 
d="M139 323l46 224h262l-46 -224h-262zM48 -114q56 7 91.5 33.5t51.5 80.5h-118l45 224h262l-35 -170q-15 -70 -56.5 -125.5t-111.5 -92t-147 -40.5z" />
    <glyph glyph-name="tonos" unicode="&#x384;" horiz-adv-x="354" 
d="M144 598l72 164h276l-150 -164h-198z" />
    <glyph glyph-name="dieresistonos" unicode="&#x385;" horiz-adv-x="864" 
d="M423 614l72 154h243l-124 -154h-191zM147 614l27 132h242l-27 -132h-242zM729 614l27 132h242l-27 -132h-242z" />
    <glyph glyph-name="Alphatonos" unicode="&#x386;" horiz-adv-x="888" 
d="M621 0l-13 82h-294l-47 -82h-300l452 714h346l156 -714h-300zM548 498h-2l-134 -242h170zM-40 550l72 164h276l-150 -164h-198z" />
    <glyph glyph-name="anoteleia" unicode="&#x387;" horiz-adv-x="408" 
d="M227 113q-48 1 -77.5 31t-29.5 74q1 65 48 110.5t113 46.5q48 -1 77.5 -31t29.5 -74q-1 -64 -47 -110t-114 -47z" />
    <glyph glyph-name="Epsilontonos" unicode="&#x388;" horiz-adv-x="852" 
d="M69 0l148 714h759l-36 -174h-477l-20 -96h443l-36 -174h-443l-20 -96h477l-36 -174h-759zM-198 550l72 164h276l-150 -164h-198z" />
    <glyph glyph-name="Etatonos" unicode="&#x389;" horiz-adv-x="1019" 
d="M668 0l59 285h-317l-59 -285h-282l148 714h282l-52 -249h317l52 249h282l-148 -714h-282zM-198 550l72 164h276l-150 -164h-198z" />
    <glyph glyph-name="Iotatonos" unicode="&#x38a;" horiz-adv-x="426" 
d="M72 0l148 714h282l-148 -714h-282zM-198 550l72 164h276l-150 -164h-198z" />
    <glyph glyph-name="Omicrontonos" unicode="&#x38c;" horiz-adv-x="1038" 
d="M93 252q0 105 42.5 207t111 161t166.5 89t271 30q220 0 314.5 -71t94.5 -207q-1 -106 -43 -207.5t-111.5 -160t-168 -88.5t-257.5 -30q-233 0 -326.5 70t-93.5 207zM634 559q-57 0 -98.5 -18t-64.5 -44t-38.5 -58.5t-25.5 -70t-11 -80.5q0 -133 155 -133
q127 0 182.5 86.5t55.5 182.5q0 135 -155 135zM-92 550l72 164h276l-150 -164h-198z" />
    <glyph glyph-name="Upsilontonos" unicode="&#x38e;" horiz-adv-x="832" 
d="M275 0l41 201l-210 513h322l78 -280l194 280h322l-424 -513l-41 -201h-282zM-298 550l72 164h276l-150 -164h-198z" />
    <glyph glyph-name="Omegatonos" unicode="&#x38f;" horiz-adv-x="1040" 
d="M-91 552l72 164h276l-150 -164h-198zM593 0l43 212q63 31 99.5 90.5t36.5 127.5q0 60 -35.5 94.5t-101.5 34.5q-96 -1 -152.5 -68.5t-57.5 -155.5q0 -42 17 -73t48 -50l-43 -212h-391l33 162h151l3 13q-50 16 -79 58.5t-29 107.5q0 109 64 203t189 144.5t285 50.5
q185 0 294 -69t109 -193q-1 -108 -59 -192.5t-148 -109.5l-3 -13h151l-33 -162h-391z" />
    <glyph glyph-name="iotadieresistonos" unicode="&#x390;" horiz-adv-x="442" 
d="M427 0q-69 -9 -95.5 -10.5t-65.5 -1.5q-103 0 -140.5 28t-37.5 92q0 30 9 72l76 367h250l-72 -348q-2 -14 -2 -19q0 -18 13 -27t50 -9q34 1 45 2zM213 614l72 154h243l-124 -154h-191zM-63 614l27 132h242l-27 -132h-242zM519 614l27 132h242l-27 -132h-242z" />
    <glyph glyph-name="Alpha" unicode="&#x391;" horiz-adv-x="888" 
d="M621 0l-13 82h-294l-47 -82h-300l452 714h346l156 -714h-300zM548 498h-2l-134 -242h170z" />
    <glyph glyph-name="Beta" unicode="&#x392;" horiz-adv-x="1000" 
d="M69 0l148 714h647q83 0 129 -31.5t46 -96.5t-32.5 -117t-87.5 -72v-2q42 -11 66.5 -46t24.5 -83q0 -50 -25.5 -108t-71.5 -93.5t-103.5 -50t-124.5 -14.5h-616zM457 540l-19 -92h214q44 0 61.5 15.5t17.5 45.5q0 17 -14.5 24t-45.5 7h-214zM404 286l-23 -112h244
q42 0 62.5 20t20.5 51q0 22 -17.5 31.5t-55.5 9.5h-231z" />
    <glyph glyph-name="Gamma" unicode="&#x393;" horiz-adv-x="796" 
d="M463 540l-112 -540h-282l148 714h723l-36 -174h-441z" />
    <glyph glyph-name="Delta" unicode="&#x394;" horiz-adv-x="906" 
d="M33 0l27 134l368 580h346l126 -580l-27 -134h-840zM557 498h-2l-180 -324h228z" />
    <glyph glyph-name="Epsilon" unicode="&#x395;" horiz-adv-x="852" 
d="M69 0l148 714h759l-36 -174h-477l-20 -96h443l-36 -174h-443l-20 -96h477l-36 -174h-759z" />
    <glyph glyph-name="Zeta" unicode="&#x396;" horiz-adv-x="852" 
d="M22 0l31 151l508 383h-399l37 180h779l-32 -156l-497 -378h407l-37 -180h-797z" />
    <glyph glyph-name="Eta" unicode="&#x397;" horiz-adv-x="1019" 
d="M668 0l59 285h-317l-59 -285h-282l148 714h282l-52 -249h317l52 249h282l-148 -714h-282z" />
    <glyph glyph-name="Theta" unicode="&#x398;" horiz-adv-x="1038" 
d="M186 45q-93 70 -93 207q0 105 42.5 207t111 161t165 89t272.5 30q221 0 315 -71t94 -207q0 -103 -42.5 -206t-112 -161.5t-168 -88.5t-257.5 -30q-233 0 -327 70zM634 559q-124 0 -182 -86q-23 -33 -39.5 -85.5t-16.5 -99.5q0 -133 155 -133q126 0 182 86t56 183
q0 135 -155 135zM452 272l36 174h244l-36 -174h-244z" />
    <glyph glyph-name="Iota" unicode="&#x399;" horiz-adv-x="426" 
d="M72 0l148 714h282l-148 -714h-282z" />
    <glyph glyph-name="Kappa" unicode="&#x39a;" horiz-adv-x="981" 
d="M639 0l-139 274l-110 -82l-39 -192h-282l148 714h282l-52 -252l314 252h374l-376 -276l255 -438h-375z" />
    <glyph glyph-name="Lambda" unicode="&#x39b;" horiz-adv-x="868" 
d="M601 0l-63 498h-2l-269 -498h-300l442 714h346l146 -714h-300z" />
    <glyph glyph-name="Mu" unicode="&#x39c;" horiz-adv-x="1168" 
d="M843 0l106 510h-2l-256 -510h-214l-44 510h-2l-106 -510h-256l148 714h397l31 -415h2l203 415h397l-148 -714h-256z" />
    <glyph glyph-name="Nu" unicode="&#x39d;" horiz-adv-x="1019" 
d="M641 0l-217 400h-2l-83 -400h-270l148 714h322l204 -396h3l82 396h270l-148 -714h-309z" />
    <glyph glyph-name="Xi" unicode="&#x39e;" horiz-adv-x="767" 
d="M132 524l40 190h719l-40 -190h-719zM130 270l36 174h619l-36 -174h-619zM24 0l39 190h719l-39 -190h-719z" />
    <glyph glyph-name="Omicron" unicode="&#x39f;" horiz-adv-x="1038" 
d="M93 252q0 105 42.5 207t111 161t166.5 89t271 30q220 0 314.5 -71t94.5 -207q-1 -106 -43 -207.5t-111.5 -160t-168 -88.5t-257.5 -30q-233 0 -326.5 70t-93.5 207zM634 559q-57 0 -98.5 -18t-64.5 -44t-38.5 -58.5t-25.5 -70t-11 -80.5q0 -133 155 -133
q127 0 182.5 86.5t55.5 182.5q0 135 -155 135z" />
    <glyph glyph-name="Pi" unicode="&#x3a0;" horiz-adv-x="1009" 
d="M658 0l110 534h-307l-110 -534h-282l148 714h871l-148 -714h-282z" />
    <glyph glyph-name="Rho" unicode="&#x3a1;" horiz-adv-x="944" 
d="M397 222l-46 -222h-282l148 714h587q108 0 167 -41.5t59 -128.5q0 -146 -87.5 -234t-237.5 -88h-308zM464 546l-31 -150h186q66 0 89 29.5t23 71.5q0 26 -20.5 37.5t-60.5 11.5h-186z" />
    <glyph glyph-name="Sigma" unicode="&#x3a3;" horiz-adv-x="791" 
d="M22 0l31 151l250 190l-157 187l39 186h732l-38 -180h-356l160 -175v-1l-234 -178h367l-37 -180h-757z" />
    <glyph glyph-name="Tau" unicode="&#x3a4;" horiz-adv-x="796" 
d="M257 0l111 534h-261l37 180h804l-37 -180h-261l-111 -534h-282z" />
    <glyph glyph-name="Upsilon" unicode="&#x3a5;" horiz-adv-x="832" 
d="M275 0l41 201l-210 513h322l78 -280l194 280h322l-424 -513l-41 -201h-282z" />
    <glyph glyph-name="Phi" unicode="&#x3a6;" horiz-adv-x="1138" 
d="M417 -78l12 62q-177 5 -267 75.5t-90 198.5q0 112 58 220t171.5 170.5t279.5 67.5l13 61h272l-13 -61q177 -7 266 -78.5t89 -199.5q0 -115 -55 -220.5t-168 -167t-284 -66.5l-12 -62h-272zM543 531q-61 -8 -100 -43t-59 -91.5t-20 -107.5q0 -55 26.5 -85t76.5 -38z
M739 166q56 7 96.5 40.5t61 91t20.5 112.5q0 108 -102 121z" />
    <glyph glyph-name="Chi" unicode="&#x3a7;" horiz-adv-x="888" 
d="M576 0l-94 184l-170 -184h-348l398 373l-208 341h331l75 -156l139 156h331l-350 -341l244 -373h-348z" />
    <glyph glyph-name="Psi" unicode="&#x3a8;" horiz-adv-x="1102" 
d="M415 0l23 112q-163 4 -239.5 63t-76.5 167q0 38 9 82l61 290h272l-59 -281q-6 -26 -6 -47q0 -31 17.5 -50.5t62.5 -24.5l84 403h272l-84 -403q55 5 83.5 33.5t40.5 88.5l59 281h272l-61 -290q-31 -149 -137 -228t-298 -84l-23 -112h-272z" />
    <glyph glyph-name="Omega" unicode="&#x3a9;" horiz-adv-x="1040" 
d="M593 0l43 212q63 31 99.5 90.5t36.5 127.5q0 60 -35.5 94.5t-101.5 34.5q-96 -1 -152.5 -68.5t-57.5 -155.5q0 -42 17 -73t48 -50l-43 -212h-391l33 162h151l3 13q-50 16 -79 58.5t-29 107.5q0 109 64 203t189 144.5t285 50.5q185 0 294 -69t109 -193q-1 -108 -59 -192.5
t-148 -109.5l-3 -13h151l-33 -162h-391z" />
    <glyph glyph-name="Iotadieresis" unicode="&#x3aa;" horiz-adv-x="426" 
d="M72 0l148 714h282l-148 -714h-282zM93 784l26 132h242l-27 -132h-241zM412 784l27 132h242l-27 -132h-242z" />
    <glyph glyph-name="Upsilondieresis" unicode="&#x3ab;" horiz-adv-x="832" 
d="M275 0l41 201l-210 513h322l78 -280l194 280h322l-424 -513l-41 -201h-282zM299 784l26 132h242l-27 -132h-241zM618 784l27 132h242l-27 -132h-242z" />
    <glyph glyph-name="alphatonos" unicode="&#x3ac;" horiz-adv-x="922" 
d="M897 0q-35 -6 -67.5 -9t-72.5 -3q-77 0 -119.5 18t-50.5 63h-2q-48 -49 -110 -70t-138 -21q-120 0 -189.5 59.5t-69.5 162.5q0 93 48.5 180.5t136.5 134.5t199 47q78 0 127.5 -19.5t76.5 -60.5h2l14 65h242l-74 -353l-2 -19q0 -19 11 -25t32 -6q26 0 36 2zM503 394
q-40 0 -70.5 -12.5t-51.5 -34t-31.5 -52t-10.5 -55.5q0 -43 28 -68t85 -26q40 0 71 10.5t53.5 33t33 54.5t10.5 62q0 42 -27.5 65t-89.5 23zM444 598l72 164h276l-150 -164h-198z" />
    <glyph glyph-name="epsilontonos" unicode="&#x3ad;" horiz-adv-x="814" 
d="M595 352q0 42 -25 60t-86 18q-103 0 -103 -50q0 -15 13.5 -19.5t33.5 -4.5h124l-33 -159h-147q-19 0 -33.5 -10t-14.5 -29q0 -15 21 -24.5t76 -9.5q61 0 100.5 23.5t59.5 74.5h249q-30 -93 -83.5 -144.5t-141.5 -75.5t-230 -24q-149 0 -225 36.5t-76 108.5q0 58 35 106
t106 58v2q-35 5 -54 27.5t-19 54.5q1 83 87.5 140.5t283.5 57.5q166 0 248 -42.5t82 -133.5q0 -13 -4 -41h-244zM410 598l72 164h276l-150 -164h-198z" />
    <glyph glyph-name="etatonos" unicode="&#x3ae;" horiz-adv-x="832" 
d="M482 -196l100 486q3 13 3 25q0 31 -20 49t-60 18q-56 0 -93.5 -35.5t-48.5 -89.5l-53 -257h-250l114 547h242l-14 -68h2q41 39 108 61t135 22q103 -1 153.5 -43.5t50.5 -114.5q0 -30 -5 -49l-114 -551h-250zM394 598l72 164h276l-150 -164h-198z" />
    <glyph glyph-name="iotatonos" unicode="&#x3af;" horiz-adv-x="442" 
d="M427 0q-69 -9 -95.5 -10.5t-65.5 -1.5q-103 0 -140.5 28t-37.5 92q0 30 9 72l76 367h250l-72 -348q-2 -14 -2 -19q0 -18 13 -27t50 -9q34 1 45 2zM204 598l72 164h276l-150 -164h-198z" />
    <glyph glyph-name="upsilondieresistonos" unicode="&#x3b0;" horiz-adv-x="832" 
d="M838 547q21 -53 21 -123q0 -124 -52 -232t-150 -161t-254 -53q-158 0 -231.5 41t-73.5 134q0 32 7 66l69 328h250l-58 -278q-5 -25 -5 -41q0 -35 20 -52.5t66 -17.5q68 0 105.5 63.5t37.5 174.5q0 38 -6.5 76t-17.5 75h272zM409 614l72 154h243l-124 -154h-191zM133 614
l27 132h242l-27 -132h-242zM715 614l27 132h242l-27 -132h-242z" />
    <glyph glyph-name="alpha" unicode="&#x3b1;" horiz-adv-x="922" 
d="M897 0q-35 -6 -67.5 -9t-72.5 -3q-77 0 -119.5 18t-50.5 63h-2q-48 -49 -110 -70t-138 -21q-120 0 -189.5 59.5t-69.5 162.5q0 93 48.5 180.5t136.5 134.5t199 47q78 0 127.5 -19.5t76.5 -60.5h2l14 65h242l-74 -353l-2 -19q0 -19 11 -25t32 -6q26 0 36 2zM503 394
q-40 0 -70.5 -12.5t-51.5 -34t-31.5 -52t-10.5 -55.5q0 -43 28 -68t85 -26q40 0 71 10.5t53.5 33t33 54.5t10.5 62q0 42 -27.5 65t-89.5 23z" />
    <glyph glyph-name="beta" unicode="&#x3b2;" horiz-adv-x="869" 
d="M19 -196l134 646q31 153 136.5 224t295.5 71q163 0 239 -38.5t76 -113.5q0 -58 -34.5 -104t-92.5 -66v-1q58 -12 88 -49t30 -94q0 -77 -46 -147t-127 -112t-183 -42q-87 0 -138.5 20t-75.5 58l-52 -252h-250zM437 304l32 151h70q41 0 66 23t25 59q0 26 -21.5 38.5
t-65.5 12.5q-62 0 -92.5 -27.5t-40.5 -76.5l-48 -227q-2 -8 -3 -24q0 -40 30.5 -63.5t87.5 -23.5q63 0 99 29t36 75q0 30 -24 42t-63 12h-88z" />
    <glyph glyph-name="gamma" unicode="&#x3b3;" horiz-adv-x="879" 
d="M241 -196l24 121q2 8 2 19q0 66 -52 287.5t-101 315.5h272q18 -36 50 -168t38 -213h2q44 51 112 171t108 210h262q-63 -153 -183 -324.5t-234 -275.5l-29 -143h-271z" />
    <glyph glyph-name="delta" unicode="&#x3b4;" horiz-adv-x="788" 
d="M784 541q-32 17 -74.5 28t-83.5 11q-43 0 -43 -28q0 -10 18.5 -19.5t65 -35.5t80.5 -54.5t51.5 -62.5t17.5 -78q0 -92 -51 -167.5t-148.5 -116t-234.5 -40.5q-158 0 -238.5 50t-80.5 149q0 66 29.5 131t87 107t140.5 59v2q-32 20 -45 41.5t-13 46.5q2 81 78.5 130.5
t223.5 50.5q94 0 156.5 -8.5t99.5 -22.5zM468 385q-59 -14 -101 -64t-42 -110q0 -37 22.5 -60t69.5 -23q57 0 95.5 41t38.5 100q0 35 -19.5 64.5t-63.5 51.5z" />
    <glyph glyph-name="epsilon" unicode="&#x3b5;" horiz-adv-x="814" 
d="M595 352q0 42 -25 60t-86 18q-103 0 -103 -50q0 -15 13.5 -19.5t33.5 -4.5h124l-33 -159h-147q-19 0 -33.5 -10t-14.5 -29q0 -15 21 -24.5t76 -9.5q61 0 100.5 23.5t59.5 74.5h249q-30 -93 -83.5 -144.5t-141.5 -75.5t-230 -24q-149 0 -225 36.5t-76 108.5q0 58 35 106
t106 58v2q-35 5 -54 27.5t-19 54.5q1 83 87.5 140.5t283.5 57.5q166 0 248 -42.5t82 -133.5q0 -13 -4 -41h-244z" />
    <glyph glyph-name="zeta" unicode="&#x3b6;" horiz-adv-x="690" 
d="M351 -186q14 24 27 57.5t13 56.5q0 17 -12.5 29.5t-52.5 16.5q-123 10 -184 62.5t-61 146.5q0 54 16 107.5t46 101.5q78 122 245 166v3h-172l37 178h555l-37 -180q-248 -34 -353 -138q-30 -29 -50 -71.5t-20 -85.5q0 -50 37.5 -73t115.5 -30q61 -6 91.5 -18.5t47 -36
t16.5 -62.5q0 -41 -17.5 -103t-45.5 -127h-242z" />
    <glyph glyph-name="eta" unicode="&#x3b7;" horiz-adv-x="832" 
d="M482 -196l100 486q3 13 3 25q0 31 -20 49t-60 18q-56 0 -93.5 -35.5t-48.5 -89.5l-53 -257h-250l114 547h242l-14 -68h2q41 39 108 61t135 22q103 -1 153.5 -43.5t50.5 -114.5q0 -30 -5 -49l-114 -551h-250z" />
    <glyph glyph-name="theta" unicode="&#x3b8;" horiz-adv-x="802" 
d="M398 -22q-161 0 -235.5 57t-74.5 184q0 110 46 247.5t149 208t274 70.5q157 0 231.5 -59.5t74.5 -186.5q0 -94 -41 -234.5t-140.5 -213.5t-283.5 -73zM613 431q5 25 5 52q0 48 -23 73.5t-73 25.5q-57 0 -95.5 -36t-59.5 -115h246zM337 278q-2 -11 -3 -21.5t-1 -20.5
q0 -96 98 -96q60 0 96.5 34.5t53.5 103.5h-244z" />
    <glyph glyph-name="iota" unicode="&#x3b9;" horiz-adv-x="447" 
d="M427 0q-69 -9 -95.5 -10.5t-65.5 -1.5q-103 0 -140.5 28t-37.5 92q0 30 9 72l76 367h250l-72 -348q-2 -14 -2 -19q0 -18 13 -27t50 -9q34 1 45 2z" />
    <glyph glyph-name="kappa" unicode="&#x3ba;" horiz-adv-x="832" 
d="M518 0l-92 184l-92 -64l-24 -120h-250l113 547h250l-37 -177l226 177h332l-291 -204l203 -343h-338z" />
    <glyph glyph-name="lambda" unicode="&#x3bb;" horiz-adv-x="808" 
d="M788 0q-34 -6 -60 -9t-62 -3q-62 0 -96 10.5t-54.5 37t-35.5 86.5l-36 145h-2l-187 -267h-264l381 507q-12 49 -30 63t-64 14q-13 0 -29.5 -3t-25.5 -6l32 154q26 8 59.5 12t69.5 4q80 0 122 -14.5t68 -49t46 -107.5l98 -355q8 -30 14 -44t16.5 -22.5t35.5 -8.5
q26 1 34 2z" />
    <glyph glyph-name="mu" unicode="&#x3bc;" horiz-adv-x="889" 
d="M858 0q-36 -6 -67 -9t-74 -3q-73 0 -111.5 17t-47.5 64h-2q-31 -39 -78 -65t-104 -26q-34 0 -65 12h-2l-38 -186h-250l154 743h250l-62 -299q-3 -14 -3 -25q0 -64 80 -65q59 0 94.5 34.5t47.5 93.5l55 261h250l-73 -350q-3 -14 -3 -23q0 -15 9 -22.5t33 -7.5q15 0 37 2z
" />
    <glyph glyph-name="nu" unicode="&#x3bd;" horiz-adv-x="834" 
d="M243 0l-140 547h281l65 -351h3q39 51 90.5 142t106.5 209h263q-73 -165 -168.5 -303.5t-194.5 -243.5h-306z" />
    <glyph glyph-name="xi" unicode="&#x3be;" horiz-adv-x="705" 
d="M369 -186q15 27 27.5 59t12.5 56q0 17 -12 27.5t-40 15.5q-52 10 -96 19q-84 18 -133 53.5t-49 100.5q0 86 54.5 149.5t146.5 85.5v2q-93 38 -93 119q0 61 40.5 119.5t120 91.5t193.5 33q98 0 171.5 -12.5t100.5 -24.5l-38 -185q-39 14 -108.5 25t-129.5 11
q-47 0 -73 -12t-26 -44q0 -35 72 -35h162l-39 -189h-198q-76 0 -76 -54q0 -31 45 -44t133 -21q76 -9 107 -37t31 -77q0 -40 -19.5 -107.5t-44.5 -124.5h-242z" />
    <glyph glyph-name="omicron" unicode="&#x3bf;" 
d="M77 195q0 74 33.5 156.5t97 129.5t150.5 67.5t195 20.5q181 0 266.5 -52.5t85.5 -162.5q0 -94 -45.5 -187.5t-151 -141t-278.5 -47.5q-183 0 -268 52.5t-85 164.5zM518 407q-58 0 -96 -21.5t-58 -64.5t-20 -86q0 -49 28.5 -72t91.5 -23q95 0 135 53t40 124q0 45 -29 67.5
t-92 22.5z" />
    <glyph glyph-name="pi" unicode="&#x3c0;" horiz-adv-x="958" 
d="M866 0q-15 -4 -52.5 -8t-81.5 -4q-85 0 -122 29t-37 89q0 23 6 55l46 220h-166l-79 -381h-245l79 381h-120l34 166h903l-34 -166h-126l-39 -186q-2 -11 -2 -18q0 -16 10 -24.5t33 -8.5q8 0 23 2z" />
    <glyph glyph-name="rho" unicode="&#x3c1;" horiz-adv-x="825" 
d="M-6 -196l87 420q23 115 82 188.5t151 111.5t221 38q162 0 243 -54.5t81 -161.5q0 -105 -50.5 -193t-141.5 -131.5t-176 -43.5q-69 0 -119 19.5t-74 57.5h-2l-52 -251h-250zM492 394q-72 0 -114 -47t-42 -113q0 -44 26.5 -66t79.5 -22q70 0 113 44.5t43 113.5
q0 41 -26 65.5t-80 24.5z" />
    <glyph glyph-name="sigma1" unicode="&#x3c2;" horiz-adv-x="740" 
d="M345 -186q17 29 28.5 60.5t11.5 54.5q0 20 -16 31t-58 15q-113 9 -174.5 61.5t-61.5 146.5q0 89 47 183t146 148.5t236 54.5q145 0 215.5 -51t70.5 -162q0 -8 -0.5 -15t-1.5 -24h-252q1 6 1 17q0 35 -16 52t-60 17q-67 0 -93 -47t-26 -95q0 -45 35 -68.5t117 -31.5
q82 -7 119.5 -33t37.5 -82q0 -41 -20 -111t-44 -121h-242z" />
    <glyph glyph-name="sigma" unicode="&#x3c3;" horiz-adv-x="877" 
d="M809 381v-2q16 -25 16 -68q0 -77 -47.5 -161.5t-140.5 -128t-240 -43.5q-159 0 -240 55.5t-81 161.5q0 84 43 167t134 133.5t234 51.5h473l-35 -166h-116zM487 381q-68 -1 -107 -46.5t-39 -110.5q1 -44 26.5 -64t71.5 -20q45 0 77.5 22.5t49 61t16.5 76.5q0 27 -9 47
t-23 34h-63z" />
    <glyph glyph-name="tau" unicode="&#x3c4;" horiz-adv-x="691" 
d="M578 -1q-19 -4 -77 -7.5t-108 -3.5q-94 0 -134.5 21.5t-40.5 76.5q0 22 6 49l51 246h-191l34 166h666l-34 -166h-230l-39 -187q-3 -13 -3 -21q0 -17 14 -23t52 -6q32 0 64 2z" />
    <glyph glyph-name="upsilon" unicode="&#x3c5;" horiz-adv-x="832" 
d="M838 547q21 -53 21 -123q0 -124 -52 -232t-150 -161t-254 -53q-158 0 -231.5 41t-73.5 134q0 32 7 66l69 328h250l-58 -278q-5 -25 -5 -41q0 -35 20 -52.5t66 -17.5q68 0 105.5 63.5t37.5 174.5q0 38 -6.5 76t-17.5 75h272z" />
    <glyph glyph-name="phi" unicode="&#x3c6;" horiz-adv-x="983" 
d="M342 -196l30 149q-304 23 -304 242q0 88 43.5 180.5t140 148.5t252.5 64l28 135h219l-28 -135q157 -8 231 -67.5t74 -167.5q-4 -173 -115 -279.5t-322 -120.5l-30 -149h-219zM471 427q-67 -11 -107.5 -70.5t-40.5 -136.5q0 -87 82 -108zM624 112q67 13 107.5 73t40.5 137
q0 88 -82 105z" />
    <glyph glyph-name="chi" unicode="&#x3c7;" horiz-adv-x="813" 
d="M467 -196l-75 165l-143 -165h-280l323 361l-173 382h279l86 -192l155 192h278l-335 -390l164 -353h-279z" />
    <glyph glyph-name="psi" unicode="&#x3c8;" horiz-adv-x="1050" 
d="M364 -196l36 174q-161 2 -230 47t-69 138q0 26 8 71l65 313h250l-58 -278q-4 -19 -4 -38q0 -70 75 -73l117 565h229l-117 -565q71 3 107.5 65t36.5 173q0 34 -5 70.5t-18 80.5h268q21 -57 21 -125q0 -106 -35 -196.5t-102 -148.5q-114 -99 -310 -99l-36 -174h-229z" />
    <glyph glyph-name="omega" unicode="&#x3c9;" horiz-adv-x="1033" 
d="M528 80q-38 -55 -88.5 -78.5t-133.5 -23.5q-110 0 -164.5 48t-54.5 140q0 99 47.5 205t126.5 176h271q-74 -63 -125 -164.5t-51 -170.5q0 -43 38 -43q48 0 60 57l41 196h211l-41 -196q-2 -8 -2 -19q0 -38 38 -38q40 0 59 47t19 129q0 57 -14.5 108.5t-43.5 93.5h271
q28 -40 40.5 -87t12.5 -98q0 -80 -25.5 -158.5t-67 -127.5t-103 -73.5t-143.5 -24.5q-80 0 -120 24t-55 78h-3z" />
    <glyph glyph-name="iotadieresis" unicode="&#x3ca;" horiz-adv-x="442" 
d="M427 0q-69 -9 -95.5 -10.5t-65.5 -1.5q-103 0 -140.5 28t-37.5 92q0 30 9 72l76 367h250l-72 -348q-2 -14 -2 -19q0 -18 13 -27t50 -9q34 1 45 2zM38 614l26 132h242l-27 -132h-241zM357 614l27 132h242l-27 -132h-242z" />
    <glyph glyph-name="upsilondieresis" unicode="&#x3cb;" horiz-adv-x="832" 
d="M838 547q21 -53 21 -123q0 -124 -52 -232t-150 -161t-254 -53q-158 0 -231.5 41t-73.5 134q0 32 7 66l69 328h250l-58 -278q-5 -25 -5 -41q0 -35 20 -52.5t66 -17.5q68 0 105.5 63.5t37.5 174.5q0 38 -6.5 76t-17.5 75h272zM246 614l26 132h242l-27 -132h-241zM565 614
l27 132h242l-27 -132h-242z" />
    <glyph glyph-name="omicrontonos" unicode="&#x3cc;" 
d="M77 195q0 74 33.5 156.5t97 129.5t150.5 67.5t195 20.5q181 0 266.5 -52.5t85.5 -162.5q0 -94 -45.5 -187.5t-151 -141t-278.5 -47.5q-183 0 -268 52.5t-85 164.5zM518 407q-58 0 -96 -21.5t-58 -64.5t-20 -86q0 -49 28.5 -72t91.5 -23q95 0 135 53t40 124q0 45 -29 67.5
t-92 22.5zM447 598l72 164h276l-150 -164h-198z" />
    <glyph glyph-name="upsilontonos" unicode="&#x3cd;" horiz-adv-x="832" 
d="M838 547q21 -53 21 -123q0 -124 -52 -232t-150 -161t-254 -53q-158 0 -231.5 41t-73.5 134q0 32 7 66l69 328h250l-58 -278q-5 -25 -5 -41q0 -35 20 -52.5t66 -17.5q68 0 105.5 63.5t37.5 174.5q0 38 -6.5 76t-17.5 75h272zM409 598l72 164h276l-150 -164h-198z" />
    <glyph glyph-name="omegatonos" unicode="&#x3ce;" horiz-adv-x="1033" 
d="M528 80q-38 -55 -88.5 -78.5t-133.5 -23.5q-110 0 -164.5 48t-54.5 140q0 99 47.5 205t126.5 176h271q-74 -63 -125 -164.5t-51 -170.5q0 -43 38 -43q48 0 60 57l41 196h211l-41 -196q-2 -8 -2 -19q0 -38 38 -38q40 0 59 47t19 129q0 57 -14.5 108.5t-43.5 93.5h271
q28 -40 40.5 -87t12.5 -98q0 -80 -25.5 -158.5t-67 -127.5t-103 -73.5t-143.5 -24.5q-80 0 -120 24t-55 78h-3zM529 598l72 164h276l-150 -164h-198z" />
    <glyph glyph-name="uni0400" unicode="&#x400;" horiz-adv-x="852" 
d="M69 0l148 714h759l-36 -174h-477l-20 -96h443l-36 -174h-443l-20 -96h477l-36 -174h-759zM538 778l-123 144h303l61 -144h-241z" />
    <glyph glyph-name="afii10023" unicode="&#x401;" horiz-adv-x="852" 
d="M69 0l148 714h759l-36 -174h-477l-20 -96h443l-36 -174h-443l-20 -96h477l-36 -174h-759zM326 784l26 132h242l-27 -132h-241zM645 784l27 132h242l-27 -132h-242z" />
    <glyph glyph-name="afii10051" unicode="&#x402;" horiz-adv-x="1101" 
d="M658 155q24 -3 51 -3q48 0 78 20.5t31 64.5q0 28 -25.5 38.5t-80.5 10.5q-19 0 -49 -2.5t-63 -6.5l-45 -6l-56 -271h-282l112 540h-221l36 174h804l-36 -174h-301l-20 -97q80 11 135 15.5t94 4.5q157 0 230.5 -41t73.5 -135q0 -80 -39 -156t-123.5 -116t-219.5 -40
q-61 2 -85 4t-35 4z" />
    <glyph glyph-name="afii10052" unicode="&#x403;" horiz-adv-x="770" 
d="M461 534l-110 -534h-282l148 714h709l-38 -180h-427zM660 778h-241l121 144h303z" />
    <glyph glyph-name="afii10053" unicode="&#x404;" horiz-adv-x="1019" 
d="M1044 272q-44 -114 -109 -176.5t-165.5 -91.5t-255.5 -29q-224 0 -322.5 67t-98.5 209q0 106 43 206.5t109.5 160.5t166.5 90.5t260 30.5q156 0 241 -30.5t126.5 -87.5t41.5 -151q0 -20 -1 -27h-304v6q0 56 -37 86t-103 30q-75 0 -127.5 -30t-83.5 -96h274l-34 -164h-274
q3 -68 42 -97t109 -29q78 0 125 29t73 94h304z" />
    <glyph glyph-name="afii10054" unicode="&#x405;" horiz-adv-x="962" 
d="M682 505q2 4 2 15q0 26 -32 41.5t-87 15.5q-65 0 -94 -16t-29 -44q0 -14 8 -20t22 -8l327 -50q94 -15 142.5 -56.5t48.5 -108.5q0 -81 -51.5 -152.5t-165.5 -109t-300 -37.5q-111 0 -190 12t-126 36q-95 50 -95 143q0 22 6 49h340v-16q0 -27 26 -38.5t86 -11.5
q64 0 95 16.5t31 49.5t-45 40l-302 47q-86 13 -126 52t-40 103q0 69 41.5 135.5t141 106t284.5 40.5q103 0 180.5 -12t126.5 -35q105 -48 105 -154q0 -11 -2 -33h-328z" />
    <glyph glyph-name="afii10055" unicode="&#x406;" horiz-adv-x="426" 
d="M72 0l148 714h282l-148 -714h-282z" />
    <glyph glyph-name="afii10056" unicode="&#x407;" horiz-adv-x="426" 
d="M72 0l148 714h282l-148 -714h-282zM96 784l26 132h242l-27 -132h-241zM415 784l27 132h242l-27 -132h-242z" />
    <glyph glyph-name="afii10057" unicode="&#x408;" horiz-adv-x="796" 
d="M607 714h282l-90 -433q-27 -126 -75 -186.5t-130.5 -90t-210.5 -29.5q-127 0 -194 19.5t-101.5 63.5t-34.5 122q0 48 15 119h282q-6 -28 -10 -51.5t-4 -37.5q0 -29 14.5 -45t52.5 -16q47 0 73 27.5t37 81.5z" />
    <glyph glyph-name="afii10058" unicode="&#x409;" horiz-adv-x="1551" 
d="M676 0l111 534h-238l-17 -79q-30 -146 -63 -227t-81 -134.5t-116 -79t-157 -25.5q-33 0 -57 2.5t-58 8.5l36 174q9 -3 25 -4t24 -1q57 0 95 50t67 187l64 308h795l-46 -222h308q107 0 164.5 -45t57.5 -132q0 -79 -36 -157t-107 -118t-183 -40h-588zM1024 318l-31 -150
h186q27 0 46.5 5t34 16.5t23 34t8.5 42.5q0 28 -19.5 40t-61.5 12h-186z" />
    <glyph glyph-name="afii10059" unicode="&#x40a;" horiz-adv-x="1543" 
d="M668 0l62 302h-317l-62 -302h-282l148 714h282l-49 -232h317l49 232h282l-49 -232h306q110 0 168 -43t58 -130q0 -83 -38.5 -160t-108.5 -113t-181 -36h-585zM1013 308l-29 -140h184q70 0 91.5 27.5t21.5 64.5q0 27 -20.5 37.5t-61.5 10.5h-186z" />
    <glyph glyph-name="afii10060" unicode="&#x40b;" horiz-adv-x="1101" 
d="M779 0l30 148q7 32 7 59q0 42 -24 60.5t-81 18.5q-16 0 -48 -2.5t-64 -6.5l-44 -6l-56 -271h-282l112 540h-221l36 174h804l-36 -174h-301l-21 -97q80 11 130.5 15.5t90.5 4.5q161 0 230 -42t69 -141q0 -38 -11 -93l-38 -187h-282z" />
    <glyph glyph-name="afii10061" unicode="&#x40c;" horiz-adv-x="981" 
d="M639 0l-139 274l-110 -82l-39 -192h-282l148 714h282l-52 -252l314 252h374l-376 -276l255 -438h-375zM737 778h-241l121 144h303z" />
    <glyph glyph-name="uni040D" unicode="&#x40d;" horiz-adv-x="1029" 
d="M690 0l87 420l-399 -420h-309l148 714h270l-87 -416l386 416h322l-148 -714h-270zM582 778l-123 144h303l61 -144h-241z" />
    <glyph glyph-name="afii10062" unicode="&#x40e;" horiz-adv-x="852" 
d="M559 128q-54 -67 -125 -104t-175 -37q-49 0 -90 3.5t-67 8.5l36 175q17 -4 41 -7t47 -3q37 0 64 6.5t55 29.5l-227 514h338l81 -253l178 253h315zM867 929q-35 -89 -97.5 -123t-174.5 -34q-118 0 -164 37.5t-46 114.5v5h132q2 -25 21.5 -34t78.5 -9q49 0 75.5 9t42.5 34
h132z" />
    <glyph glyph-name="afii10145" unicode="&#x40f;" horiz-adv-x="1009" 
d="M631 0l-34 -166h-250l34 166h-312l148 714h282l-111 -534h307l111 534h282l-148 -714h-309z" />
    <glyph glyph-name="afii10017" unicode="&#x410;" horiz-adv-x="888" 
d="M621 0l-13 82h-294l-47 -82h-300l452 714h346l156 -714h-300zM548 498h-2l-134 -242h170z" />
    <glyph glyph-name="afii10018" unicode="&#x411;" horiz-adv-x="990" 
d="M69 0l148 714h804l-36 -174h-522l-17 -78h333q110 0 168 -44t58 -125q0 -65 -32.5 -137.5t-104.5 -114t-187 -41.5h-612zM412 298l-27 -130h210q61 0 86 23.5t25 57.5q0 49 -84 49h-210z" />
    <glyph glyph-name="afii10019" unicode="&#x412;" horiz-adv-x="1000" 
d="M69 0l148 714h647q83 0 129 -31.5t46 -96.5t-32.5 -117t-87.5 -72v-2q42 -11 66.5 -46t24.5 -83q0 -50 -25.5 -108t-71.5 -93.5t-103.5 -50t-124.5 -14.5h-616zM457 540l-19 -92h214q44 0 61.5 15.5t17.5 45.5q0 17 -14.5 24t-45.5 7h-214zM404 286l-23 -112h244
q42 0 62.5 20t20.5 51q0 22 -17.5 31.5t-55.5 9.5h-231z" />
    <glyph glyph-name="afii10020" unicode="&#x413;" horiz-adv-x="770" 
d="M461 534l-110 -534h-282l148 714h709l-38 -180h-427z" />
    <glyph glyph-name="afii10021" unicode="&#x414;" horiz-adv-x="1028" 
d="M738 -166l34 166h-522l-34 -166h-250l71 346h69q65 69 117 187t85 272l15 75h753l-111 -534h94l-71 -346h-250zM757 534h-213l-6 -29q-22 -102 -63 -190t-84 -135h292z" />
    <glyph glyph-name="afii10022" unicode="&#x415;" horiz-adv-x="852" 
d="M69 0l148 714h759l-36 -174h-477l-20 -96h443l-36 -174h-443l-20 -96h477l-36 -174h-759z" />
    <glyph glyph-name="afii10024" unicode="&#x416;" horiz-adv-x="1442" 
d="M1115 0l-119 259l-97 -78l-37 -181h-282l37 181l-66 78l-224 -259h-360l403 433l-233 281h374l167 -238l50 238h282l-50 -238l267 238h374l-352 -281l226 -433h-360z" />
    <glyph glyph-name="afii10025" unicode="&#x417;" horiz-adv-x="934" 
d="M816 386q70 -12 102 -44.5t32 -83.5q0 -78 -48.5 -146.5t-152 -102.5t-290.5 -34q-209 0 -299 48.5t-90 160.5q0 17 2 36t6 40h298q0 -5 -1 -19q0 -44 27.5 -67.5t87.5 -23.5q87 0 123 23t36 66q0 21 -19.5 35t-88.5 16h-31q-21 0 -68 -2l35 166q47 -2 72 -2q66 0 95 6
t44.5 23t15.5 44q0 24 -26 37t-89 13q-130 0 -163 -95h-288q40 137 153 198t336 61q188 0 274.5 -36.5t86.5 -118.5q0 -73 -48.5 -126.5t-122.5 -67.5z" />
    <glyph glyph-name="afii10026" unicode="&#x418;" horiz-adv-x="1029" 
d="M690 0l87 420l-399 -420h-309l148 714h270l-87 -416l386 416h322l-148 -714h-270z" />
    <glyph glyph-name="afii10027" unicode="&#x419;" horiz-adv-x="1029" 
d="M690 0l87 420l-399 -420h-309l148 714h270l-87 -416l386 416h322l-148 -714h-270zM962 929q-35 -89 -97.5 -123t-174.5 -34q-118 0 -164 37.5t-46 114.5v5h132q2 -25 21.5 -34t78.5 -9q49 0 75.5 9t42.5 34h132z" />
    <glyph glyph-name="afii10028" unicode="&#x41a;" horiz-adv-x="981" 
d="M639 0l-139 274l-110 -82l-39 -192h-282l148 714h282l-52 -252l314 252h374l-376 -276l255 -438h-375z" />
    <glyph glyph-name="afii10029" unicode="&#x41b;" horiz-adv-x="1027" 
d="M676 0l111 534h-238l-19 -88q-32 -146 -62 -221t-77.5 -128.5t-115.5 -80.5t-160 -27q-33 0 -57 2.5t-58 8.5l36 174q9 -3 25 -4t24 -1q57 0 95 50t67 187l64 308h795l-148 -714h-282z" />
    <glyph glyph-name="afii10030" unicode="&#x41c;" horiz-adv-x="1168" 
d="M843 0l106 510h-2l-256 -510h-214l-44 510h-2l-106 -510h-256l148 714h397l31 -415h2l203 415h397l-148 -714h-256z" />
    <glyph glyph-name="afii10031" unicode="&#x41d;" horiz-adv-x="1019" 
d="M668 0l59 285h-317l-59 -285h-282l148 714h282l-52 -249h317l52 249h282l-148 -714h-282z" />
    <glyph glyph-name="afii10032" unicode="&#x41e;" horiz-adv-x="1038" 
d="M93 252q0 105 42.5 207t111 161t166.5 89t271 30q220 0 314.5 -71t94.5 -207q-1 -106 -43 -207.5t-111.5 -160t-168 -88.5t-257.5 -30q-233 0 -326.5 70t-93.5 207zM634 559q-57 0 -98.5 -18t-64.5 -44t-38.5 -58.5t-25.5 -70t-11 -80.5q0 -133 155 -133
q127 0 182.5 86.5t55.5 182.5q0 135 -155 135z" />
    <glyph glyph-name="afii10033" unicode="&#x41f;" horiz-adv-x="1009" 
d="M658 0l110 534h-307l-110 -534h-282l148 714h871l-148 -714h-282z" />
    <glyph glyph-name="afii10034" unicode="&#x420;" horiz-adv-x="944" 
d="M397 222l-46 -222h-282l148 714h587q108 0 167 -41.5t59 -128.5q0 -146 -87.5 -234t-237.5 -88h-308zM464 546l-31 -150h186q66 0 89 29.5t23 71.5q0 26 -20.5 37.5t-60.5 11.5h-186z" />
    <glyph glyph-name="afii10035" unicode="&#x421;" horiz-adv-x="1019" 
d="M760 434v10q0 56 -33 85.5t-92 29.5q-86 0 -141 -43t-76.5 -114t-21.5 -115q0 -66 36 -99t105 -33t115 30t75 93h318q-61 -163 -183.5 -233t-348.5 -70q-134 0 -208.5 19.5t-118.5 51t-68.5 82.5t-24.5 124q0 44 13 109t41.5 123.5t65.5 100.5t81.5 70.5t99.5 47
t125.5 27.5t151.5 9q140 0 226 -26.5t134 -86t48 -160.5q0 -6 -1 -32h-318z" />
    <glyph glyph-name="afii10036" unicode="&#x422;" horiz-adv-x="796" 
d="M257 0l111 534h-261l37 180h804l-37 -180h-261l-111 -534h-282z" />
    <glyph glyph-name="afii10037" unicode="&#x423;" horiz-adv-x="852" 
d="M559 128q-54 -67 -125 -104t-175 -37q-49 0 -90 3.5t-67 8.5l36 175q17 -4 41 -7t47 -3q37 0 64 6.5t55 29.5l-227 514h338l81 -253l178 253h315z" />
    <glyph glyph-name="afii10038" unicode="&#x424;" horiz-adv-x="1203" 
d="M88 279q4 182 126 281.5t384 100.5l16 76h281l-16 -76q194 0 289.5 -56t95.5 -171q0 -108 -56.5 -202.5t-168.5 -137.5t-286 -43l-15 -74h-281l15 74q-197 0 -290.5 55t-93.5 173zM570 492q-70 0 -114 -29.5t-60 -90.5q-8 -27 -8 -56q0 -49 31.5 -70t95.5 -22zM782 224
q98 0 140 51t42 122q0 95 -127 95z" />
    <glyph glyph-name="afii10039" unicode="&#x425;" horiz-adv-x="888" 
d="M576 0l-94 184l-170 -184h-348l398 373l-208 341h331l75 -156l139 156h331l-350 -341l244 -373h-348z" />
    <glyph glyph-name="afii10040" unicode="&#x426;" horiz-adv-x="1040" 
d="M750 -166l34 166h-715l148 714h282l-111 -534h307l111 534h282l-111 -534h94l-71 -346h-250z" />
    <glyph glyph-name="afii10041" unicode="&#x427;" horiz-adv-x="944" 
d="M592 0l50 245q-142 -20 -222 -20q-161 0 -229.5 43t-68.5 141q0 39 11 92l45 213h277l-36 -172q-6 -29 -6 -51q0 -45 26.5 -64t83.5 -19q27 0 84 6t72 9l61 291h283l-148 -714h-283z" />
    <glyph glyph-name="afii10042" unicode="&#x428;" horiz-adv-x="1478" 
d="M69 0l148 714h282l-111 -534h247l111 534h282l-111 -534h247l111 534h282l-148 -714h-1340z" />
    <glyph glyph-name="afii10043" unicode="&#x429;" horiz-adv-x="1509" 
d="M1219 -166l34 166h-1184l148 714h282l-111 -534h247l111 534h282l-111 -534h247l111 534h282l-111 -534h94l-71 -346h-250z" />
    <glyph glyph-name="afii10044" unicode="&#x42a;" horiz-adv-x="1084" 
d="M210 0l110 534h-213l38 180h495l-46 -222h306q109 0 167 -44.5t58 -131.5q0 -82 -39.5 -163t-111.5 -117t-179 -36h-585zM557 318l-31 -150h184q30 0 52.5 6.5t35.5 19t20 33.5t7 39q0 29 -21 40.5t-63 11.5h-184z" />
    <glyph glyph-name="afii10045" unicode="&#x42b;" horiz-adv-x="1319" 
d="M69 0l148 714h282l-46 -222h287q108 0 166 -44.5t58 -131.5q0 -80 -39.5 -162.5t-113 -118t-176.5 -35.5h-566zM968 0l148 714h282l-148 -714h-282zM416 318l-31 -150h165q30 0 51.5 6t35 19.5t20.5 34.5t7 38q0 29 -21 40.5t-63 11.5h-164z" />
    <glyph glyph-name="afii10046" unicode="&#x42c;" horiz-adv-x="944" 
d="M69 0l148 714h282l-46 -222h306q109 0 167 -44.5t58 -131.5q0 -81 -39.5 -163t-112.5 -117.5t-178 -35.5h-585zM416 318l-31 -150h185q30 0 51.5 6t35 19t20.5 35t7 38q0 28 -21 40t-62 12h-185z" />
    <glyph glyph-name="afii10047" unicode="&#x42d;" horiz-adv-x="1019" 
d="M468 275l34 164h274q-4 66 -44 96t-115 30q-69 0 -118.5 -31.5t-71.5 -90.5h-304q33 97 96.5 161.5t165.5 99.5t268 35q115 0 192 -15t133 -55q96 -68 96 -207q0 -104 -41 -202t-106.5 -159t-163.5 -93.5t-268 -32.5q-152 0 -240.5 28.5t-128 88t-39.5 163.5v17h304v-4
q0 -64 36 -91.5t112 -27.5q70 0 120.5 28.5t82.5 97.5h-274z" />
    <glyph glyph-name="afii10048" unicode="&#x42e;" horiz-adv-x="1468" 
d="M69 0l148 714h282l-53 -254h139q36 86 93.5 145.5t157 96.5t276.5 37q141 0 228 -26.5t135 -86t48 -161.5q0 -108 -42 -208t-110 -162.5t-167 -91t-250 -28.5q-143 0 -231.5 27t-134 86t-45.5 160q0 24 1 32h-135l-58 -280h-282zM1074 559q-73 0 -123.5 -36t-77 -105.5
t-26.5 -128.5q1 -133 144 -134q73 0 123.5 35t77.5 103.5t27 130.5q0 66 -36.5 100.5t-108.5 34.5z" />
    <glyph glyph-name="afii10049" unicode="&#x42f;" horiz-adv-x="970" 
d="M619 0l46 222h-111l-199 -222h-345l268 251q-71 16 -106.5 59t-35.5 106q0 61 33.5 137.5t106 118.5t187.5 42h586l-148 -714h-282zM732 546h-186q-66 0 -89.5 -31.5t-23.5 -66.5q0 -28 20 -40t62 -12h186z" />
    <glyph glyph-name="afii10065" unicode="&#x430;" 
d="M579 0l-2 20q0 14 4 34q-51 -39 -120.5 -57.5t-168.5 -18.5q-124 0 -183 33.5t-59 105.5q0 53 27.5 103t93 79.5t180.5 35.5l217 11q36 2 53 15.5t17 36.5q0 22 -27 33.5t-79 11.5q-63 0 -95.5 -16.5t-43.5 -45.5h-250q34 81 82 117t125 53.5t223 17.5q170 0 244 -37
t74 -122q0 -31 -7 -61l-51 -244q-8 -40 -8 -59q0 -25 10 -46h-256zM390 224q-33 -5 -48.5 -24t-15.5 -42t19.5 -35.5t62.5 -12.5q57 0 99.5 13t69.5 40.5t36 85.5q-21 -6 -165 -19z" />
    <glyph glyph-name="afii10066" unicode="&#x431;" horiz-adv-x="883" 
d="M987 772q-17 -60 -53.5 -94.5t-80.5 -53.5t-112.5 -31t-137.5 -14q-61 -3 -95 -9t-75 -23t-73 -45t-49 -67h4q43 48 123 75.5t184 27.5q148 0 221 -48t73 -149q0 -110 -57.5 -197t-162 -126t-249.5 -39q-187 0 -268 60t-81 187q0 93 33.5 198.5t95 172.5t147.5 101
t213 40q62 3 95 11.5t50 22.5h255zM528 390q-53 0 -88.5 -19.5t-54 -60t-18.5 -84.5t27 -67t85 -23q82 0 123.5 48.5t41.5 119.5q0 43 -27.5 64.5t-88.5 21.5z" />
    <glyph glyph-name="afii10067" unicode="&#x432;" horiz-adv-x="849" 
d="M60 0l113 547h573q65 0 99 -25t34 -74q0 -51 -25 -88t-71 -56l-1 -2q37 -10 55.5 -37t18.5 -65q0 -51 -29 -100.5t-83 -74.5t-134 -25h-550zM392 414l-14 -71h164q26 0 43 10t17 34q0 12 -9.5 19.5t-35.5 7.5h-165zM352 219l-18 -86h187q25 0 44 12.5t19 40.5
q0 15 -10.5 24t-34.5 9h-187z" />
    <glyph glyph-name="afii10068" unicode="&#x433;" horiz-adv-x="659" 
d="M388 379l-78 -379h-250l113 547h599l-35 -168h-349z" />
    <glyph glyph-name="afii10069" unicode="&#x434;" horiz-adv-x="887" 
d="M624 -146l30 146h-424l-30 -146h-230l65 314h67q60 59 93.5 139.5t57.5 199.5l8 40h649l-78 -379h87l-65 -314h-230zM628 391h-175q-20 -75 -48.5 -134.5t-57.5 -88.5h235z" />
    <glyph glyph-name="afii10070" unicode="&#x435;" 
d="M330 215l-1 -12q0 -40 35.5 -63.5t96.5 -23.5q55 0 86.5 12.5t53.5 35.5h266q-50 -91 -158.5 -138.5t-270.5 -47.5q-91 0 -157 14.5t-112 43.5q-90 58 -90 169q0 92 48.5 176.5t155 136t256.5 51.5q180 0 266.5 -62t86.5 -187q0 -45 -12 -105h-550zM654 341l1 12
q0 39 -34 61.5t-97 22.5t-105.5 -22.5t-62.5 -73.5h298z" />
    <glyph glyph-name="afii10072" unicode="&#x436;" horiz-adv-x="1194" 
d="M890 0l-73 174l-72 -62l-23 -112h-250l23 112l-47 62l-144 -174h-323l323 330l-180 217h292l129 -191l40 191h250l-40 -191l209 191h292l-270 -217l187 -330h-323z" />
    <glyph glyph-name="afii10073" unicode="&#x437;" horiz-adv-x="788" 
d="M694 296q45 -7 73.5 -30.5t28.5 -67.5q0 -60 -38 -113.5t-126.5 -80t-254.5 -26.5q-120 0 -188 17.5t-98.5 50.5t-30.5 97q0 28 6 66h251q-1 -5 -1 -18q0 -38 22.5 -55.5t73.5 -17.5q80 0 103.5 18t23.5 47q0 22 -25.5 30.5t-88.5 8.5q-47 0 -55 -1l26 127q32 -2 51 -2
q89 0 111.5 14t22.5 42q0 18 -21 26.5t-74 8.5q-61 0 -91 -21t-43 -58h-242q33 113 124.5 162t282.5 49q163 0 236 -28.5t73 -94.5q0 -56 -35.5 -94t-95.5 -53z" />
    <glyph glyph-name="afii10074" unicode="&#x438;" horiz-adv-x="849" 
d="M554 0l66 322l-297 -322h-263l113 547h236l-66 -319l286 319h273l-113 -547h-235z" />
    <glyph glyph-name="afii10075" unicode="&#x439;" horiz-adv-x="849" 
d="M554 0l66 322l-297 -322h-263l113 547h236l-66 -319l286 319h273l-113 -547h-235zM832 759q-36 -89 -97.5 -123t-174.5 -34q-118 0 -164 37.5t-46 114.5v5h132q2 -25 22.5 -34t77.5 -9q51 0 76.5 9t41.5 34h132z" />
    <glyph glyph-name="afii10076" unicode="&#x43a;" horiz-adv-x="832" 
d="M528 0l-109 184l-84 -62l-25 -122h-250l113 547h250l-40 -191l239 191h322l-305 -222l212 -325h-323z" />
    <glyph glyph-name="afii10077" unicode="&#x43b;" horiz-adv-x="858" 
d="M548 0l81 391h-170l-11 -51q-28 -137 -67.5 -207.5t-105 -106.5t-166.5 -36q-29 0 -53.5 2.5t-55.5 7.5l29 144q5 -2 33 -3q58 0 90 46.5t52 146.5l44 213h663l-113 -547h-250z" />
    <glyph glyph-name="afii10078" unicode="&#x43c;" horiz-adv-x="1049" 
d="M758 0l81 391h-2l-215 -391h-196l-53 391h-1l-81 -391h-231l113 547h357l31 -318l183 318h358l-113 -547h-231z" />
    <glyph glyph-name="afii10079" unicode="&#x43d;" horiz-adv-x="842" 
d="M532 0l42 204h-222l-42 -204h-250l113 547h250l-36 -175h222l36 175h250l-113 -547h-250z" />
    <glyph glyph-name="afii10080" unicode="&#x43e;" 
d="M77 195q0 74 33.5 156.5t97 129.5t150.5 67.5t195 20.5q181 0 266.5 -52.5t85.5 -162.5q0 -94 -45.5 -187.5t-151 -141t-278.5 -47.5q-183 0 -268 52.5t-85 164.5zM518 407q-58 0 -96 -21.5t-58 -64.5t-20 -86q0 -49 28.5 -72t91.5 -23q95 0 135 53t40 124q0 45 -29 67.5
t-92 22.5z" />
    <glyph glyph-name="afii10081" unicode="&#x43f;" horiz-adv-x="832" 
d="M522 0l78 379h-212l-78 -379h-250l113 547h712l-113 -547h-250z" />
    <glyph glyph-name="afii10082" unicode="&#x440;" 
d="M19 -196l154 743h242l-13 -65h2q44 41 102 60.5t139 19.5q121 0 189.5 -58.5t68.5 -160.5q0 -95 -43.5 -178t-132.5 -135t-204 -52q-151 0 -200 77h-2l-52 -251h-250zM527 394q-48 0 -86.5 -18.5t-58.5 -57t-20 -84.5q0 -88 116 -88q54 0 93 24t56 60t17 72
q0 45 -29.5 68.5t-87.5 23.5z" />
    <glyph glyph-name="afii10083" unicode="&#x441;" 
d="M647 327q0 5 1 14q0 34 -29 53t-91 19q-90 0 -136.5 -52t-46.5 -120q0 -50 32.5 -75.5t92.5 -25.5q63 0 101 22.5t57 68.5h262q-44 -133 -152.5 -193t-300.5 -60q-92 0 -158 14t-111 42q-89 56 -89 168q0 87 44.5 174.5t150 139t285.5 53.5q121 0 197.5 -22.5t115 -70
t38.5 -124.5q0 -18 -1 -25h-262z" />
    <glyph glyph-name="afii10084" unicode="&#x442;" horiz-adv-x="728" 
d="M239 0l78 379h-239l35 168h728l-35 -168h-239l-78 -379h-250z" />
    <glyph glyph-name="afii10085" unicode="&#x443;" horiz-adv-x="722" 
d="M420 -86q-44 -64 -87 -87t-136 -23q-44 0 -101 3.5t-72 5.5l33 162q46 -3 66 -3q33 0 46.5 2.5t26.5 13t28 32.5l17 24l-150 503h262l63 -281l179 281h262z" />
    <glyph glyph-name="afii10086" unicode="&#x444;" horiz-adv-x="1188" 
d="M429 -196l48 234q-23 -21 -72 -37.5t-94 -16.5q-111 0 -171.5 57.5t-60.5 158.5q0 90 41.5 178t118 138.5t180.5 50.5q48 0 95 -19t59 -48l49 239h250l-49 -239q25 29 80 48t102 19q108 -1 164 -54.5t56 -150.5q0 -94 -43.5 -184.5t-125.5 -142t-185 -51.5
q-43 0 -84.5 15t-59.5 39l-48 -234h-250zM553 379q-4 11 -28 20.5t-48 9.5q-50 0 -80.5 -26t-44 -68.5t-13.5 -84.5q0 -46 21.5 -66.5t64.5 -20.5q22 0 46.5 9t38.5 23zM750 175q8 -14 30 -23t43 -9q48 0 79 24.5t47.5 74.5t16.5 87q0 40 -22 60t-64 20q-20 0 -49.5 -9.5
t-37.5 -20.5z" />
    <glyph glyph-name="afii10087" unicode="&#x445;" horiz-adv-x="832" 
d="M524 0l-76 155l-140 -155h-318l311 286l-177 261h306l69 -147l129 147h306l-289 -261l197 -286h-318z" />
    <glyph glyph-name="afii10088" unicode="&#x446;" horiz-adv-x="862" 
d="M599 -146l30 146h-569l113 547h250l-78 -379h212l78 379h250l-78 -379h87l-65 -314h-230z" />
    <glyph glyph-name="afii10089" unicode="&#x447;" horiz-adv-x="787" 
d="M477 0l39 189q-44 -8 -85 -13t-72 -5q-133 0 -190.5 34t-57.5 113q0 24 8 67l34 162h245l-28 -134q-5 -23 -5 -37q0 -30 18 -43t60 -13q29 0 57.5 4.5t44.5 7.5l45 215h250l-113 -547h-250z" />
    <glyph glyph-name="afii10090" unicode="&#x448;" horiz-adv-x="1174" 
d="M60 0l113 547h250l-79 -379h152l79 379h250l-79 -379h152l79 379h250l-113 -547h-1054z" />
    <glyph glyph-name="afii10091" unicode="&#x449;" horiz-adv-x="1204" 
d="M941 -146l30 146h-911l113 547h250l-78 -379h152l78 379h250l-78 -379h152l78 379h250l-78 -379h87l-65 -314h-230z" />
    <glyph glyph-name="afii10092" unicode="&#x44a;" horiz-adv-x="945" 
d="M180 0l78 379h-180l35 168h430l-35 -170h292q83 0 127 -34.5t44 -101.5q0 -60 -29.5 -121.5t-83.5 -90.5t-138 -29h-540zM474 244l-24 -115h164q50 0 68 22.5t18 52.5q0 40 -62 40h-164z" />
    <glyph glyph-name="afii10093" unicode="&#x44b;" horiz-adv-x="1160" 
d="M60 0l113 547h250l-35 -170h272q83 0 127 -34.5t44 -101.5q0 -59 -29.5 -121t-83.5 -91t-137 -29h-521zM850 0l113 547h250l-113 -547h-250zM354 244l-24 -115h144q50 0 68 22.5t18 52.5q0 40 -62 40h-144z" />
    <glyph glyph-name="afii10094" unicode="&#x44c;" horiz-adv-x="825" 
d="M60 0l113 547h250l-35 -170h292q83 0 127 -34.5t44 -101.5q0 -59 -29.5 -121t-83.5 -91t-138 -29h-540zM354 244l-24 -115h163q51 0 69 22.5t18 52.5q0 40 -62 40h-164z" />
    <glyph glyph-name="afii10095" unicode="&#x44d;" horiz-adv-x="867" 
d="M395 215l27 126h221q-7 36 -38 57.5t-94 21.5q-68 0 -108.5 -24t-51.5 -62h-254q45 125 151 180.5t296 55.5q358 0 358 -223q0 -71 -29 -140.5t-80 -117.5q-120 -110 -370 -110q-118 0 -192 18.5t-116 66.5t-42 128q1 26 2 34h254q2 -46 31 -68.5t94 -22.5q117 0 162 80
h-221z" />
    <glyph glyph-name="afii10096" unicode="&#x44e;" horiz-adv-x="1225" 
d="M60 0l114 547h250l-38 -181h106q48 103 153 153t273 50q172 0 257.5 -53t85.5 -164q0 -77 -32.5 -154.5t-86.5 -122.5q-115 -97 -346 -97q-174 0 -258.5 53.5t-84.5 166.5v6h-101l-42 -204h-250zM883 407q-55 0 -92 -23.5t-54.5 -68.5t-17.5 -84q0 -91 110 -91
q60 0 96 25t53 68t17 83q0 45 -27 68t-85 23z" />
    <glyph glyph-name="afii10097" unicode="&#x44f;" horiz-adv-x="830" 
d="M520 0l35 170h-86l-156 -170h-299l201 182q-63 12 -93 45.5t-30 84.5q0 53 28 113t85 91t144 31h534l-113 -547h-250zM612 418h-164q-55 0 -73 -24t-18 -49q0 -23 16.5 -32.5t50.5 -9.5h164z" />
    <glyph glyph-name="uni0450" unicode="&#x450;" 
d="M330 215l-1 -12q0 -40 35.5 -63.5t96.5 -23.5q55 0 86.5 12.5t53.5 35.5h266q-50 -91 -158.5 -138.5t-270.5 -47.5q-91 0 -157 14.5t-112 43.5q-90 58 -90 169q0 92 48.5 176.5t155 136t256.5 51.5q180 0 266.5 -62t86.5 -187q0 -45 -12 -105h-550zM654 341l1 12
q0 39 -34 61.5t-97 22.5t-105.5 -22.5t-62.5 -73.5h298zM443 608l-123 144h303l61 -144h-241z" />
    <glyph glyph-name="afii10071" unicode="&#x451;" 
d="M330 215l-1 -12q0 -40 35.5 -63.5t96.5 -23.5q55 0 86.5 12.5t53.5 35.5h266q-50 -91 -158.5 -138.5t-270.5 -47.5q-91 0 -157 14.5t-112 43.5q-90 58 -90 169q0 92 48.5 176.5t155 136t256.5 51.5q180 0 266.5 -62t86.5 -187q0 -45 -12 -105h-550zM654 341l1 12
q0 39 -34 61.5t-97 22.5t-105.5 -22.5t-62.5 -73.5h298zM281 614l26 132h242l-27 -132h-241zM600 614l27 132h242l-27 -132h-242z" />
    <glyph glyph-name="afii10099" unicode="&#x452;" horiz-adv-x="847" 
d="M800 15q-20 -98 -93 -154.5t-194 -56.5q-95 2 -115.5 3t-28.5 3l36 174h38q52 0 81.5 24t40.5 80l30 144q4 16 4 32q0 68 -79 68q-52 0 -90.5 -32t-51.5 -95l-43 -205h-250l111 534h-115l28 136h115l14 69h250l-14 -69h236l-28 -136h-236l-24 -115h2q35 36 98 59.5
t137 23.5q103 0 154 -41.5t51 -116.5q0 -25 -6 -52z" />
    <glyph glyph-name="afii10100" unicode="&#x453;" horiz-adv-x="659" 
d="M388 379l-78 -379h-250l113 547h599l-35 -168h-349zM574 608h-241l121 144h303z" />
    <glyph glyph-name="afii10101" unicode="&#x454;" horiz-adv-x="867" 
d="M886 226q-27 -84 -82 -139t-139.5 -81.5t-228.5 -26.5q-179 0 -268 56t-89 168q0 69 27.5 137t71.5 111q121 119 381 119q186 0 268 -52t82 -162l-1 -22h-254q1 4 1 12q0 34 -30.5 54t-94.5 20q-63 0 -102.5 -21.5t-61.5 -57.5h221l-27 -126h-221q12 -80 130 -80
q58 0 98.5 20t64.5 71h254z" />
    <glyph glyph-name="afii10102" unicode="&#x455;" horiz-adv-x="815" 
d="M561 383q1 3 1 9q0 21 -23 30t-61 9q-53 0 -75.5 -11.5t-22.5 -30.5q0 -14 16 -20.5t49 -9.5l228 -20q73 -6 115.5 -36t42.5 -87q0 -69 -41 -125.5t-135.5 -84.5t-254.5 -28q-183 0 -263.5 36.5t-80.5 122.5q0 9 3 33h294v-6q0 -30 24 -39t67 -9q47 0 69.5 12.5
t22.5 38.5q0 11 -6.5 17t-23.5 8l-232 24q-86 9 -124 38t-38 78q0 122 100.5 179.5t307.5 57.5q167 0 246.5 -39.5t79.5 -115.5q0 -11 -3 -31h-282z" />
    <glyph glyph-name="afii10103" unicode="&#x456;" horiz-adv-x="370" 
d="M184 601l29 138h250l-29 -138h-250zM60 0l113 547h250l-113 -547h-250z" />
    <glyph glyph-name="afii10104" unicode="&#x457;" horiz-adv-x="370" 
d="M60 0l113 547h250l-113 -547h-250zM32 614l26 132h242l-27 -132h-241zM351 614l27 132h242l-27 -132h-242z" />
    <glyph glyph-name="afii10105" unicode="&#x458;" horiz-adv-x="389" 
d="M203 601l29 138h250l-29 -138h-250zM-28 -16h26q44 0 56 3.5t19.5 14t15.5 49.5l103 496h250l-112 -538q-17 -83 -44 -124.5t-78 -61t-135 -19.5q-121 2 -137 6z" />
    <glyph glyph-name="afii10106" unicode="&#x459;" horiz-adv-x="1313" 
d="M548 0l81 391h-170l-9 -43q-25 -126 -53 -184.5t-65.5 -95.5t-91 -57.5t-129.5 -20.5q-29 0 -54.5 2.5t-56.5 7.5l29 144q5 -2 16 -2l17 -1q56 0 88 43.5t54 149.5l44 213h663l-35 -170h292q83 0 127 -35t44 -101q0 -59 -29.5 -121t-83.5 -91t-137 -29h-541zM842 244
l-24 -115h164q50 0 68 22.5t18 52.5q0 24 -18 32t-44 8h-164z" />
    <glyph glyph-name="afii10107" unicode="&#x45a;" horiz-adv-x="1297" 
d="M532 0l43 209h-222l-43 -209h-250l113 547h250l-35 -170h222l35 170h250l-35 -170h293q80 0 125 -34t45 -102q0 -60 -29.5 -121.5t-83.5 -90.5t-138 -29h-540zM826 244l-24 -115h164q50 0 68 22.5t18 52.5q0 40 -62 40h-164z" />
    <glyph glyph-name="afii10108" unicode="&#x45b;" horiz-adv-x="847" 
d="M548 0l48 234q3 16 3 29q0 33 -20 51t-59 18q-51 0 -90 -32.5t-52 -94.5l-42 -205h-250l110 534h-115l28 136h115l15 69h250l-15 -69h236l-28 -136h-236l-24 -115h2q35 36 99.5 59.5t136.5 23.5q100 0 152 -41.5t52 -115.5q0 -25 -6 -53l-60 -292h-250z" />
    <glyph glyph-name="afii10109" unicode="&#x45c;" horiz-adv-x="832" 
d="M528 0l-109 184l-84 -62l-25 -122h-250l113 547h250l-40 -191l239 191h322l-305 -222l212 -325h-323zM630 608h-241l121 144h303z" />
    <glyph glyph-name="uni045D" unicode="&#x45d;" horiz-adv-x="849" 
d="M554 0l66 322l-297 -322h-263l113 547h236l-66 -319l286 319h273l-113 -547h-235zM466 608l-123 144h303l61 -144h-241z" />
    <glyph glyph-name="afii10110" unicode="&#x45e;" horiz-adv-x="722" 
d="M754 759q-36 -89 -97.5 -123t-174.5 -34q-118 0 -164 37.5t-46 114.5v5h132q2 -25 22.5 -34t77.5 -9q51 0 76.5 9t41.5 34h132z" />
    <glyph glyph-name="afii10193" unicode="&#x45f;" horiz-adv-x="832" 
d="M531 0l-30 -146h-230l30 146h-241l113 547h250l-78 -379h212l78 379h250l-113 -547h-241z" />
    <glyph glyph-name="afii10050" unicode="&#x490;" horiz-adv-x="770" 
d="M461 534l-110 -534h-282l148 714h459l34 166h250l-72 -346h-427z" />
    <glyph glyph-name="afii10098" unicode="&#x491;" horiz-adv-x="659" 
d="M388 379l-78 -379h-250l113 547h373l30 147h226l-65 -315h-349z" />
    <glyph glyph-name="Wgrave" unicode="&#x1e80;" horiz-adv-x="1166" 
d="M681 0l-15 396h-2l-180 -396h-277l-60 714h274v-436h2l196 436h225l13 -436h2l183 436h273l-357 -714h-277zM623 778l-123 144h303l61 -144h-241z" />
    <glyph glyph-name="wgrave" unicode="&#x1e81;" horiz-adv-x="1166" 
d="M689 0l-47 286l-165 -286h-291l-73 547h267l22 -323h2l186 323h212l42 -323h2l166 323h267l-299 -547h-291zM583 608l-123 144h303l61 -144h-241z" />
    <glyph glyph-name="Wacute" unicode="&#x1e82;" horiz-adv-x="1166" 
d="M681 0l-15 396h-2l-180 -396h-277l-60 714h274v-436h2l196 436h225l13 -436h2l183 436h273l-357 -714h-277zM863 778h-241l121 144h303z" />
    <glyph glyph-name="wacute" unicode="&#x1e83;" horiz-adv-x="1166" 
d="M689 0l-47 286l-165 -286h-291l-73 547h267l22 -323h2l186 323h212l42 -323h2l166 323h267l-299 -547h-291zM821 608h-241l121 144h303z" />
    <glyph glyph-name="Wdieresis" unicode="&#x1e84;" horiz-adv-x="1166" 
d="M681 0l-15 396h-2l-180 -396h-277l-60 714h274v-436h2l196 436h225l13 -436h2l183 436h273l-357 -714h-277zM466 784l26 132h242l-27 -132h-241zM785 784l27 132h242l-27 -132h-242z" />
    <glyph glyph-name="wdieresis" unicode="&#x1e85;" horiz-adv-x="1166" 
d="M689 0l-47 286l-165 -286h-291l-73 547h267l22 -323h2l186 323h212l42 -323h2l166 323h267l-299 -547h-291zM430 614l26 132h242l-27 -132h-241zM749 614l27 132h242l-27 -132h-242z" />
    <glyph glyph-name="uni1E9E" unicode="&#x1e9e;" horiz-adv-x="1090" 
d="M1117 231q-1 -90 -52 -147t-135 -83t-186 -26q-162 0 -235.5 41t-73.5 127q0 23 8 57h253q-4 -16 -4 -32q0 -31 18 -44.5t56 -13.5q33 0 56 20.5t23 62.5q0 20 -17.5 35.5t-54.5 30.5l-104 44q-63 29 -90.5 63.5t-27.5 75.5q0 53 27.5 85t67.5 44.5t89 21.5q-20 0 -85 2
q-92 0 -138 -33t-60 -98l-95 -464h-282l100 487q25 124 156.5 188t361.5 64q113 0 208.5 -6.5t171.5 -16.5l-32 -151q-93 0 -152 -19t-59 -51q0 -19 21.5 -32t65.5 -32l77 -35q55 -24 89 -64.5t34 -100.5z" />
    <glyph glyph-name="Ygrave" unicode="&#x1ef2;" horiz-adv-x="832" 
d="M275 0l41 201l-210 513h322l78 -280l194 280h322l-424 -513l-41 -201h-282zM460 778l-123 144h303l61 -144h-241z" />
    <glyph glyph-name="ygrave" unicode="&#x1ef3;" horiz-adv-x="722" 
d="M420 -86q-44 -64 -87 -87t-136 -23q-44 0 -101 3.5t-72 5.5l33 162q46 -3 66 -3q33 0 46.5 2.5t26.5 13t28 32.5l17 24l-150 503h262l63 -281l179 281h262zM378 608l-123 144h303l61 -144h-241z" />
    <glyph glyph-name="uni2010" unicode="&#x2010;" horiz-adv-x="481" 
d="M102 207l36 174h363l-36 -174h-363z" />
    <glyph glyph-name="endash" unicode="&#x2013;" horiz-adv-x="500" 
d="M44 213l33 162h500l-33 -162h-500z" />
    <glyph glyph-name="emdash" unicode="&#x2014;" horiz-adv-x="1000" 
d="M44 213l33 162h1000l-33 -162h-1000z" />
    <glyph glyph-name="afii00208" unicode="&#x2015;" horiz-adv-x="1000" 
d="M45 213l33 162h1000l-33 -162h-1000z" />
    <glyph glyph-name="quoteleft" unicode="&#x2018;" horiz-adv-x="408" 
d="M132 286l35 170q23 110 111 180t205 78l-19 -90q-55 -6 -91 -33t-50 -81h118l-47 -224h-262z" />
    <glyph glyph-name="quoteright" unicode="&#x2019;" horiz-adv-x="408" 
d="M151 376q56 6 91.5 33.5t49.5 80.5h-118l47 224h262l-35 -170q-13 -67 -57 -126t-117.5 -94.5t-141.5 -37.5z" />
    <glyph glyph-name="quotesinglbase" unicode="&#x201a;" horiz-adv-x="408" 
d="M49 -114q56 6 91.5 33.5t50.5 80.5h-118l46 224h262l-35 -170q-15 -72 -57.5 -128t-112.5 -91t-146 -39z" />
    <glyph glyph-name="quotedblleft" unicode="&#x201c;" horiz-adv-x="722" 
d="M111 286l35 170q23 109 110.5 179.5t205.5 78.5l-19 -90q-55 -6 -91 -33.5t-50 -80.5h118l-47 -224h-262zM467 286l35 170q23 109 109 178.5t207 79.5l-19 -90q-55 -6 -91 -33t-50 -81h118l-47 -224h-262z" />
    <glyph glyph-name="quotedblright" unicode="&#x201d;" horiz-adv-x="722" 
d="M130 376q56 6 91.5 33.5t49.5 80.5h-118l47 224h262l-35 -170q-15 -72 -59 -128.5t-116 -92t-141 -37.5zM486 376q56 6 91.5 33.5t49.5 80.5h-118l47 224h262l-35 -170q-18 -80 -65 -135.5t-116.5 -88t-134.5 -34.5z" />
    <glyph glyph-name="quotedblbase" unicode="&#x201e;" horiz-adv-x="722" 
d="M28 -114q57 7 92 34t50 80h-118l46 224h262l-35 -170q-15 -72 -57.5 -127.5t-112.5 -91t-146 -39.5zM384 -114q57 7 92 34t50 80h-118l46 224h262l-35 -170q-19 -83 -65.5 -137t-112 -85t-138.5 -36z" />
    <glyph glyph-name="dagger" unicode="&#x2020;" horiz-adv-x="964" 
d="M310 -196l111 536h-248l36 174h248l42 200h262l-42 -200h248l-36 -174h-248l-111 -536h-262z" />
    <glyph glyph-name="daggerdbl" unicode="&#x2021;" horiz-adv-x="964" 
d="M604 -12l-38 -184h-250l38 184h-254l32 156h254l48 230h-254l33 156h254l38 184h250l-38 -184h254l-33 -156h-254l-48 -230h254l-32 -156h-254z" />
    <glyph glyph-name="bullet" unicode="&#x2022;" horiz-adv-x="500" 
d="M142 320q0 58 33 108.5t83.5 78.5t102.5 28q66 0 105 -39.5t39 -102.5q0 -84 -66 -149t-152 -65q-66 0 -105.5 40.5t-39.5 100.5z" />
    <glyph glyph-name="ellipsis" unicode="&#x2026;" horiz-adv-x="1000" 
d="M36 0l46 224h262l-46 -224h-262zM369 0l46 224h262l-46 -224h-262zM702 0l46 224h262l-46 -224h-262z" />
    <glyph glyph-name="perthousand" unicode="&#x2030;" horiz-adv-x="1166" 
d="M105 480q0 52 23 111.5t70.5 91t118.5 31.5q138 0 138 -116q0 -55 -22 -114t-68 -90.5t-121 -31.5q-139 0 -139 118zM88 -20l621 734h128l-621 -734h-128zM300 636q-22 0 -34.5 -17.5t-24.5 -69t-12 -75.5q0 -19 7 -26.5t24 -7.5q24 0 35.5 15t24 72.5t12.5 74.5
q0 21 -9.5 27.5t-22.5 6.5zM470 96q0 51 23 112.5t71 92.5t118 31q138 0 138 -118q0 -50 -22 -110t-68.5 -92t-121.5 -32q-138 0 -138 116zM854 96q0 49 20.5 107.5t68 93.5t123.5 35q69 0 103.5 -28.5t34.5 -88.5q0 -51 -22.5 -110.5t-68.5 -92t-121 -32.5q-138 0 -138 116
zM665 254q-21 0 -34 -15t-25 -69t-12 -78q0 -19 7 -26.5t24 -7.5q27 0 38 20t22 66.5t11 74.5q0 18 -7 26.5t-24 8.5zM1048 254q-34 0 -46 -41t-18 -73.5t-6 -48.5q0 -17 7 -25t24 -8q25 0 37 17.5t23 70t11 73.5q0 19 -7 27t-25 8z" />
    <glyph glyph-name="guilsinglleft" unicode="&#x2039;" horiz-adv-x="408" 
d="M128 195l41 198l250 161l-35 -168l-144 -92l105 -92l-34 -168z" />
    <glyph glyph-name="guilsinglright" unicode="&#x203a;" horiz-adv-x="408" 
d="M111 34l34 168l145 92l-106 92l35 168l182 -161l-41 -198z" />
    <glyph glyph-name="uni203D" unicode="&#x203d;" horiz-adv-x="852" 
d="M355 286q5 27 14 43.5t31 33.5l20 167q-54 -20 -66 -72h-252q31 97 111.5 152.5t225.5 67.5l7 54h250l-15 -53q261 -18 261 -143q0 -60 -34.5 -105t-93.5 -69t-132 -38.5t-80 -37.5h-247zM608 431q34 7 57.5 23t23.5 46q0 15 -11 24.5t-37 14.5zM288 0l46 224h262
l-46 -224h-262z" />
    <glyph glyph-name="fraction" unicode="&#x2044;" horiz-adv-x="166" 
d="M-219 -20l620 734h128l-620 -734h-128z" />
    <glyph glyph-name="uni2070" unicode="&#x2070;" horiz-adv-x="627" 
d="M151 638q3 119 88.5 195t264.5 78q128 0 193 -43t65 -124q0 -78 -42.5 -144.5t-119 -97.5t-189.5 -31q-128 0 -194 42.5t-66 124.5zM344 665q0 -35 22.5 -57t67.5 -22q56 0 95.5 36.5t39.5 94.5q0 35 -23.5 57t-69.5 22q-55 0 -93.5 -38t-38.5 -93z" />
    <glyph glyph-name="uni2074" unicode="&#x2074;" horiz-adv-x="627" 
d="M644 547l-14 -70h-180l14 70h-332l23 111l311 247h252l-51 -248h82l-23 -110h-82zM513 785l-166 -128h140z" />
    <glyph glyph-name="uni2075" unicode="&#x2075;" horiz-adv-x="627" 
d="M373 797l-19 -43q30 8 64 13.5t78 5.5q126 0 184.5 -31t58.5 -89q0 -88 -86.5 -135t-242.5 -47q-142 0 -204.5 31t-62.5 100q0 14 1 19h199q4 -21 24.5 -30.5t63.5 -9.5q60 0 87.5 14.5t27.5 41.5q0 18 -21 28t-75 10q-34 0 -58.5 -5.5t-35.5 -11.5h-183l104 247h492
l-23 -108h-373z" />
    <glyph glyph-name="uni2076" unicode="&#x2076;" horiz-adv-x="627" 
d="M569 774q-2 15 -21 23t-64 8q-54 0 -84.5 -16t-42.5 -61h2q29 13 65.5 20.5t76.5 7.5q119 0 178 -27t59 -83q-1 -82 -81.5 -128.5t-220.5 -46.5q-153 0 -215.5 38t-62.5 121q0 69 35 139t112 106t202 36q127 0 189 -31t64 -106h-191zM349 612q0 -15 21 -25t65 -10
q46 0 74.5 10t28.5 34q0 15 -20 25t-69 10q-48 0 -74 -11t-26 -33z" />
    <glyph glyph-name="uni2077" unicode="&#x2077;" horiz-adv-x="597" 
d="M177 477q20 64 64.5 109.5t116 95.5t185.5 108h-370l24 115h586l-28 -135q-142 -77 -222.5 -148.5t-110.5 -144.5h-245z" />
    <glyph glyph-name="uni2078" unicode="&#x2078;" horiz-adv-x="627" 
d="M677 706q30 -7 47 -28t17 -48q0 -83 -83.5 -121t-246.5 -38q-144 0 -208 27t-64 86q0 43 27 76t75 46v1q-21 7 -35 22.5t-14 41.5q0 71 77.5 105.5t233.5 34.5q127 0 193 -21.5t66 -76.5q0 -38 -22 -66t-63 -40v-1zM385 768q0 -14 18 -19.5t64 -5.5q54 0 74.5 8.5
t20.5 29.5q0 14 -17.5 19.5t-66.5 5.5q-46 0 -69.5 -7.5t-23.5 -30.5zM341 608q0 -15 22 -22.5t71 -7.5q55 0 80.5 9.5t25.5 34.5q0 17 -19.5 23.5t-73.5 6.5q-63 0 -84.5 -10.5t-21.5 -33.5z" />
    <glyph glyph-name="uni2079" unicode="&#x2079;" horiz-adv-x="627" 
d="M555 654q-29 -13 -63 -20.5t-79 -7.5q-124 0 -180 28.5t-56 81.5q0 79 79.5 127t221.5 48q153 0 215.5 -38t62.5 -121q0 -73 -35 -141t-110.5 -104t-203.5 -36q-127 0 -189 31.5t-64 105.5h191q2 -16 21 -23.5t64 -7.5q54 0 85 16t42 61h-2zM377 761q0 -15 19 -25t69 -10
q48 0 74 11t26 33q0 15 -21 25t-65 10q-46 0 -74 -10t-28 -34z" />
    <glyph glyph-name="uni2080" unicode="&#x2080;" horiz-adv-x="627" 
d="M22 8q3 119 88.5 195t264.5 78q128 0 193 -43t65 -124q0 -78 -42.5 -144.5t-119 -97.5t-189.5 -31q-128 0 -194 42.5t-66 124.5zM215 35q0 -35 22.5 -57t67.5 -22q56 0 95.5 36.5t39.5 94.5q0 35 -23.5 57t-69.5 22q-55 0 -93.5 -38t-38.5 -93z" />
    <glyph glyph-name="uni2081" unicode="&#x2081;" horiz-adv-x="434" 
d="M150 -153l50 239h-138l23 114h9q69 0 109 13.5t69 61.5h153l-89 -428h-186z" />
    <glyph glyph-name="uni2082" unicode="&#x2082;" horiz-adv-x="627" 
d="M-12 -153q17 72 54.5 118.5t88 72t105.5 37.5t95 19.5t72.5 14.5t32.5 35q0 12 -15.5 18.5t-52.5 6.5q-36 0 -58.5 -6t-35.5 -18t-24 -41h-210q29 95 108 136t221 41t207.5 -28t65.5 -86q0 -57 -48 -99t-133 -56l-171 -28q-78 -16 -85 -21v-2h377l-24 -114h-570z" />
    <glyph glyph-name="uni2083" unicode="&#x2083;" horiz-adv-x="627" 
d="M528 75q85 -14 85 -76q0 -42 -29 -79t-99.5 -58t-189.5 -21q-133 0 -183.5 14t-76 41t-25.5 68q0 9 2 26h202q0 -22 25 -31.5t70 -9.5q50 0 76.5 11t26.5 32q0 15 -18 20.5t-44 5.5h-122l21 102h129q23 0 38 6t15 23q0 24 -78 24q-41 0 -58.5 -4.5t-26.5 -19.5h-206
q20 72 97 102t217 30q139 0 201 -22.5t62 -72.5q0 -48 -28.5 -73.5t-81.5 -35.5z" />
    <glyph glyph-name="uni2084" unicode="&#x2084;" horiz-adv-x="627" 
d="M515 -83l-14 -70h-180l14 70h-332l23 111l311 247h252l-51 -248h82l-23 -110h-82zM384 155l-166 -128h140z" />
    <glyph glyph-name="uni2085" unicode="&#x2085;" horiz-adv-x="627" 
d="M244 167l-19 -43q30 8 64 13.5t78 5.5q126 0 184.5 -31t58.5 -89q0 -88 -86.5 -135t-242.5 -47q-142 0 -204.5 31t-62.5 100q0 14 1 19h199q4 -21 24.5 -30.5t63.5 -9.5q60 0 87.5 14.5t27.5 41.5q0 18 -21 28t-75 10q-34 0 -58.5 -5.5t-35.5 -11.5h-183l104 247h492
l-23 -108h-373z" />
    <glyph glyph-name="uni2086" unicode="&#x2086;" horiz-adv-x="627" 
d="M440 144q-2 15 -21 23t-64 8q-54 0 -84.5 -16t-42.5 -61h2q29 13 65.5 20.5t76.5 7.5q119 0 178 -27t59 -83q-1 -82 -81.5 -128.5t-220.5 -46.5q-153 0 -215.5 38t-62.5 121q0 69 35 139t112 106t202 36q127 0 189 -31t64 -106h-191zM220 -18q0 -15 21 -25t65 -10
q46 0 74.5 10t28.5 34q0 15 -20 25t-69 10q-48 0 -74 -11t-26 -33z" />
    <glyph glyph-name="uni2087" unicode="&#x2087;" horiz-adv-x="597" 
d="M48 -153q20 64 64.5 109.5t116 95.5t185.5 108h-370l24 115h586l-28 -135q-142 -77 -222.5 -148.5t-110.5 -144.5h-245z" />
    <glyph glyph-name="uni2088" unicode="&#x2088;" horiz-adv-x="627" 
d="M548 76q30 -7 47 -28t17 -48q0 -83 -83.5 -121t-246.5 -38q-144 0 -208 27t-64 86q0 43 27 76t75 46v1q-21 7 -35 22.5t-14 41.5q0 71 77.5 105.5t233.5 34.5q127 0 193 -21.5t66 -76.5q0 -38 -22 -66t-63 -40v-1zM256 138q0 -14 18 -19.5t64 -5.5q54 0 74.5 8.5
t20.5 29.5q0 14 -17.5 19.5t-66.5 5.5q-46 0 -69.5 -7.5t-23.5 -30.5zM212 -22q0 -15 22 -22.5t71 -7.5q55 0 80.5 9.5t25.5 34.5q0 17 -19.5 23.5t-73.5 6.5q-63 0 -84.5 -10.5t-21.5 -33.5z" />
    <glyph glyph-name="uni2089" unicode="&#x2089;" horiz-adv-x="627" 
d="M426 24q-29 -13 -63 -20.5t-79 -7.5q-124 0 -180 28.5t-56 81.5q0 79 79.5 127t221.5 48q153 0 215.5 -38t62.5 -121q0 -73 -35 -141t-110.5 -104t-203.5 -36q-127 0 -189 31.5t-64 105.5h191q2 -16 21 -23.5t64 -7.5q54 0 85 16t42 61h-2zM248 131q0 -15 19 -25t69 -10
q48 0 74 11t26 33q0 15 -21 25t-65 10q-46 0 -74 -10t-28 -34z" />
    <glyph glyph-name="Euro" unicode="&#x20ac;" horiz-adv-x="964" 
d="M867 13q-68 -17 -139 -27t-142 -10q-194 0 -284 66t-90 196v7h-96l70 85h36q0 14 6 31h-87l69 85h44q107 262 498 262q164 0 304 -61l-145 -163q-60 36 -102.5 50t-83.5 14q-57 0 -98.5 -24t-78.5 -78h335l-70 -85h-299q-2 -5 -4 -14t-3 -17h283l-70 -85h-216
q8 -55 41.5 -81.5t100.5 -26.5t126.5 20t138.5 62z" />
    <glyph glyph-name="uni20B9" unicode="&#x20b9;" horiz-adv-x="964" 
d="M835 590q8 -13 11.5 -25t4.5 -26h164l-24 -104h-148q-23 -85 -99.5 -135.5t-190.5 -50.5h-45l305 -249h-363l-282 255l27 127h208q66 0 104 12t55 41h-357l21 104h347q-11 29 -43 39.5t-95 10.5h-197l22 105h789l-22 -104h-192z" />
    <glyph glyph-name="uni20BA" unicode="&#x20ba;" horiz-adv-x="888" 
d="M135 0l45 211l-95 -34l24 111l95 34l10 47l-95 -34l24 111l95 34l46 212h250l-25 -114l255 93l-24 -111l-255 -93l-10 -47l255 93l-23 -111l-256 -93l-34 -155h34q78 0 127 46.5t69 139.5h286q-33 -167 -161 -253.5t-344 -86.5h-293z" />
    <glyph glyph-name="uni20BD" unicode="&#x20bd;" horiz-adv-x="964" 
d="M458 -1h-250l20 100h-140l27 122h140l13 61h-140l26 122h140l60 287h477q100 0 148.5 -38t48.5 -115q0 -119 -84 -187.5t-222 -68.5h-204l-13 -61h280l-27 -122h-280zM650 404q51 0 77 20t26 68q0 33 -21 47t-59 14h-98l-31 -149h106z" />
    <glyph glyph-name="afii61248" unicode="&#x2105;" horiz-adv-x="1093" 
d="M444 556v4q0 20 -16 33t-47 13q-46 0 -72 -32t-26 -81q0 -30 16.5 -43.5t47.5 -13.5q32 0 54 17t30 40h158q-26 -81 -91.5 -123t-171.5 -42q-99 0 -150.5 36t-51.5 107q3 86 50 151q71 92 231 92q102 0 148.5 -35t46.5 -108v-15h-156zM243 -20l621 734h128l-621 -734
h-128zM636 123q0 45 19.5 96t56.5 83t86.5 48t115.5 16q97 0 147 -35.5t50 -103.5q0 -49 -18 -96.5t-50 -79.5t-82.5 -51.5t-124.5 -19.5q-200 0 -200 143zM890 258q-44 0 -70 -33t-26 -82q0 -26 15.5 -40.5t47.5 -14.5q45 0 70.5 33t25.5 85q0 23 -16 37.5t-47 14.5z" />
    <glyph glyph-name="afii61289" unicode="&#x2113;" horiz-adv-x="500" 
d="M401 48q-47 -32 -91.5 -47t-93.5 -15q-69 0 -108.5 34t-39.5 91q0 16 7 51l-60 -41l-41 89l128 82l47 224q19 94 79.5 149.5t144.5 55.5q59 0 99.5 -38.5t40.5 -97.5q-1 -87 -67 -163.5t-197 -158.5l-14 -59q-11 -47 -11 -64q0 -20 11.5 -30.5t28.5 -10.5q22 0 47.5 11.5
t51.5 28.5zM278 398q51 42 78.5 90t27.5 91q0 17 -7.5 28.5t-21.5 11.5q-28 0 -41 -55z" />
    <glyph glyph-name="afii61352" unicode="&#x2116;" horiz-adv-x="1584" 
d="M601 0l-179 403l-83 -403h-270l143 694h334l175 -396l82 396h270l-143 -694h-329zM1001 0l29 144h516l-29 -144h-516zM1296 180q-127 0 -185 32t-58 103q0 63 31.5 118t100.5 82t186 27q127 0 185 -32t58 -103q0 -64 -31.5 -118t-99 -81.5t-187.5 -27.5zM1418 374
q0 25 -17 39.5t-54 14.5q-28 0 -49.5 -9t-34.5 -26.5t-14 -44.5q0 -25 16.5 -39.5t54.5 -14.5q45 0 71.5 23t26.5 57z" />
    <glyph glyph-name="uni2117" unicode="&#x2117;" horiz-adv-x="800" 
d="M84 279q0 115 66 222t177 172.5t226 65.5q93 0 164 -40.5t109 -110.5t38 -153q0 -113 -66 -221t-177 -173.5t-227 -65.5q-84 0 -155 37t-113 107t-42 160zM528 625q-88 0 -161.5 -48.5t-114.5 -125.5t-41 -160q0 -90 56 -146t151 -56q90 0 164.5 49t114.5 126.5t40 158.5
q0 92 -57 147t-152 55zM298 154l84 408h160q71 0 106.5 -24.5t35.5 -72.5q0 -44 -21.5 -83t-64.5 -58.5t-106 -19.5h-67l-31 -150h-96zM509 382q29 0 50 16.5t21 48.5q0 17 -12 27t-41 10h-65l-21 -102h68z" />
    <glyph glyph-name="trademark" unicode="&#x2122;" horiz-adv-x="1000" 
d="M173 302l63 304h-112l23 108h368l-23 -108h-112l-63 -304h-144zM891 302l56 268h-2l-138 -268h-102l-26 268h-2l-56 -268h-132l86 412h192l24 -237h2l124 237h192l-86 -412h-132z" />
    <glyph glyph-name="uni2126" unicode="&#x2126;" horiz-adv-x="1040" 
d="M593 0l43 212q63 31 99.5 90.5t36.5 127.5q0 60 -35.5 94.5t-101.5 34.5q-96 -1 -152.5 -68.5t-57.5 -155.5q0 -42 17 -73t48 -50l-43 -212h-391l33 162h151l3 13q-50 16 -79 58.5t-29 107.5q0 109 64 203t189 144.5t285 50.5q185 0 294 -69t109 -193q-1 -108 -59 -192.5
t-148 -109.5l-3 -13h151l-33 -162h-391z" />
    <glyph glyph-name="estimated" unicode="&#x212e;" horiz-adv-x="600" 
d="M530 118q-49 -76 -100 -105.5t-128 -29.5q-112 0 -184.5 77.5t-73.5 198.5q0 73 30.5 136.5t90 101.5t137.5 38q115 -1 187 -78t72 -198h-404v-181q59 -59 145 -59q62 0 108.5 28.5t84.5 91.5zM448 440q-63 60 -148 60q-82 0 -143 -60v-145h291v145z" />
    <glyph glyph-name="partialdiff" unicode="&#x2202;" horiz-adv-x="593" 
d="M68 638q46 45 94.5 64t105.5 19q133 0 206 -95.5t73 -267.5q0 -89 -16.5 -158t-49.5 -117q-67 -97 -195 -97q-107 0 -174.5 66t-67.5 171q0 96 63 162.5t162 67.5q65 0 123 -41q0 87 -31 139t-89 52q-34 0 -64.5 -16.5t-55.5 -41.5zM390 294q-20 20 -45.5 31.5
t-50.5 11.5q-43 0 -71.5 -35t-28.5 -86q0 -48 25.5 -82t66.5 -34q49 0 76.5 49.5t27.5 134.5v10z" />
    <glyph glyph-name="uni2206" unicode="&#x2206;" horiz-adv-x="906" 
d="M33 0l27 134l368 580h346l126 -580l-27 -134h-840zM557 498h-2l-180 -324h228z" />
    <glyph glyph-name="product" unicode="&#x220f;" horiz-adv-x="759" 
d="M554 -214v845h-350v-845h-157v1000h663v-1000h-156z" />
    <glyph glyph-name="summation" unicode="&#x2211;" horiz-adv-x="704" 
d="M29 -214v135l286 372l-275 356v137h621v-156h-413l251 -337l-266 -351h440v-156h-644z" />
    <glyph glyph-name="minus" unicode="&#x2212;" horiz-adv-x="600" 
d="M84 181l30 144h506l-30 -144h-506z" />
    <glyph glyph-name="uni2215" unicode="&#x2215;" horiz-adv-x="166" 
d="M-219 -20l620 734h128l-620 -734h-128z" />
    <glyph glyph-name="uni2219" unicode="&#x2219;" horiz-adv-x="408" 
d="M121 218q1 62 49.5 109t111.5 48q48 -1 77.5 -30.5t29.5 -74.5q0 -61 -49 -109t-112 -48q-47 0 -77 30t-30 75z" />
    <glyph glyph-name="radical" unicode="&#x221a;" horiz-adv-x="611" 
d="M249 -214l-140 286l-58 -27l-57 122l197 91l104 -232l155 760h166l-225 -1000h-142z" />
    <glyph glyph-name="infinity" unicode="&#x221e;" horiz-adv-x="889" 
d="M443 173q-48 -65 -92.5 -91t-98.5 -26q-94 0 -151 61.5t-57 158.5q0 96 56 155t147 59q53 0 97.5 -26t98.5 -100q45 67 89.5 96.5t107.5 29.5q91 0 146.5 -58t56.5 -156q0 -100 -56 -160.5t-147 -60.5q-55 0 -102.5 27.5t-94.5 90.5zM364 271q-23 34 -56 58t-60 24
q-30 0 -51 -23.5t-21 -57.5q0 -35 19.5 -56.5t53.5 -21.5q29 0 58 18.5t57 58.5zM522 271q29 -41 58 -59.5t58 -18.5q34 0 53.5 22t19.5 58q0 35 -21.5 57.5t-55.5 22.5q-24 0 -55 -22t-57 -60z" />
    <glyph glyph-name="integral" unicode="&#x222b;" horiz-adv-x="667" 
d="M231 474q0 109 14.5 162t39.5 84.5t61 48.5t83 17q59 0 101 -28.5t42 -73.5q0 -32 -20 -52.5t-52 -20.5q-35 0 -50 17t-17.5 54.5t-21.5 37.5q-9 0 -14.5 -8t-5.5 -34q0 -43 4 -99t4 -113l1 -380q0 -157 -48 -229t-150 -72q-58 0 -100.5 28t-42.5 74q0 33 19.5 53
t51.5 20q20 0 34 -6.5t22.5 -21t11.5 -37t7 -33t15 -10.5q9 0 14.5 8t5.5 36q0 40 -4.5 86t-4.5 79v413z" />
    <glyph glyph-name="approxequal" unicode="&#x2248;" horiz-adv-x="593" 
d="M683 503q-27 -94 -82.5 -155t-121.5 -61q-38 0 -119.5 30t-120.5 30q-22 0 -39 -15.5t-25 -38.5h-101q19 83 77.5 149.5t125.5 66.5q46 0 122 -29.5t120 -29.5q27 0 41 15t21 38h102zM631 253q-32 -102 -83.5 -159.5t-114.5 -57.5q-38 0 -82.5 15.5t-86 30t-77.5 14.5
q-26 0 -41 -14.5t-22 -37.5h-101q21 88 80 151t119 63q48 0 122 -29.5t122 -29.5q23 0 37.5 12t25.5 42h102z" />
    <glyph glyph-name="notequal" unicode="&#x2260;" horiz-adv-x="593" 
d="M389 635l137 -68l-46 -93h88v-158h-165l-43 -87h208v-157h-285l-80 -163l-138 68l46 95h-89v157h167l42 87h-209v158h287z" />
    <glyph glyph-name="lessequal" unicode="&#x2264;" horiz-adv-x="593" 
d="M22 292v156l546 148v-160l-325 -66l325 -81v-161zM22 -53v157h546v-157h-546z" />
    <glyph glyph-name="greaterequal" unicode="&#x2265;" horiz-adv-x="593" 
d="M22 128v161l327 81l-327 66v160l546 -148v-156zM22 -53v157h546v-157h-546z" />
    <glyph glyph-name="lozenge" unicode="&#x25ca;" horiz-adv-x="593" 
d="M223 -35l-194 391l196 391h140l196 -391l-196 -391h-142zM399 356l-104 231l-105 -231l105 -231z" />
    <glyph glyph-name="zero.dnom" horiz-adv-x="627" 
d="M55 163q3 119 88.5 195t264.5 78q128 0 193 -43t65 -124q0 -78 -42.5 -144.5t-119 -97.5t-189.5 -31q-128 0 -194 42.5t-66 124.5zM248 190q0 -35 22.5 -57t67.5 -22q56 0 95.5 36.5t39.5 94.5q0 35 -23.5 57t-69.5 22q-55 0 -93.5 -38t-38.5 -93z" />
    <glyph glyph-name="one.dnom" horiz-adv-x="434" 
d="M183 2l50 239h-138l23 114h9q69 0 109 13.5t69 61.5h153l-89 -428h-186z" />
    <glyph glyph-name="two.dnom" horiz-adv-x="627" 
d="M21 2q17 72 54.5 118.5t88 72t105.5 37.5t95 19.5t72.5 14.5t32.5 35q0 12 -15.5 18.5t-52.5 6.5q-36 0 -58.5 -6t-35.5 -18t-24 -41h-210q29 95 108 136t221 41t207.5 -28t65.5 -86q0 -57 -48 -99t-133 -56l-171 -28q-78 -16 -85 -21v-2h377l-24 -114h-570z" />
    <glyph glyph-name="three.dnom" horiz-adv-x="627" 
d="M561 230q85 -14 85 -76q0 -42 -29 -79t-99.5 -58t-189.5 -21q-133 0 -183.5 14t-76 41t-25.5 68q0 9 2 26h202q0 -22 25 -31.5t70 -9.5q50 0 76.5 11t26.5 32q0 15 -18 20.5t-44 5.5h-122l21 102h129q23 0 38 6t15 23q0 24 -78 24q-41 0 -58.5 -4.5t-26.5 -19.5h-206
q20 72 97 102t217 30q139 0 201 -22.5t62 -72.5q0 -48 -28.5 -73.5t-81.5 -35.5z" />
    <glyph glyph-name="four.dnom" horiz-adv-x="627" 
d="M547 72l-14 -70h-180l14 70h-332l23 111l311 247h252l-51 -248h82l-23 -110h-82zM416 310l-166 -128h140z" />
    <glyph glyph-name="five.dnom" horiz-adv-x="627" 
d="M276 322l-19 -43q30 8 64 13.5t78 5.5q126 0 184.5 -31t58.5 -89q0 -88 -86.5 -135t-242.5 -47q-142 0 -204.5 31t-62.5 100q0 14 1 19h199q4 -21 24.5 -30.5t63.5 -9.5q60 0 87.5 14.5t27.5 41.5q0 18 -21 28t-75 10q-34 0 -58.5 -5.5t-35.5 -11.5h-183l104 247h492
l-23 -108h-373z" />
    <glyph glyph-name="six.dnom" horiz-adv-x="627" 
d="M471 299q-2 15 -21 23t-64 8q-54 0 -84.5 -16t-42.5 -61h2q29 13 65.5 20.5t76.5 7.5q119 0 178 -27t59 -83q-1 -82 -81.5 -128.5t-220.5 -46.5q-153 0 -215.5 38t-62.5 121q0 69 35 139t112 106t202 36q127 0 189 -31t64 -106h-191zM251 137q0 -15 21 -25t65 -10
q46 0 74.5 10t28.5 34q0 15 -20 25t-69 10q-48 0 -74 -11t-26 -33z" />
    <glyph glyph-name="seven.dnom" horiz-adv-x="597" 
d="M80 2q20 64 64.5 109.5t116 95.5t185.5 108h-370l24 115h586l-28 -135q-142 -77 -222.5 -148.5t-110.5 -144.5h-245z" />
    <glyph glyph-name="eight.dnom" horiz-adv-x="627" 
d="M580 231q30 -7 47 -28t17 -48q0 -83 -83.5 -121t-246.5 -38q-144 0 -208 27t-64 86q0 43 27 76t75 46v1q-21 7 -35 22.5t-14 41.5q0 71 77.5 105.5t233.5 34.5q127 0 193 -21.5t66 -76.5q0 -38 -22 -66t-63 -40v-1zM288 293q0 -14 18 -19.5t64 -5.5q54 0 74.5 8.5
t20.5 29.5q0 14 -17.5 19.5t-66.5 5.5q-46 0 -69.5 -7.5t-23.5 -30.5zM244 133q0 -15 22 -22.5t71 -7.5q55 0 80.5 9.5t25.5 34.5q0 17 -19.5 23.5t-73.5 6.5q-63 0 -84.5 -10.5t-21.5 -33.5z" />
    <glyph glyph-name="nine.dnom" horiz-adv-x="627" 
d="M459 179q-29 -13 -63 -20.5t-79 -7.5q-124 0 -180 28.5t-56 81.5q0 79 79.5 127t221.5 48q153 0 215.5 -38t62.5 -121q0 -73 -35 -141t-110.5 -104t-203.5 -36q-127 0 -189 31.5t-64 105.5h191q2 -16 21 -23.5t64 -7.5q54 0 85 16t42 61h-2zM281 286q0 -15 19 -25t69 -10
q48 0 74 11t26 33q0 15 -21 25t-65 10q-46 0 -74 -10t-28 -34z" />
    <glyph glyph-name="zero.frac" horiz-adv-x="627" 
d="M109 429q3 119 88.5 195t264.5 78q128 0 193 -43t65 -124q0 -78 -42.5 -144.5t-119 -97.5t-189.5 -31q-128 0 -194 42.5t-66 124.5zM302 456q0 -35 22.5 -57t67.5 -22q56 0 95.5 36.5t39.5 94.5q0 35 -23.5 57t-69.5 22q-55 0 -93.5 -38t-38.5 -93z" />
    <glyph glyph-name="one.frac" horiz-adv-x="434" 
d="M237 268l50 239h-138l23 114h9q69 0 109 13.5t69 61.5h153l-89 -428h-186z" />
    <glyph glyph-name="two.frac" horiz-adv-x="627" 
d="M75 268q17 72 54.5 118.5t88 72t105.5 37.5t95 19.5t72.5 14.5t32.5 35q0 12 -15.5 18.5t-52.5 6.5q-36 0 -58.5 -6t-35.5 -18t-24 -41h-210q29 95 108 136t221 41t207.5 -28t65.5 -86q0 -57 -48 -99t-133 -56l-171 -28q-78 -16 -85 -21v-2h377l-24 -114h-570z" />
    <glyph glyph-name="three.frac" horiz-adv-x="627" 
d="M615 496q85 -14 85 -76q0 -42 -29 -79t-99.5 -58t-189.5 -21q-133 0 -183.5 14t-76 41t-25.5 68q0 9 2 26h202q0 -22 25 -31.5t70 -9.5q50 0 76.5 11t26.5 32q0 15 -18 20.5t-44 5.5h-122l21 102h129q23 0 38 6t15 23q0 24 -78 24q-41 0 -58.5 -4.5t-26.5 -19.5h-206
q20 72 97 102t217 30q139 0 201 -22.5t62 -72.5q0 -48 -28.5 -73.5t-81.5 -35.5z" />
    <glyph glyph-name="four.frac" horiz-adv-x="627" 
d="M603 338l-14 -70h-180l14 70h-332l23 111l311 247h252l-51 -248h82l-23 -110h-82zM472 576l-166 -128h140z" />
    <glyph glyph-name="five.frac" horiz-adv-x="627" 
d="M332 588l-19 -43q30 8 64 13.5t78 5.5q126 0 184.5 -31t58.5 -89q0 -88 -86.5 -135t-242.5 -47q-142 0 -204.5 31t-62.5 100q0 14 1 19h199q4 -21 24.5 -30.5t63.5 -9.5q60 0 87.5 14.5t27.5 41.5q0 18 -21 28t-75 10q-34 0 -58.5 -5.5t-35.5 -11.5h-183l104 247h492
l-23 -108h-373z" />
    <glyph glyph-name="six.frac" horiz-adv-x="627" 
d="M528 565q-2 15 -21 23t-64 8q-54 0 -84.5 -16t-42.5 -61h2q29 13 65.5 20.5t76.5 7.5q119 0 178 -27t59 -83q-1 -82 -81.5 -128.5t-220.5 -46.5q-153 0 -215.5 38t-62.5 121q0 69 35 139t112 106t202 36q127 0 189 -31t64 -106h-191zM308 403q0 -15 21 -25t65 -10
q46 0 74.5 10t28.5 34q0 15 -20 25t-69 10q-48 0 -74 -11t-26 -33z" />
    <glyph glyph-name="seven.frac" horiz-adv-x="597" 
d="M136 268q20 64 64.5 109.5t116 95.5t185.5 108h-370l24 115h586l-28 -135q-142 -77 -222.5 -148.5t-110.5 -144.5h-245z" />
    <glyph glyph-name="eight.frac" horiz-adv-x="627" 
d="M636 497q30 -7 47 -28t17 -48q0 -83 -83.5 -121t-246.5 -38q-144 0 -208 27t-64 86q0 43 27 76t75 46v1q-21 7 -35 22.5t-14 41.5q0 71 77.5 105.5t233.5 34.5q127 0 193 -21.5t66 -76.5q0 -38 -22 -66t-63 -40v-1zM344 559q0 -14 18 -19.5t64 -5.5q54 0 74.5 8.5
t20.5 29.5q0 14 -17.5 19.5t-66.5 5.5q-46 0 -69.5 -7.5t-23.5 -30.5zM300 399q0 -15 22 -22.5t71 -7.5q55 0 80.5 9.5t25.5 34.5q0 17 -19.5 23.5t-73.5 6.5q-63 0 -84.5 -10.5t-21.5 -33.5z" />
    <glyph glyph-name="nine.frac" horiz-adv-x="627" 
d="M514 445q-29 -13 -63 -20.5t-79 -7.5q-124 0 -180 28.5t-56 81.5q0 79 79.5 127t221.5 48q153 0 215.5 -38t62.5 -121q0 -73 -35 -141t-110.5 -104t-203.5 -36q-127 0 -189 31.5t-64 105.5h191q2 -16 21 -23.5t64 -7.5q54 0 85 16t42 61h-2zM336 552q0 -15 19 -25t69 -10
q48 0 74 11t26 33q0 15 -21 25t-65 10q-46 0 -74 -10t-28 -34z" />
    <glyph glyph-name="glyph604" horiz-adv-x="408" 
d="M324 -121q-13 -64 -53.5 -89t-150.5 -25l10 48q29 2 45 8t26 21h-106l22 108h222z" />
    <glyph glyph-name="glyph605" horiz-adv-x="408" 
d="M216 631l15 71q10 42 28 66t54.5 35t121.5 13l-10 -48q-26 -2 -43 -7.5t-27 -21.5h105l-22 -108h-222z" />
    <glyph glyph-name="glyph606" horiz-adv-x="278" 
d="M585 919q-32 -75 -79 -115.5t-104 -40.5q-30 0 -141.5 24t-134.5 24q-16 0 -26.5 -8t-19.5 -21h-106q35 73 83.5 114t109.5 41q28 0 138 -24q111 -24 126 -24q14 0 26 6.5t22 23.5h106z" />
    <glyph glyph-name="glyph607" horiz-adv-x="278" 
d="M174 778l-123 144h303l61 -144h-241z" />
    <glyph glyph-name="glyph608" horiz-adv-x="278" 
d="M352 778h-241l121 144h303z" />
    <glyph glyph-name="glyph609" horiz-adv-x="278" 
d="M318 778l-52 76l-84 -76h-252l184 144h358l125 -144h-279z" />
    <glyph glyph-name="glyph610" horiz-adv-x="278" 
d="M442 778h-358l-124 144h278l53 -76l83 76h253z" />
    <glyph glyph-name="glyph611" horiz-adv-x="278" 
d="M166 577l63 162h237l-118 -162h-182z" />
    <glyph glyph-name="glyph612" horiz-adv-x="278" 
d="M144 784l27 132h242l-27 -132h-242z" />
    <glyph glyph-name="glyph613" horiz-adv-x="278" 
d="M127 778h-240l120 144h303zM487 778h-241l121 144h303z" />
    <glyph glyph-name="glyph614" horiz-adv-x="278" 
d="M150 850q0 65 51 113t121 48q48 0 79 -27t31 -78q0 -58 -46.5 -107.5t-118.5 -49.5q-53 0 -85 28t-32 73zM230 866q0 -19 13 -32.5t36 -13.5q27 0 50.5 21.5t23.5 50.5q0 20 -13.5 34t-35.5 14q-28 0 -51 -22.5t-23 -51.5z" />
    <glyph glyph-name="glyph615" horiz-adv-x="278" 
d="M534 929q-35 -89 -97.5 -123t-174.5 -34q-118 0 -164 37.5t-46 114.5v5h132q2 -25 21.5 -34t78.5 -9q49 0 75.5 9t42.5 34h132z" />
    <glyph glyph-name="glyph616" horiz-adv-x="278" 
d="M118 784l32 132h570l-33 -132h-569z" />
    <glyph glyph-name="glyph617" horiz-adv-x="278" 
d="M-15 784l26 132h242l-27 -132h-241zM304 784l27 132h242l-27 -132h-242z" />
    <glyph glyph-name="glyph618" horiz-adv-x="354" 
d="M134 550l72 164h276l-150 -164h-198z" />
    </font>
</defs>
</svg>
